<?xml version="1.0" encoding="UTF-8"?><svg xmlns="http://www.w3.org/2000/svg" xmlns:xlink="http://www.w3.org/1999/xlink" viewBox="0 0 460 357"><defs><style>.cls-1{fill:url(#linear-gradient-2);}.cls-2,.cls-3,.cls-4,.cls-5,.cls-6,.cls-7{fill:#fff;}.cls-8,.cls-5{stroke:#cde8ec;}.cls-8,.cls-5,.cls-9,.cls-10,.cls-11,.cls-12,.cls-13{stroke-linecap:round;}.cls-8,.cls-5,.cls-10,.cls-14,.cls-11,.cls-12,.cls-13{stroke-width:3px;}.cls-8,.cls-5,.cls-10,.cls-11,.cls-12,.cls-13{stroke-linejoin:round;}.cls-8,.cls-9,.cls-15,.cls-10,.cls-14,.cls-16,.cls-17,.cls-11,.cls-12,.cls-13{fill:none;}.cls-18{fill:#87b6a2;}.cls-3,.cls-6,.cls-19,.cls-20,.cls-7,.cls-21{fill-rule:evenodd;}.cls-4{stroke-width:.5px;}.cls-4,.cls-15{stroke:#87b6a2;}.cls-9{stroke:#333;stroke-width:7px;}.cls-9,.cls-14{stroke-miterlimit:10;}.cls-22{fill:#d6eaf2;}.cls-23{fill:#ffba00;}.cls-24{fill:#fd8369;}.cls-25{fill:#395460;}.cls-26{fill:#99c9e5;}.cls-27{fill:#333;}.cls-28{fill:#fcc486;}.cls-29{fill:#aea61f;}.cls-10{stroke:#9f9300;}.cls-6,.cls-19,.cls-20,.cls-7{isolation:isolate;}.cls-6,.cls-20{opacity:.4;}.cls-30{fill:#495f77;}.cls-31{opacity:.6;}.cls-14{stroke:#f1b104;}.cls-32{clip-path:url(#clippath);}.cls-33{fill:#74d5de;}.cls-34{fill:#fed385;}.cls-17{stroke:#000;stroke-width:.25px;}.cls-11{stroke:#99c9e5;}.cls-35{fill:#ccc;}.cls-19,.cls-7{opacity:.35;}.cls-36{fill:#fed892;}.cls-12{stroke:#d3a000;}.cls-37{fill:#de8e68;}.cls-38{opacity:.2;}.cls-39{fill:url(#linear-gradient-3);}.cls-40{fill:#ecf0f1;}.cls-41{fill:url(#linear-gradient);}.cls-42{fill:#648d9e;}.cls-43{fill:#56cad8;}.cls-44{fill:#f9c543;}.cls-13{stroke:#fff;}</style><linearGradient id="linear-gradient" x1="269.38" y1="397.09" x2="269.38" y2="378.35" gradientTransform="translate(15.33 585.94) scale(.95 -1)" gradientUnits="userSpaceOnUse"><stop offset="0" stop-color="#648d9e"/><stop offset="1" stop-color="#34697e"/></linearGradient><linearGradient id="linear-gradient-2" x1="260.01" y1="72.21" x2="277.12" y2="72.21" gradientTransform="translate(15.32 1.93) scale(.95 1)" gradientUnits="userSpaceOnUse"><stop offset="0" stop-color="#303030"/><stop offset=".12" stop-color="#232323"/><stop offset=".3" stop-color="#171717"/><stop offset=".48" stop-color="#131313"/><stop offset=".78" stop-color="#141414"/><stop offset=".89" stop-color="#1b1b1b"/><stop offset=".96" stop-color="#272727"/><stop offset="1" stop-color="#303030"/></linearGradient><clipPath id="clippath"><rect class="cls-16" x="142.72" y="29.76" width="123.78" height="247.21"/></clipPath><linearGradient id="linear-gradient-3" x1="188.14" y1="36.71" x2="205.24" y2="36.71" gradientTransform="translate(16.78 -1.47) scale(.95 1)" xlink:href="#linear-gradient-2"/></defs><g id="Background_Layer"><rect class="cls-40" width="460" height="357"/></g><g id="Layer_1"><rect class="cls-27" x="336" y="118" width="3" height="25" rx=".5" ry=".5"/><g><g><g><g><g><g><rect class="cls-2" x="209.78" y="71.44" width="123.04" height="252" rx="3.78" ry="3.78"/><g><rect class="cls-2" x="211.9" y="72.44" width="119.86" height="250"/><image width="350" height="423" transform="translate(218.25 141.36) scale(.31 .29)" xlink:href="../../../../ResumeAssets/image 5.png"/><path class="cls-42" d="M210,297.21c0-2.88-.38-5.21,3-5.21h53c3.38,0,3.9,2.33,3.9,5.21v10.38c0,1.02-.91,1.85-2.03,1.85h-55.84c-1.12,0-2.03-.83-2.03-1.85v-10.38Z"/><path class="cls-2" d="M226.32,301.68h-1.95l-.37,.87h-.99l1.87-4.04h.96l1.87,4.04h-1.02l-.37-.87Zm-.31-.71l-.66-1.55-.66,1.55h1.33Zm3.12,1.62c-.27,0-.53-.03-.78-.09-.26-.07-.46-.15-.61-.24l.31-.65c.14,.09,.32,.16,.52,.22,.2,.05,.4,.08,.6,.08,.4,0,.59-.09,.59-.28,0-.09-.05-.15-.16-.19-.11-.04-.27-.07-.5-.1-.26-.04-.48-.08-.65-.13s-.32-.14-.45-.27c-.12-.13-.19-.31-.19-.54,0-.2,.06-.37,.17-.52,.12-.15,.29-.27,.51-.36,.23-.08,.49-.13,.8-.13,.23,0,.45,.03,.68,.08,.23,.05,.42,.11,.56,.2l-.31,.64c-.28-.15-.59-.23-.93-.23-.2,0-.35,.03-.45,.08-.1,.05-.15,.12-.15,.21,0,.1,.05,.16,.16,.2,.11,.04,.28,.08,.51,.11,.26,.04,.48,.09,.65,.14,.17,.05,.31,.13,.44,.26,.12,.13,.19,.3,.19,.53,0,.19-.06,.36-.18,.51s-.3,.27-.53,.35c-.23,.08-.5,.12-.81,.12Zm3.18,0c-.27,0-.53-.03-.78-.09-.26-.07-.46-.15-.61-.24l.31-.65c.14,.09,.32,.16,.52,.22,.2,.05,.4,.08,.6,.08,.4,0,.59-.09,.59-.28,0-.09-.05-.15-.16-.19-.11-.04-.27-.07-.5-.1-.26-.04-.48-.08-.65-.13-.17-.05-.32-.14-.45-.27-.12-.13-.19-.31-.19-.54,0-.2,.06-.37,.17-.52,.12-.15,.29-.27,.51-.36,.23-.08,.49-.13,.8-.13,.23,0,.45,.03,.68,.08,.23,.05,.42,.11,.56,.2l-.31,.64c-.28-.15-.59-.23-.93-.23-.2,0-.35,.03-.45,.08-.1,.05-.15,.12-.15,.21,0,.1,.05,.16,.16,.2,.11,.04,.28,.08,.51,.11,.26,.04,.48,.09,.65,.14,.17,.05,.31,.13,.44,.26,.12,.13,.19,.3,.19,.53,0,.19-.06,.36-.18,.51s-.3,.27-.53,.35c-.23,.08-.5,.12-.81,.12Zm2.1-3.15h.93v3.1h-.93v-3.1Zm.47-.43c-.17,0-.31-.05-.42-.14-.11-.1-.16-.22-.16-.36s.05-.26,.16-.36c.11-.1,.25-.14,.42-.14s.31,.05,.42,.14c.11,.09,.16,.21,.16,.35,0,.15-.05,.28-.16,.38-.11,.1-.25,.14-.42,.14Zm2.42,3.58c-.27,0-.53-.03-.78-.09-.26-.07-.46-.15-.61-.24l.31-.65c.14,.09,.32,.16,.52,.22,.2,.05,.4,.08,.6,.08,.4,0,.59-.09,.59-.28,0-.09-.05-.15-.16-.19-.11-.04-.27-.07-.5-.1-.26-.04-.48-.08-.65-.13-.17-.05-.32-.14-.45-.27-.12-.13-.19-.31-.19-.54,0-.2,.06-.37,.17-.52,.12-.15,.29-.27,.51-.36,.23-.08,.49-.13,.8-.13,.23,0,.45,.03,.68,.08,.23,.05,.42,.11,.56,.2l-.31,.64c-.28-.15-.59-.23-.93-.23-.2,0-.35,.03-.45,.08s-.15,.12-.15,.21c0,.1,.05,.16,.16,.2,.11,.04,.28,.08,.51,.11,.26,.04,.48,.09,.65,.14,.17,.05,.31,.13,.44,.26s.19,.3,.19,.53c0,.19-.06,.36-.18,.51-.12,.15-.3,.27-.53,.35-.23,.08-.5,.12-.81,.12Zm4.17-.2c-.09,.07-.21,.12-.34,.15-.13,.03-.27,.05-.42,.05-.38,0-.68-.09-.89-.28-.21-.19-.31-.47-.31-.83v-1.28h-.5v-.69h.5v-.76h.93v.76h.8v.69h-.8v1.26c0,.13,.03,.23,.1,.31,.07,.07,.17,.1,.3,.1,.15,0,.27-.04,.38-.12l.25,.63Zm1.82-3c.5,0,.88,.12,1.15,.35,.27,.23,.4,.57,.4,1.03v1.77h-.87v-.39c-.18,.29-.5,.43-.98,.43-.25,0-.46-.04-.65-.12-.18-.08-.32-.19-.41-.33-.1-.14-.14-.3-.14-.48,0-.29,.11-.52,.34-.68,.23-.17,.58-.25,1.05-.25h.74c0-.2-.06-.35-.19-.45-.12-.11-.31-.16-.56-.16-.17,0-.34,.03-.51,.08-.16,.05-.3,.12-.42,.21l-.34-.63c.18-.12,.39-.21,.63-.28,.25-.07,.5-.1,.76-.1Zm-.07,2.59c.16,0,.3-.03,.43-.1,.12-.07,.21-.18,.26-.32v-.32h-.64c-.38,0-.57,.12-.57,.36,0,.12,.05,.21,.14,.28,.1,.07,.23,.1,.39,.1Zm4.42-2.59c.4,0,.72,.12,.96,.35,.25,.23,.37,.57,.37,1.03v1.78h-.93v-1.64c0-.25-.06-.43-.17-.55-.11-.12-.27-.18-.48-.18-.24,0-.42,.07-.56,.21-.14,.14-.21,.35-.21,.62v1.53h-.93v-3.1h.89v.36c.12-.13,.28-.23,.46-.3,.18-.07,.39-.11,.6-.11Zm3.77,3.2c-.34,0-.65-.07-.93-.2-.27-.14-.48-.33-.64-.57-.15-.24-.23-.52-.23-.83s.08-.58,.23-.83c.16-.24,.37-.43,.64-.57,.28-.14,.58-.21,.93-.21s.63,.07,.89,.21c.26,.13,.44,.33,.56,.58l-.72,.38c-.17-.28-.41-.43-.72-.43-.24,0-.44,.08-.6,.23-.16,.15-.24,.36-.24,.63s.08,.48,.24,.63c.16,.15,.36,.23,.6,.23,.32,0,.56-.14,.72-.43l.72,.38c-.12,.25-.3,.44-.56,.58-.25,.14-.55,.21-.89,.21Zm5.09-1.59s0,.09-.02,.24h-2.44c.04,.19,.15,.34,.31,.46,.16,.11,.37,.17,.61,.17,.17,0,.32-.02,.44-.07,.13-.05,.25-.13,.37-.23l.5,.52c-.3,.33-.75,.5-1.33,.5-.36,0-.68-.07-.96-.2-.28-.14-.49-.33-.65-.57s-.23-.52-.23-.83,.07-.58,.22-.82c.15-.25,.36-.44,.62-.57,.26-.14,.56-.21,.88-.21s.6,.07,.86,.2c.26,.13,.45,.32,.6,.57,.15,.24,.22,.53,.22,.85Zm-1.67-.93c-.21,0-.39,.06-.53,.17-.14,.12-.23,.27-.26,.47h1.59c-.03-.2-.12-.35-.26-.47-.14-.12-.32-.18-.53-.18Z"/><path class="cls-30" d="M284.6,298.5h1.9c.45,0,.86,.08,1.2,.25,.35,.17,.62,.4,.81,.7,.2,.3,.29,.66,.29,1.06s-.1,.76-.29,1.06c-.19,.3-.46,.54-.81,.71-.35,.17-.75,.25-1.2,.25h-1.9v-4.04Zm1.86,3.27c.42,0,.75-.11,1-.33,.25-.23,.38-.53,.38-.92s-.13-.69-.38-.91c-.25-.23-.58-.34-1-.34h-.89v2.5h.89Zm4.32-2.38c.5,0,.88,.12,1.15,.35,.27,.23,.4,.57,.4,1.03v1.77h-.87v-.39c-.18,.29-.5,.43-.98,.43-.25,0-.46-.04-.65-.12-.18-.08-.32-.19-.41-.33-.1-.14-.14-.3-.14-.48,0-.29,.11-.52,.34-.68,.23-.17,.58-.25,1.05-.25h.74c0-.2-.06-.35-.19-.45-.12-.11-.31-.16-.56-.16-.17,0-.34,.03-.51,.08-.16,.05-.3,.12-.42,.21l-.34-.63c.18-.12,.39-.21,.63-.28,.25-.07,.5-.1,.76-.1Zm-.07,2.59c.16,0,.3-.03,.43-.1,.12-.07,.21-.18,.26-.32v-.32h-.64c-.38,0-.57,.12-.57,.36,0,.12,.05,.21,.14,.28,.1,.07,.23,.1,.39,.1Zm3.55,.61c-.27,0-.53-.03-.78-.09-.26-.07-.46-.15-.61-.24l.31-.65c.14,.09,.32,.16,.52,.22,.2,.05,.4,.08,.6,.08,.4,0,.59-.09,.59-.28,0-.09-.05-.15-.16-.19-.11-.04-.27-.07-.5-.1-.26-.04-.48-.08-.65-.13s-.32-.14-.45-.27c-.12-.13-.19-.31-.19-.54,0-.2,.06-.37,.17-.52,.12-.15,.29-.27,.51-.36,.23-.08,.49-.13,.8-.13,.23,0,.45,.03,.68,.08,.23,.05,.42,.11,.56,.2l-.31,.64c-.28-.15-.59-.23-.93-.23-.2,0-.35,.03-.45,.08-.1,.05-.15,.12-.15,.21,0,.1,.05,.16,.16,.2,.11,.04,.28,.08,.51,.11,.26,.04,.48,.09,.65,.14,.17,.05,.31,.13,.44,.26,.12,.13,.19,.3,.19,.53,0,.19-.06,.36-.18,.51s-.3,.27-.53,.35c-.23,.08-.5,.12-.81,.12Zm4.05-3.2c.4,0,.72,.12,.96,.35,.25,.23,.37,.57,.37,1.03v1.78h-.93v-1.64c0-.25-.06-.43-.17-.55-.11-.12-.27-.18-.48-.18-.24,0-.42,.07-.56,.21-.14,.14-.21,.35-.21,.62v1.53h-.93v-4.28h.93v1.5c.12-.12,.27-.21,.45-.27,.18-.07,.37-.1,.57-.1Zm4.09,0c.3,0,.57,.07,.81,.2,.25,.13,.44,.32,.58,.56,.14,.24,.21,.52,.21,.84s-.07,.6-.21,.84c-.14,.24-.33,.43-.58,.56-.24,.13-.51,.2-.81,.2-.44,0-.78-.13-1.01-.4v.36h-.89v-4.28h.93v1.51c.24-.25,.56-.38,.97-.38Zm-.16,2.46c.24,0,.43-.08,.59-.23,.16-.16,.23-.37,.23-.63s-.08-.47-.23-.62c-.15-.16-.35-.24-.59-.24s-.44,.08-.59,.24c-.15,.15-.23,.36-.23,.62s.08,.47,.23,.63c.16,.15,.35,.23,.59,.23Zm3.92,.74c-.34,0-.64-.07-.92-.2-.27-.14-.48-.33-.63-.57s-.23-.52-.23-.83,.08-.58,.23-.83,.36-.43,.63-.57c.27-.14,.58-.21,.92-.21s.64,.07,.91,.21c.27,.13,.48,.32,.63,.57s.23,.52,.23,.83-.08,.58-.23,.83-.36,.43-.63,.57c-.27,.13-.57,.2-.91,.2Zm0-.74c.24,0,.43-.08,.59-.23,.16-.16,.23-.37,.23-.63s-.08-.47-.23-.62c-.15-.16-.35-.24-.59-.24s-.44,.08-.59,.24c-.16,.15-.23,.36-.23,.62s.08,.47,.23,.63c.16,.15,.35,.23,.59,.23Zm3.64-2.46c.5,0,.88,.12,1.15,.35,.27,.23,.4,.57,.4,1.03v1.77h-.87v-.39c-.18,.29-.5,.43-.98,.43-.25,0-.46-.04-.65-.12-.18-.08-.32-.19-.41-.33-.1-.14-.14-.3-.14-.48,0-.29,.11-.52,.34-.68,.23-.17,.58-.25,1.05-.25h.74c0-.2-.06-.35-.19-.45-.12-.11-.31-.16-.56-.16-.17,0-.34,.03-.51,.08-.16,.05-.3,.12-.42,.21l-.34-.63c.18-.12,.39-.21,.63-.28,.25-.07,.5-.1,.76-.1Zm-.07,2.59c.16,0,.3-.03,.43-.1,.12-.07,.21-.18,.26-.32v-.32h-.64c-.38,0-.57,.12-.57,.36,0,.12,.05,.21,.14,.28,.1,.07,.23,.1,.39,.1Zm3.36-2.13c.11-.15,.26-.26,.45-.34,.19-.08,.41-.12,.66-.12v.83c-.1,0-.17-.01-.21-.01-.27,0-.48,.07-.63,.22-.15,.14-.23,.36-.23,.65v1.47h-.93v-3.1h.89v.41Zm4.91-1.59v4.28h-.89v-.36c-.23,.27-.57,.4-1.01,.4-.3,0-.58-.07-.83-.2-.24-.13-.43-.32-.57-.56-.14-.24-.21-.52-.21-.84s.07-.6,.21-.84c.14-.24,.33-.43,.57-.56,.25-.13,.52-.2,.83-.2,.41,0,.73,.13,.96,.38v-1.51h.93Zm-1.74,3.59c.24,0,.43-.08,.59-.23,.16-.16,.23-.37,.23-.63s-.08-.47-.23-.62c-.16-.16-.35-.24-.59-.24s-.44,.08-.59,.24c-.16,.15-.23,.36-.23,.62s.08,.47,.23,.63c.16,.15,.35,.23,.59,.23Z"/><path class="cls-17" d="M273.67,273.12h48.25c1.95,0,3.53,1.53,3.53,3.41v8.59c0,1.88-1.58,3.41-3.53,3.41h-48.25c-1.95,0-3.53-1.53-3.53-3.41v-8.59c0-1.88,1.58-3.41,3.53-3.41Z"/><path class="cls-30" d="M278.5,281.44v.42h-1.83v-2.28h1.79v.42h-1.24v.5h1.1v.41h-1.1v.53h1.29Zm1.5-1.36c.23,0,.41,.07,.54,.2,.14,.13,.21,.32,.21,.58v1h-.53v-.93c0-.14-.03-.24-.09-.31-.06-.07-.15-.1-.27-.1-.13,0-.24,.04-.32,.12-.08,.08-.12,.2-.12,.35v.87h-.53v-1.75h.5v.21c.07-.07,.16-.13,.26-.17,.1-.04,.22-.06,.34-.06Zm1.97,0c.28,0,.5,.07,.65,.2,.15,.13,.23,.32,.23,.58v1h-.49v-.22c-.1,.16-.28,.24-.55,.24-.14,0-.26-.02-.37-.07-.1-.05-.18-.11-.23-.19-.05-.08-.08-.17-.08-.27,0-.16,.06-.29,.19-.38,.13-.09,.33-.14,.59-.14h.42c0-.11-.03-.2-.1-.25-.07-.06-.17-.09-.31-.09-.1,0-.19,.02-.29,.05-.09,.03-.17,.07-.24,.12l-.19-.36c.1-.07,.22-.12,.35-.16,.14-.04,.28-.06,.43-.06Zm-.04,1.46c.09,0,.17-.02,.24-.06,.07-.04,.12-.1,.15-.18v-.18h-.36c-.22,0-.32,.07-.32,.21,0,.07,.03,.12,.08,.16,.05,.04,.13,.06,.22,.06Zm2.47-1.46c.17,0,.32,.04,.46,.11,.14,.07,.25,.18,.33,.32,.08,.13,.12,.29,.12,.47s-.04,.34-.12,.48c-.08,.13-.19,.24-.33,.32-.14,.07-.29,.11-.46,.11-.25,0-.44-.08-.57-.23v.2h-.5v-2.42h.53v.85c.13-.14,.32-.21,.55-.21Zm-.09,1.39c.14,0,.25-.04,.33-.13,.09-.09,.13-.21,.13-.36s-.04-.27-.13-.35c-.09-.09-.2-.13-.33-.13s-.25,.04-.33,.13c-.09,.09-.13,.2-.13,.35s.04,.27,.13,.36c.09,.09,.2,.13,.33,.13Zm1.35-2.03h.53v2.42h-.53v-2.42Zm2.8,1.55s0,.05-.01,.14h-1.38c.02,.11,.08,.19,.18,.26,.09,.06,.21,.09,.34,.09,.09,0,.18-.01,.25-.04,.07-.03,.14-.07,.21-.13l.28,.29c-.17,.19-.42,.28-.75,.28-.21,0-.39-.04-.54-.11-.16-.08-.28-.19-.37-.32-.09-.14-.13-.29-.13-.47s.04-.33,.13-.46c.09-.14,.2-.25,.35-.32,.15-.08,.31-.12,.5-.12s.34,.04,.48,.11c.14,.07,.26,.18,.34,.32,.08,.14,.13,.3,.13,.48Zm-.94-.52c-.12,0-.22,.03-.3,.1-.08,.07-.13,.15-.15,.27h.9c-.02-.11-.07-.2-.15-.26-.08-.07-.18-.1-.3-.1Zm2.25-1.02h.53v2.42h-.53v-2.42Zm1.88,2.44c-.19,0-.36-.04-.52-.11-.15-.08-.27-.19-.35-.32-.09-.14-.13-.29-.13-.47s.04-.33,.13-.47c.09-.14,.2-.24,.35-.32,.15-.08,.33-.12,.52-.12s.36,.04,.51,.12c.15,.08,.27,.18,.35,.32,.09,.14,.13,.29,.13,.47s-.04,.33-.13,.47c-.09,.14-.2,.24-.35,.32-.15,.08-.32,.11-.51,.11Zm0-.42c.14,0,.25-.04,.33-.13,.09-.09,.13-.21,.13-.36s-.04-.27-.13-.35c-.09-.09-.2-.13-.33-.13s-.25,.04-.33,.13c-.09,.09-.13,.2-.13,.35s.04,.27,.13,.36c.09,.09,.2,.13,.33,.13Zm2.23,.42c-.19,0-.37-.04-.52-.11-.15-.08-.27-.19-.36-.32-.09-.14-.13-.29-.13-.47s.04-.33,.13-.47c.09-.14,.21-.24,.36-.32,.16-.08,.33-.12,.52-.12s.36,.04,.5,.12c.14,.08,.25,.19,.31,.33l-.41,.21c-.09-.16-.23-.24-.41-.24-.14,0-.25,.04-.34,.13-.09,.09-.14,.21-.14,.36s.05,.27,.14,.36c.09,.09,.2,.13,.34,.13,.18,0,.32-.08,.41-.24l.41,.22c-.07,.14-.17,.25-.31,.33-.14,.08-.31,.12-.5,.12Zm1.85-1.81c.28,0,.5,.07,.65,.2,.15,.13,.23,.32,.23,.58v1h-.49v-.22c-.1,.16-.28,.24-.55,.24-.14,0-.26-.02-.37-.07-.1-.05-.18-.11-.23-.19-.05-.08-.08-.17-.08-.27,0-.16,.06-.29,.19-.38,.13-.09,.33-.14,.59-.14h.42c0-.11-.04-.2-.1-.25-.07-.06-.17-.09-.31-.09-.1,0-.19,.02-.29,.05-.09,.03-.17,.07-.24,.12l-.19-.36c.1-.07,.22-.12,.35-.16,.14-.04,.28-.06,.43-.06Zm-.04,1.46c.09,0,.17-.02,.24-.06,.07-.04,.12-.1,.15-.18v-.18h-.36c-.22,0-.32,.07-.32,.21,0,.07,.03,.12,.08,.16,.05,.04,.13,.06,.22,.06Zm2.57,.23c-.05,.04-.12,.07-.19,.08-.07,.02-.15,.03-.24,.03-.22,0-.38-.05-.5-.16-.12-.11-.18-.26-.18-.47v-.72h-.28v-.39h.28v-.43h.53v.43h.45v.39h-.45v.71c0,.07,.02,.13,.06,.17,.04,.04,.1,.06,.17,.06,.08,0,.15-.02,.21-.07l.14,.36Zm.3-1.67h.53v1.75h-.53v-1.75Zm.26-.24c-.1,0-.18-.03-.24-.08s-.09-.12-.09-.2,.03-.15,.09-.2c.06-.05,.14-.08,.24-.08s.18,.03,.24,.08c.06,.05,.09,.12,.09,.2,0,.08-.03,.16-.09,.21-.06,.05-.14,.08-.24,.08Zm1.62,2.02c-.19,0-.36-.04-.52-.11-.15-.08-.27-.19-.35-.32-.09-.14-.13-.29-.13-.47s.04-.33,.13-.47c.09-.14,.2-.24,.35-.32,.15-.08,.33-.12,.52-.12s.36,.04,.51,.12c.15,.08,.27,.18,.35,.32,.09,.14,.13,.29,.13,.47s-.04,.33-.13,.47c-.09,.14-.2,.24-.35,.32-.15,.08-.32,.11-.51,.11Zm0-.42c.14,0,.25-.04,.33-.13,.09-.09,.13-.21,.13-.36s-.04-.27-.13-.35c-.09-.09-.2-.13-.33-.13s-.25,.04-.33,.13c-.09,.09-.13,.2-.13,.35s.04,.27,.13,.36c.09,.09,.2,.13,.33,.13Zm2.46-1.39c.23,0,.41,.07,.54,.2,.14,.13,.21,.32,.21,.58v1h-.53v-.93c0-.14-.03-.24-.09-.31-.06-.07-.15-.1-.27-.1-.13,0-.24,.04-.32,.12-.08,.08-.12,.2-.12,.35v.87h-.53v-1.75h.5v.21c.07-.07,.16-.13,.26-.17,.1-.04,.22-.06,.34-.06Zm2.8,1.81c-.15,0-.3-.02-.44-.05-.14-.04-.26-.08-.34-.14l.18-.36c.08,.05,.18,.09,.29,.12,.11,.03,.23,.05,.34,.05,.22,0,.33-.05,.33-.16,0-.05-.03-.09-.09-.11s-.15-.04-.28-.06c-.15-.02-.27-.05-.37-.07-.1-.03-.18-.08-.25-.15-.07-.07-.1-.17-.1-.31,0-.11,.03-.21,.1-.29,.07-.09,.16-.15,.29-.2,.13-.05,.28-.07,.45-.07,.13,0,.26,.01,.38,.04,.13,.03,.23,.06,.32,.11l-.18,.36c-.16-.09-.33-.13-.52-.13-.11,0-.2,.02-.25,.05-.06,.03-.08,.07-.08,.12,0,.05,.03,.09,.09,.11s.16,.04,.29,.06c.15,.02,.27,.05,.37,.08,.09,.03,.18,.07,.25,.15,.07,.07,.1,.17,.1,.3,0,.11-.03,.21-.1,.29-.07,.08-.17,.15-.3,.2-.13,.05-.28,.07-.46,.07Zm2.97-.9s0,.05-.01,.14h-1.38c.02,.11,.08,.19,.18,.26,.09,.06,.21,.09,.34,.09,.09,0,.18-.01,.25-.04,.07-.03,.14-.07,.21-.13l.28,.29c-.17,.19-.42,.28-.75,.28-.2,0-.39-.04-.54-.11-.16-.08-.28-.19-.37-.32-.09-.14-.13-.29-.13-.47s.04-.33,.13-.46c.09-.14,.2-.25,.35-.32,.15-.08,.31-.12,.5-.12s.34,.04,.48,.11c.14,.07,.26,.18,.34,.32,.08,.14,.13,.3,.13,.48Zm-.94-.52c-.12,0-.22,.03-.3,.1-.08,.07-.13,.15-.15,.27h.9c-.02-.11-.07-.2-.15-.26-.08-.07-.18-.1-.3-.1Zm1.8-.13c.06-.08,.15-.15,.25-.19,.11-.04,.23-.07,.37-.07v.47c-.06,0-.1,0-.12,0-.15,0-.27,.04-.35,.12-.09,.08-.13,.2-.13,.36v.83h-.53v-1.75h.5v.23Zm2.81-.23l-.77,1.75h-.54l-.76-1.75h.54l.5,1.19,.52-1.19h.51Zm.22,0h.53v1.75h-.53v-1.75Zm.26-.24c-.1,0-.18-.03-.24-.08s-.09-.12-.09-.2,.03-.15,.09-.2c.06-.05,.14-.08,.24-.08s.18,.03,.24,.08c.06,.05,.09,.12,.09,.2,0,.08-.03,.16-.09,.21-.06,.05-.14,.08-.24,.08Zm1.63,2.02c-.19,0-.37-.04-.52-.11-.15-.08-.27-.19-.36-.32-.09-.14-.13-.29-.13-.47s.04-.33,.13-.47c.09-.14,.21-.24,.36-.32,.16-.08,.33-.12,.52-.12s.36,.04,.5,.12c.14,.08,.25,.19,.31,.33l-.41,.21c-.09-.16-.23-.24-.41-.24-.14,0-.25,.04-.34,.13-.09,.09-.14,.21-.14,.36s.05,.27,.14,.36c.09,.09,.2,.13,.34,.13,.18,0,.32-.08,.41-.24l.41,.22c-.07,.14-.17,.25-.31,.33-.14,.08-.31,.12-.5,.12Zm2.88-.9s0,.05-.01,.14h-1.38c.02,.11,.08,.19,.18,.26,.09,.06,.21,.09,.34,.09,.09,0,.18-.01,.25-.04,.07-.03,.14-.07,.21-.13l.28,.29c-.17,.19-.42,.28-.75,.28-.2,0-.39-.04-.54-.11-.16-.08-.28-.19-.37-.32-.09-.14-.13-.29-.13-.47s.04-.33,.13-.46c.09-.14,.2-.25,.35-.32,.15-.08,.31-.12,.5-.12s.34,.04,.48,.11c.14,.07,.26,.18,.34,.32,.08,.14,.13,.3,.13,.48Zm-.94-.52c-.12,0-.22,.03-.3,.1-.08,.07-.13,.15-.15,.27h.9c-.02-.11-.07-.2-.15-.26-.08-.07-.18-.1-.3-.1Zm1.91,1.42c-.15,0-.3-.02-.44-.05-.14-.04-.26-.08-.34-.14l.18-.36c.08,.05,.18,.09,.29,.12,.11,.03,.23,.05,.34,.05,.22,0,.33-.05,.33-.16,0-.05-.03-.09-.09-.11s-.15-.04-.28-.06c-.15-.02-.27-.05-.37-.07-.1-.03-.18-.08-.25-.15-.07-.07-.1-.17-.1-.31,0-.11,.03-.21,.1-.29,.07-.09,.16-.15,.29-.2,.13-.05,.28-.07,.45-.07,.13,0,.26,.01,.38,.04,.13,.03,.23,.06,.32,.11l-.18,.36c-.16-.09-.33-.13-.52-.13-.11,0-.2,.02-.25,.05-.06,.03-.08,.07-.08,.12,0,.05,.03,.09,.09,.11s.16,.04,.29,.06c.15,.02,.27,.05,.37,.08,.09,.03,.18,.07,.25,.15,.07,.07,.1,.17,.1,.3,0,.11-.03,.21-.1,.29-.07,.08-.17,.15-.3,.2-.13,.05-.28,.07-.46,.07Z"/><rect class="cls-17" x="218.2" y="141.31" width="107.26" height="124.41"/><path class="cls-30" d="M219.4,122.42v.99h1.79v.69h-1.79v1.36h-.9v-3.73h2.93v.69h-2.03Zm2.52,.17h.86v2.87h-.86v-2.87Zm.43-.4c-.16,0-.29-.04-.39-.13-.1-.09-.15-.2-.15-.33s.05-.24,.15-.33,.23-.13,.39-.13,.29,.04,.39,.13c.1,.09,.15,.19,.15,.32,0,.14-.05,.25-.15,.35-.1,.09-.23,.13-.39,.13Zm2.06,.78c.1-.14,.24-.24,.41-.31,.18-.07,.38-.11,.61-.11v.77c-.1,0-.16-.01-.19-.01-.25,0-.44,.07-.58,.2-.14,.13-.21,.33-.21,.6v1.35h-.86v-2.87h.82v.38Zm2.55,2.53c-.25,0-.49-.03-.72-.09-.24-.06-.42-.14-.56-.22l.29-.6c.13,.08,.29,.15,.48,.2,.19,.05,.37,.07,.55,.07,.37,0,.55-.09,.55-.26,0-.08-.05-.14-.15-.18-.1-.04-.25-.07-.46-.09-.24-.04-.44-.08-.6-.12-.16-.05-.3-.13-.41-.25-.11-.12-.17-.28-.17-.5,0-.18,.05-.34,.16-.48,.11-.14,.27-.25,.48-.33,.21-.08,.46-.12,.74-.12,.21,0,.42,.02,.63,.07,.21,.04,.38,.1,.52,.18l-.29,.59c-.26-.14-.55-.21-.86-.21-.18,0-.32,.02-.41,.07s-.14,.11-.14,.19c0,.09,.05,.15,.15,.19,.1,.04,.26,.07,.48,.1,.24,.04,.44,.08,.6,.13,.15,.04,.29,.12,.4,.24,.11,.12,.17,.28,.17,.49,0,.18-.06,.34-.17,.47s-.27,.25-.49,.33c-.21,.07-.46,.11-.75,.11Zm3.86-.18c-.08,.06-.19,.11-.32,.14-.12,.03-.25,.04-.39,.04-.35,0-.63-.09-.82-.26-.19-.17-.29-.43-.29-.77v-1.18h-.46v-.64h.46v-.7h.86v.7h.74v.64h-.74v1.17c0,.12,.03,.22,.09,.28,.07,.06,.16,.1,.28,.1,.14,0,.25-.04,.35-.11l.23,.59Zm.48-3.82h.86v3.96h-.86v-3.96Zm4.62,1.09l-1.34,3.04c-.14,.33-.31,.56-.51,.7-.2,.14-.44,.2-.72,.2-.15,0-.31-.02-.46-.07-.15-.05-.27-.11-.37-.19l.32-.59c.07,.06,.14,.1,.23,.13,.09,.03,.18,.05,.26,.05,.12,0,.21-.03,.29-.09,.07-.05,.14-.14,.2-.27v-.03l-1.28-2.89h.89l.84,1.95,.84-1.95h.83Zm1.92,0h.86v2.87h-.86v-2.87Zm.43-.4c-.16,0-.29-.04-.39-.13-.1-.09-.15-.2-.15-.33s.05-.24,.15-.33c.1-.09,.23-.13,.39-.13s.29,.04,.39,.13c.1,.09,.15,.19,.15,.32,0,.14-.05,.25-.15,.35-.1,.09-.23,.13-.39,.13Zm3.04,.36c.37,0,.67,.11,.89,.32,.23,.21,.34,.53,.34,.95v1.64h-.86v-1.51c0-.23-.05-.4-.15-.51-.1-.11-.25-.17-.45-.17-.22,0-.39,.07-.52,.2-.13,.13-.19,.32-.19,.58v1.42h-.86v-2.87h.82v.34c.11-.12,.26-.21,.43-.28,.17-.07,.36-.1,.56-.1Zm3.78,0c.28,0,.53,.06,.75,.19,.23,.12,.41,.29,.54,.52,.13,.22,.19,.48,.19,.77s-.06,.55-.19,.78c-.13,.22-.31,.39-.54,.52-.22,.12-.48,.18-.75,.18-.38,0-.68-.12-.9-.35v1.34h-.86v-3.9h.82v.33c.21-.25,.53-.37,.93-.37Zm-.15,2.27c.22,0,.4-.07,.54-.21,.14-.15,.22-.34,.22-.58s-.07-.43-.22-.58c-.14-.15-.32-.22-.54-.22s-.4,.07-.55,.22c-.14,.14-.21,.33-.21,.58s.07,.44,.21,.58c.14,.14,.33,.21,.55,.21Zm5.21-2.23v2.87h-.82v-.34c-.11,.12-.25,.22-.41,.29-.16,.06-.33,.1-.51,.1-.39,0-.7-.11-.93-.33-.23-.22-.34-.54-.34-.97v-1.62h.86v1.5c0,.46,.2,.69,.6,.69,.21,0,.37-.06,.5-.19,.13-.13,.19-.33,.19-.58v-1.42h.86Zm2.72,2.73c-.08,.06-.19,.11-.32,.14-.12,.03-.25,.04-.39,.04-.35,0-.63-.09-.82-.26-.19-.17-.29-.43-.29-.77v-1.18h-.46v-.64h.46v-.7h.86v.7h.74v.64h-.74v1.17c0,.12,.03,.22,.09,.28,.07,.06,.16,.1,.28,.1,.14,0,.25-.04,.35-.11l.23,.59Zm5.01-2.73l-1.34,3.04c-.14,.33-.31,.56-.51,.7-.2,.14-.44,.2-.72,.2-.15,0-.31-.02-.46-.07-.15-.05-.27-.11-.37-.19l.32-.59c.07,.06,.14,.1,.23,.13,.09,.03,.18,.05,.26,.05,.12,0,.21-.03,.29-.09,.07-.05,.14-.14,.2-.27v-.03l-1.28-2.89h.89l.84,1.95,.84-1.95h.83Zm1.69,2.91c-.31,0-.6-.06-.85-.19-.25-.13-.44-.3-.58-.53-.14-.22-.21-.48-.21-.76s.07-.54,.21-.76c.14-.22,.33-.4,.58-.52,.25-.13,.53-.19,.85-.19s.59,.06,.84,.19c.25,.12,.44,.3,.58,.52s.21,.48,.21,.76-.07,.54-.21,.76c-.14,.22-.33,.4-.58,.53-.25,.12-.53,.19-.84,.19Zm0-.68c.22,0,.4-.07,.54-.21,.14-.15,.22-.34,.22-.58s-.07-.43-.22-.58c-.14-.15-.32-.22-.54-.22s-.4,.07-.55,.22c-.14,.14-.22,.33-.22,.58s.07,.44,.22,.58c.14,.14,.33,.21,.55,.21Zm5.21-2.23v2.87h-.82v-.34c-.11,.12-.25,.22-.41,.29-.16,.06-.33,.1-.51,.1-.39,0-.7-.11-.93-.33-.23-.22-.34-.54-.34-.97v-1.62h.86v1.5c0,.46,.2,.69,.6,.69,.21,0,.37-.06,.5-.19,.13-.13,.19-.33,.19-.58v-1.42h.86Zm1.62,.38c.1-.14,.24-.24,.41-.31,.18-.07,.38-.11,.61-.11v.77c-.1,0-.16-.01-.19-.01-.25,0-.44,.07-.58,.2-.14,.13-.21,.33-.21,.6v1.35h-.86v-2.87h.82v.38Zm4.56,2.53c-.32,0-.6-.06-.86-.19-.25-.13-.45-.3-.59-.53-.14-.22-.21-.48-.21-.76s.07-.54,.21-.76c.14-.22,.34-.4,.59-.52,.25-.13,.54-.19,.86-.19s.59,.06,.82,.19c.24,.12,.41,.3,.51,.54l-.67,.35c-.15-.26-.38-.39-.67-.39-.22,0-.41,.07-.56,.21s-.22,.34-.22,.58,.07,.44,.22,.58c.15,.14,.33,.21,.56,.21,.3,0,.52-.13,.67-.39l.67,.35c-.11,.23-.28,.41-.51,.53-.23,.13-.51,.19-.82,.19Zm4.83-2.91v2.87h-.82v-.34c-.11,.12-.25,.22-.41,.29-.16,.06-.33,.1-.51,.1-.39,0-.7-.11-.93-.33-.23-.22-.34-.54-.34-.97v-1.62h.86v1.5c0,.46,.2,.69,.6,.69,.21,0,.37-.06,.5-.19,.13-.13,.19-.33,.19-.58v-1.42h.86Zm1.62,.38c.1-.14,.24-.24,.41-.31,.18-.07,.38-.11,.61-.11v.77c-.1,0-.16-.01-.19-.01-.25,0-.44,.07-.58,.2-.14,.13-.21,.33-.21,.6v1.35h-.86v-2.87h.82v.38Zm2.36,0c.1-.14,.24-.24,.41-.31,.18-.07,.38-.11,.61-.11v.77c-.1,0-.16-.01-.19-.01-.25,0-.44,.07-.58,.2-.14,.13-.21,.33-.21,.6v1.35h-.86v-2.87h.82v.38Zm4.42,1.07s0,.09-.02,.22h-2.25c.04,.18,.14,.32,.29,.42,.15,.1,.34,.15,.56,.15,.15,0,.29-.02,.41-.06,.12-.05,.23-.12,.34-.21l.46,.48c-.28,.31-.69,.46-1.23,.46-.34,0-.63-.06-.89-.19-.26-.13-.46-.3-.6-.53-.14-.22-.21-.48-.21-.76s.07-.53,.2-.76c.14-.23,.33-.4,.57-.53,.24-.13,.51-.19,.81-.19s.56,.06,.79,.18c.24,.12,.42,.3,.55,.52,.14,.22,.2,.49,.2,.78Zm-1.54-.86c-.2,0-.36,.05-.49,.16-.13,.11-.21,.25-.24,.44h1.47c-.03-.18-.11-.33-.24-.43-.13-.11-.3-.17-.49-.17Zm3.93-.63c.37,0,.67,.11,.89,.32,.23,.21,.34,.53,.34,.95v1.64h-.86v-1.51c0-.23-.05-.4-.15-.51-.1-.11-.25-.17-.45-.17-.22,0-.39,.07-.52,.2-.13,.13-.19,.32-.19,.58v1.42h-.86v-2.87h.82v.34c.11-.12,.26-.21,.43-.28,.17-.07,.36-.1,.56-.1Zm3.94,2.77c-.08,.06-.19,.11-.32,.14-.12,.03-.25,.04-.39,.04-.35,0-.63-.09-.82-.26-.19-.17-.29-.43-.29-.77v-1.18h-.46v-.64h.46v-.7h.86v.7h.74v.64h-.74v1.17c0,.12,.03,.22,.09,.28,.07,.06,.16,.1,.28,.1,.14,0,.25-.04,.35-.11l.23,.59Zm2.05-3.82h.86v3.96h-.86v-3.96Zm3.08,4c-.31,0-.6-.06-.85-.19-.25-.13-.44-.3-.58-.53-.14-.22-.21-.48-.21-.76s.07-.54,.21-.76,.33-.4,.58-.52c.25-.13,.53-.19,.85-.19s.59,.06,.84,.19c.25,.12,.44,.3,.58,.52s.21,.48,.21,.76-.07,.54-.21,.76c-.14,.22-.33,.4-.58,.53-.25,.12-.53,.19-.84,.19Zm0-.68c.22,0,.4-.07,.54-.21,.14-.15,.22-.34,.22-.58s-.07-.43-.22-.58c-.14-.15-.32-.22-.54-.22s-.4,.07-.55,.22c-.14,.14-.22,.33-.22,.58s.07,.44,.22,.58c.14,.14,.33,.21,.55,.21Zm3.65,.68c-.32,0-.6-.06-.86-.19-.25-.13-.45-.3-.59-.53-.14-.22-.21-.48-.21-.76s.07-.54,.21-.76c.14-.22,.34-.4,.59-.52,.25-.13,.54-.19,.86-.19s.59,.06,.82,.19c.24,.12,.41,.3,.51,.54l-.67,.35c-.15-.26-.38-.39-.67-.39-.22,0-.41,.07-.56,.21-.15,.14-.22,.34-.22,.58s.07,.44,.22,.58c.15,.14,.33,.21,.56,.21,.3,0,.52-.13,.67-.39l.67,.35c-.11,.23-.28,.41-.51,.53-.23,.13-.51,.19-.82,.19Zm3.03-2.95c.46,0,.82,.11,1.06,.32,.25,.21,.37,.53,.37,.95v1.64h-.81v-.36c-.16,.27-.46,.4-.91,.4-.23,0-.43-.04-.6-.11-.17-.07-.29-.18-.38-.31s-.13-.28-.13-.45c0-.27,.1-.48,.31-.63,.21-.15,.53-.23,.97-.23h.69c0-.18-.06-.32-.17-.42-.11-.1-.29-.15-.51-.15-.16,0-.32,.02-.47,.07-.15,.05-.28,.11-.39,.19l-.31-.58c.16-.11,.36-.2,.58-.26,.23-.06,.46-.09,.7-.09Zm-.07,2.39c.15,0,.28-.03,.39-.1,.11-.07,.2-.17,.24-.29v-.29h-.59c-.35,0-.53,.11-.53,.34,0,.11,.04,.19,.13,.26,.09,.06,.21,.09,.36,.09Zm4.2,.38c-.08,.06-.19,.11-.32,.14-.12,.03-.25,.04-.39,.04-.35,0-.63-.09-.82-.26-.19-.17-.29-.43-.29-.77v-1.18h-.46v-.64h.46v-.7h.86v.7h.74v.64h-.74v1.17c0,.12,.03,.22,.09,.28,.07,.06,.16,.1,.28,.1,.14,0,.25-.04,.35-.11l.23,.59Zm.48-2.73h.86v2.87h-.86v-2.87Zm.43-.4c-.16,0-.29-.04-.39-.13-.1-.09-.15-.2-.15-.33s.05-.24,.15-.33,.23-.13,.39-.13,.29,.04,.39,.13c.1,.09,.15,.19,.15,.32,0,.14-.05,.25-.15,.35-.1,.09-.23,.13-.39,.13Zm2.65,3.31c-.31,0-.6-.06-.85-.19-.25-.13-.44-.3-.58-.53-.14-.22-.21-.48-.21-.76s.07-.54,.21-.76,.33-.4,.58-.52c.25-.13,.53-.19,.85-.19s.59,.06,.84,.19c.25,.12,.44,.3,.58,.52s.21,.48,.21,.76-.07,.54-.21,.76c-.14,.22-.33,.4-.58,.53-.25,.12-.53,.19-.84,.19Zm0-.68c.22,0,.4-.07,.54-.21,.14-.15,.22-.34,.22-.58s-.07-.43-.22-.58c-.14-.15-.32-.22-.54-.22s-.4,.07-.55,.22c-.14,.14-.22,.33-.22,.58s.07,.44,.22,.58c.14,.14,.33,.21,.55,.21Zm4.02-2.27c.37,0,.67,.11,.89,.32,.23,.21,.34,.53,.34,.95v1.64h-.86v-1.51c0-.23-.05-.4-.15-.51-.1-.11-.25-.17-.45-.17-.22,0-.39,.07-.52,.2-.13,.13-.19,.32-.19,.58v1.42h-.86v-2.87h.82v.34c.11-.12,.26-.21,.43-.28,.17-.07,.36-.1,.56-.1Zm5,2.95c-.31,0-.6-.06-.85-.19-.25-.13-.44-.3-.58-.53-.14-.22-.21-.48-.21-.76s.07-.54,.21-.76c.14-.22,.33-.4,.58-.52,.25-.13,.53-.19,.85-.19s.59,.06,.84,.19c.25,.12,.44,.3,.58,.52s.21,.48,.21,.76-.07,.54-.21,.76c-.14,.22-.33,.4-.58,.53-.25,.12-.53,.19-.84,.19Zm0-.68c.22,0,.4-.07,.54-.21,.14-.15,.22-.34,.22-.58s-.07-.43-.22-.58c-.14-.15-.32-.22-.54-.22s-.4,.07-.55,.22c-.14,.14-.22,.33-.22,.58s.07,.44,.22,.58c.14,.14,.33,.21,.55,.21Zm3.03-1.85c.1-.14,.24-.24,.41-.31,.18-.07,.38-.11,.61-.11v.77c-.1,0-.16-.01-.19-.01-.25,0-.44,.07-.58,.2-.14,.13-.21,.33-.21,.6v1.35h-.86v-2.87h.82v.38Zm-100.7,7.58s0,.09-.02,.22h-2.25c.04,.18,.14,.32,.29,.42,.15,.1,.34,.15,.56,.15,.15,0,.29-.02,.41-.06,.12-.05,.23-.12,.34-.21l.46,.48c-.28,.31-.69,.46-1.23,.46-.34,0-.63-.06-.89-.19-.26-.13-.46-.3-.6-.53-.14-.22-.21-.48-.21-.76s.07-.53,.2-.76c.14-.23,.33-.4,.57-.53,.24-.13,.51-.19,.81-.19s.56,.06,.79,.18c.24,.12,.42,.3,.55,.52,.14,.22,.2,.49,.2,.78Zm-1.54-.86c-.2,0-.36,.05-.49,.16-.13,.11-.21,.25-.24,.44h1.47c-.03-.18-.11-.33-.24-.43-.13-.11-.3-.17-.49-.17Zm3.93-.63c.37,0,.67,.11,.89,.32,.23,.21,.34,.53,.34,.95v1.64h-.86v-1.51c0-.23-.05-.4-.15-.51-.1-.11-.25-.17-.45-.17-.22,0-.39,.07-.52,.2-.13,.13-.19,.32-.19,.58v1.42h-.86v-2.87h.82v.34c.11-.12,.26-.21,.43-.28,.17-.07,.36-.1,.56-.1Zm3.22,0c.46,0,.82,.11,1.06,.32,.25,.21,.37,.53,.37,.95v1.64h-.81v-.36c-.16,.27-.46,.4-.91,.4-.23,0-.43-.04-.6-.11-.17-.07-.29-.18-.38-.31s-.13-.28-.13-.45c0-.27,.1-.48,.31-.63,.21-.15,.53-.23,.97-.23h.69c0-.18-.06-.32-.17-.42-.11-.1-.29-.15-.51-.15-.16,0-.32,.02-.47,.07-.15,.05-.28,.11-.39,.19l-.31-.58c.16-.11,.36-.2,.58-.26,.23-.06,.46-.09,.7-.09Zm-.07,2.39c.15,0,.28-.03,.39-.1,.11-.07,.2-.17,.24-.29v-.29h-.59c-.35,0-.53,.11-.53,.34,0,.11,.04,.19,.13,.26,.09,.06,.21,.09,.36,.09Zm4.04-2.39c.28,0,.53,.06,.75,.19,.23,.12,.41,.29,.54,.52,.13,.22,.19,.48,.19,.77s-.06,.55-.19,.78c-.13,.22-.31,.39-.54,.52-.22,.12-.48,.18-.75,.18-.41,0-.72-.12-.93-.37v.33h-.82v-3.96h.86v1.39c.22-.23,.52-.35,.9-.35Zm-.15,2.27c.22,0,.4-.07,.54-.21,.14-.15,.22-.34,.22-.58s-.07-.43-.22-.58c-.14-.15-.32-.22-.54-.22s-.4,.07-.55,.22c-.14,.14-.21,.33-.21,.58s.07,.44,.21,.58c.14,.14,.33,.21,.55,.21Zm2.21-3.32h.86v3.96h-.86v-3.96Zm4.58,2.53s0,.09-.02,.22h-2.25c.04,.18,.14,.32,.29,.42,.15,.1,.34,.15,.56,.15,.15,0,.29-.02,.41-.06,.12-.05,.23-.12,.34-.21l.46,.48c-.28,.31-.69,.46-1.23,.46-.34,0-.63-.06-.89-.19-.26-.13-.46-.3-.6-.53-.14-.22-.21-.48-.21-.76s.07-.53,.2-.76c.14-.23,.33-.4,.57-.53,.24-.13,.51-.19,.81-.19s.56,.06,.79,.18c.24,.12,.42,.3,.55,.52,.14,.22,.2,.49,.2,.78Zm-1.54-.86c-.2,0-.36,.05-.49,.16-.13,.11-.21,.25-.24,.44h1.47c-.03-.18-.11-.33-.24-.43-.13-.11-.3-.17-.49-.17Zm6.64-.59l-1.34,3.04c-.14,.33-.31,.56-.51,.7-.2,.14-.44,.2-.72,.2-.15,0-.31-.02-.46-.07-.15-.05-.27-.11-.37-.19l.32-.59c.07,.06,.14,.1,.23,.13,.09,.03,.18,.05,.26,.05,.12,0,.21-.03,.29-.09,.07-.05,.14-.14,.2-.27v-.03l-1.28-2.89h.89l.84,1.95,.84-1.95h.83Zm1.69,2.91c-.31,0-.6-.06-.85-.19-.25-.13-.44-.3-.58-.53-.14-.22-.21-.48-.21-.76s.07-.54,.21-.76,.33-.4,.58-.52c.25-.13,.53-.19,.85-.19s.59,.06,.84,.19c.25,.12,.44,.3,.58,.52,.14,.22,.21,.48,.21,.76s-.07,.54-.21,.76c-.14,.22-.33,.4-.58,.53-.25,.12-.53,.19-.84,.19Zm0-.68c.22,0,.4-.07,.54-.21,.14-.15,.22-.34,.22-.58s-.07-.43-.22-.58c-.14-.15-.32-.22-.54-.22s-.4,.07-.55,.22c-.14,.14-.22,.33-.22,.58s.07,.44,.22,.58c.14,.14,.33,.21,.55,.21Zm5.21-2.23v2.87h-.82v-.34c-.11,.12-.25,.22-.41,.29-.16,.06-.33,.1-.51,.1-.39,0-.7-.11-.93-.33-.23-.22-.34-.54-.34-.97v-1.62h.86v1.5c0,.46,.2,.69,.6,.69,.21,0,.37-.06,.5-.19,.13-.13,.19-.33,.19-.58v-1.42h.86Zm1.62,.38c.1-.14,.24-.24,.41-.31,.18-.07,.38-.11,.61-.11v.77c-.1,0-.16-.01-.19-.01-.25,0-.44,.07-.58,.2-.14,.13-.21,.33-.21,.6v1.35h-.86v-2.87h.82v.38Zm4.88-.42c.28,0,.53,.06,.75,.19,.23,.12,.41,.29,.54,.52,.13,.22,.19,.48,.19,.77s-.06,.55-.19,.78c-.13,.22-.31,.39-.54,.52-.22,.12-.48,.18-.75,.18-.38,0-.68-.12-.9-.35v1.34h-.86v-3.9h.82v.33c.21-.25,.53-.37,.93-.37Zm-.15,2.27c.22,0,.4-.07,.54-.21,.14-.15,.22-.34,.22-.58s-.07-.43-.22-.58c-.14-.15-.32-.22-.54-.22s-.4,.07-.55,.22c-.14,.14-.21,.33-.21,.58s.07,.44,.21,.58c.14,.14,.33,.21,.55,.21Zm4.02-2.27c.37,0,.67,.11,.89,.32,.23,.21,.34,.53,.34,.95v1.64h-.86v-1.51c0-.23-.05-.4-.15-.51-.1-.11-.25-.17-.45-.17-.22,0-.39,.07-.52,.2-.13,.13-.19,.32-.19,.58v1.42h-.86v-3.96h.86v1.39c.11-.11,.25-.19,.41-.25,.16-.06,.34-.09,.53-.09Zm3.46,2.95c-.31,0-.6-.06-.85-.19-.25-.13-.44-.3-.58-.53-.14-.22-.21-.48-.21-.76s.07-.54,.21-.76c.14-.22,.33-.4,.58-.52,.25-.13,.53-.19,.85-.19s.59,.06,.84,.19c.25,.12,.44,.3,.58,.52,.14,.22,.21,.48,.21,.76s-.07,.54-.21,.76c-.14,.22-.33,.4-.58,.53-.25,.12-.53,.19-.84,.19Zm0-.68c.22,0,.4-.07,.54-.21,.14-.15,.22-.34,.22-.58s-.07-.43-.22-.58c-.14-.15-.32-.22-.54-.22s-.4,.07-.55,.22c-.14,.14-.22,.33-.22,.58s.07,.44,.22,.58c.14,.14,.33,.21,.55,.21Zm4.02-2.27c.37,0,.67,.11,.89,.32,.23,.21,.34,.53,.34,.95v1.64h-.86v-1.51c0-.23-.05-.4-.15-.51-.1-.11-.25-.17-.45-.17-.22,0-.39,.07-.52,.2-.13,.13-.19,.32-.19,.58v1.42h-.86v-2.87h.82v.34c.11-.12,.26-.21,.43-.28,.17-.07,.36-.1,.56-.1Zm4.96,1.49s0,.09-.02,.22h-2.25c.04,.18,.14,.32,.29,.42,.15,.1,.34,.15,.56,.15,.15,0,.29-.02,.41-.06,.12-.05,.23-.12,.34-.21l.46,.48c-.28,.31-.69,.46-1.23,.46-.34,0-.63-.06-.89-.19-.26-.13-.46-.3-.6-.53-.14-.22-.21-.48-.21-.76s.07-.53,.2-.76c.14-.23,.33-.4,.57-.53,.24-.13,.51-.19,.81-.19s.56,.06,.79,.18c.24,.12,.42,.3,.55,.52,.14,.22,.2,.49,.2,.78Zm-1.54-.86c-.2,0-.36,.05-.49,.16-.13,.11-.21,.25-.24,.44h1.47c-.03-.18-.11-.33-.24-.43-.13-.11-.3-.17-.49-.17Zm2.46-1.72c.15,0,.28,.05,.38,.14,.1,.09,.15,.22,.15,.37,0,.07,0,.14-.03,.21s-.06,.18-.12,.32l-.32,.77h-.55l.24-.84c-.09-.04-.16-.1-.22-.18-.05-.08-.08-.17-.08-.28,0-.15,.05-.28,.15-.37,.1-.1,.23-.14,.39-.14Zm2.02,4.04c-.25,0-.49-.03-.72-.09-.24-.06-.42-.14-.56-.22l.29-.6c.13,.08,.29,.15,.48,.2,.19,.05,.37,.07,.55,.07,.37,0,.55-.09,.55-.26,0-.08-.05-.14-.15-.18-.1-.04-.25-.07-.46-.09-.24-.04-.44-.08-.6-.12-.16-.05-.3-.13-.41-.25-.11-.12-.17-.28-.17-.5,0-.18,.05-.34,.16-.48,.11-.14,.27-.25,.48-.33,.21-.08,.46-.12,.74-.12,.21,0,.42,.02,.63,.07,.21,.04,.38,.1,.52,.18l-.29,.59c-.26-.14-.55-.21-.86-.21-.18,0-.32,.02-.41,.07s-.14,.11-.14,.19c0,.09,.05,.15,.15,.19,.1,.04,.26,.07,.48,.1,.24,.04,.44,.08,.6,.13,.15,.04,.29,.12,.4,.24,.11,.12,.17,.28,.17,.49,0,.18-.06,.34-.17,.47s-.27,.25-.49,.33c-.21,.07-.46,.11-.75,.11Zm3.5-4h.86v3.96h-.86v-3.96Zm3.08,4c-.31,0-.6-.06-.85-.19-.25-.13-.44-.3-.58-.53-.14-.22-.21-.48-.21-.76s.07-.54,.21-.76,.33-.4,.58-.52c.25-.13,.53-.19,.85-.19s.59,.06,.84,.19c.25,.12,.44,.3,.58,.52,.14,.22,.21,.48,.21,.76s-.07,.54-.21,.76c-.14,.22-.33,.4-.58,.53-.25,.12-.53,.19-.84,.19Zm0-.68c.22,0,.4-.07,.54-.21,.14-.15,.22-.34,.22-.58s-.07-.43-.22-.58c-.14-.15-.32-.22-.54-.22s-.4,.07-.55,.22c-.14,.14-.22,.33-.22,.58s.07,.44,.22,.58c.14,.14,.33,.21,.55,.21Zm3.65,.68c-.32,0-.6-.06-.86-.19-.25-.13-.45-.3-.59-.53-.14-.22-.21-.48-.21-.76s.07-.54,.21-.76c.14-.22,.34-.4,.59-.52,.25-.13,.54-.19,.86-.19s.59,.06,.82,.19c.24,.12,.41,.3,.51,.54l-.67,.35c-.15-.26-.38-.39-.67-.39-.22,0-.41,.07-.56,.21s-.22,.34-.22,.58,.07,.44,.22,.58c.15,.14,.33,.21,.56,.21,.3,0,.52-.13,.67-.39l.67,.35c-.11,.23-.28,.41-.51,.53-.23,.13-.51,.19-.82,.19Zm3.03-2.95c.46,0,.82,.11,1.06,.32,.25,.21,.37,.53,.37,.95v1.64h-.81v-.36c-.16,.27-.46,.4-.91,.4-.23,0-.43-.04-.6-.11-.17-.07-.29-.18-.38-.31-.09-.13-.13-.28-.13-.45,0-.27,.1-.48,.31-.63,.21-.15,.53-.23,.97-.23h.69c0-.18-.06-.32-.17-.42-.11-.1-.29-.15-.51-.15-.16,0-.32,.02-.47,.07-.15,.05-.28,.11-.39,.19l-.31-.58c.16-.11,.36-.2,.58-.26,.23-.06,.46-.09,.7-.09Zm-.07,2.39c.15,0,.28-.03,.39-.1,.11-.07,.2-.17,.24-.29v-.29h-.59c-.35,0-.53,.11-.53,.34,0,.11,.04,.19,.13,.26,.09,.06,.21,.09,.36,.09Zm4.2,.38c-.08,.06-.19,.11-.32,.14-.12,.03-.25,.04-.39,.04-.35,0-.63-.09-.82-.26-.19-.17-.29-.43-.29-.77v-1.18h-.46v-.64h.46v-.7h.86v.7h.74v.64h-.74v1.17c0,.12,.03,.22,.09,.28,.07,.06,.16,.1,.28,.1,.14,0,.25-.04,.35-.11l.23,.59Zm.48-2.73h.86v2.87h-.86v-2.87Zm.43-.4c-.16,0-.29-.04-.39-.13-.1-.09-.15-.2-.15-.33s.05-.24,.15-.33,.23-.13,.39-.13,.29,.04,.39,.13c.1,.09,.15,.19,.15,.32,0,.14-.05,.25-.15,.35-.1,.09-.23,.13-.39,.13Zm2.65,3.31c-.31,0-.6-.06-.85-.19-.25-.13-.44-.3-.58-.53-.14-.22-.21-.48-.21-.76s.07-.54,.21-.76c.14-.22,.33-.4,.58-.52,.25-.13,.53-.19,.85-.19s.59,.06,.84,.19c.25,.12,.44,.3,.58,.52s.21,.48,.21,.76-.07,.54-.21,.76c-.14,.22-.33,.4-.58,.53-.25,.12-.53,.19-.84,.19Zm0-.68c.22,0,.4-.07,.54-.21,.14-.15,.22-.34,.22-.58s-.07-.43-.22-.58c-.14-.15-.32-.22-.54-.22s-.4,.07-.55,.22c-.14,.14-.22,.33-.22,.58s.07,.44,.22,.58c.14,.14,.33,.21,.55,.21Zm4.02-2.27c.37,0,.67,.11,.89,.32,.23,.21,.34,.53,.34,.95v1.64h-.86v-1.51c0-.23-.05-.4-.15-.51-.1-.11-.25-.17-.45-.17-.22,0-.39,.07-.52,.2-.13,.13-.19,.32-.19,.58v1.42h-.86v-2.87h.82v.34c.11-.12,.26-.21,.43-.28,.17-.07,.36-.1,.56-.1Zm4.58,2.95c-.25,0-.49-.03-.72-.09-.24-.06-.42-.14-.56-.22l.29-.6c.13,.08,.29,.15,.48,.2,.19,.05,.37,.07,.55,.07,.37,0,.55-.09,.55-.26,0-.08-.05-.14-.15-.18-.1-.04-.25-.07-.46-.09-.24-.04-.44-.08-.6-.12-.16-.05-.3-.13-.41-.25-.11-.12-.17-.28-.17-.5,0-.18,.05-.34,.16-.48,.11-.14,.27-.25,.48-.33,.21-.08,.46-.12,.74-.12,.21,0,.42,.02,.63,.07,.21,.04,.38,.1,.52,.18l-.29,.59c-.26-.14-.55-.21-.86-.21-.18,0-.32,.02-.41,.07-.09,.05-.14,.11-.14,.19,0,.09,.05,.15,.15,.19,.1,.04,.26,.07,.48,.1,.24,.04,.44,.08,.6,.13,.15,.04,.29,.12,.4,.24s.17,.28,.17,.49c0,.18-.06,.34-.17,.47-.11,.14-.27,.25-.49,.33-.21,.07-.46,.11-.75,.11Zm4.85-1.47s0,.09-.02,.22h-2.25c.04,.18,.14,.32,.29,.42,.15,.1,.34,.15,.56,.15,.15,0,.29-.02,.41-.06,.12-.05,.23-.12,.34-.21l.46,.48c-.28,.31-.69,.46-1.23,.46-.34,0-.63-.06-.89-.19-.26-.13-.46-.3-.6-.53-.14-.22-.21-.48-.21-.76s.07-.53,.2-.76c.14-.23,.33-.4,.57-.53,.24-.13,.51-.19,.81-.19s.56,.06,.79,.18c.24,.12,.42,.3,.55,.52,.14,.22,.2,.49,.2,.78Zm-1.54-.86c-.2,0-.36,.05-.49,.16-.13,.11-.21,.25-.24,.44h1.47c-.03-.18-.11-.33-.24-.43-.13-.11-.3-.17-.49-.17Zm2.94-.21c.1-.14,.24-.24,.41-.31,.18-.07,.38-.11,.61-.11v.77c-.1,0-.16-.01-.19-.01-.25,0-.44,.07-.58,.2-.14,.13-.21,.33-.21,.6v1.35h-.86v-2.87h.82v.38Zm4.59-.38l-1.26,2.87h-.89l-1.25-2.87h.89l.82,1.95,.85-1.95h.83Zm.35,0h.86v2.87h-.86v-2.87Zm.43-.4c-.16,0-.29-.04-.39-.13-.1-.09-.15-.2-.15-.33s.05-.24,.15-.33,.23-.13,.39-.13,.29,.04,.39,.13c.1,.09,.15,.19,.15,.32,0,.14-.05,.25-.15,.35-.1,.09-.23,.13-.39,.13Zm2.67,3.31c-.32,0-.6-.06-.86-.19-.25-.13-.45-.3-.59-.53-.14-.22-.21-.48-.21-.76s.07-.54,.21-.76c.14-.22,.34-.4,.59-.52,.25-.13,.54-.19,.86-.19s.59,.06,.82,.19c.24,.12,.41,.3,.51,.54l-.67,.35c-.15-.26-.38-.39-.67-.39-.22,0-.41,.07-.56,.21-.15,.14-.22,.34-.22,.58s.07,.44,.22,.58c.15,.14,.33,.21,.56,.21,.3,0,.52-.13,.67-.39l.67,.35c-.11,.23-.28,.41-.51,.53-.23,.13-.51,.19-.82,.19Zm4.71-1.47s0,.09-.02,.22h-2.25c.04,.18,.14,.32,.29,.42,.15,.1,.34,.15,.56,.15,.15,0,.29-.02,.41-.06,.12-.05,.23-.12,.34-.21l.46,.48c-.28,.31-.69,.46-1.23,.46-.34,0-.63-.06-.89-.19-.26-.13-.46-.3-.6-.53-.14-.22-.21-.48-.21-.76s.07-.53,.2-.76c.14-.23,.33-.4,.57-.53,.24-.13,.51-.19,.81-.19s.56,.06,.79,.18c.24,.12,.42,.3,.55,.52,.14,.22,.2,.49,.2,.78Zm-1.54-.86c-.2,0-.36,.05-.49,.16-.13,.11-.21,.25-.24,.44h1.47c-.03-.18-.11-.33-.24-.43-.13-.11-.3-.17-.49-.17Z"/><path class="cls-4" d="M245.71,217.88c0-1.47,1.24-2.67,2.77-2.67h46.71c1.53,0,2.77,1.19,2.77,2.67v25.77c0,1.47-1.24,2.67-2.77,2.67h-46.71c-1.53,0-2.77-1.19-2.77-2.67v-25.77Z"/><path class="cls-18" d="M254.93,232.39c0-.82,.69-1.48,1.54-1.48h30.73c.85,0,1.54,.66,1.54,1.48v8.29c0,.82-.69,1.48-1.54,1.48h-30.73c-.85,0-1.54-.66-1.54-1.48v-8.29Z"/><path class="cls-15" d="M254.93,232.39c0-.82,.69-1.48,1.54-1.48h30.73c.85,0,1.54,.66,1.54,1.48v8.29c0,.82-.69,1.48-1.54,1.48h-30.73c-.85,0-1.54-.66-1.54-1.48v-8.29Z"/><g class="cls-38"><path class="cls-25" d="M270.73,196.01c-5.89,1.27,2.28,11.14,2.28,11.14,6.05-1,10.58-2.89,9.82-5.67-.76-2.78-6.21-6.74-12.1-5.47Z"/></g><path class="cls-41" d="M266.91,191.96c-3.38,5.63,5.29,15.63,5.29,15.63,4.24-5.59,6.99-11.48,5.38-15.12-1.61-3.64-7.29-6.14-10.67-.51Z"/><ellipse class="cls-2" cx="271.8" cy="194.17" rx="2.41" ry="1.96"/><path class="cls-30" d="M260.29,224.78h-1.8l-.34,.8h-.92l1.73-3.73h.89l1.73,3.73h-.94l-.34-.8Zm-.28-.66l-.61-1.43-.61,1.43h1.23Zm5.52-2.28v3.73h-.74l-1.93-2.27v2.27h-.89v-3.73h.74l1.93,2.27v-2.27h.89Zm4.05,3.03v.7h-3.39v-.56l2.12-2.47h-2.08v-.7h3.26v.56l-2.12,2.47h2.2Zm4.98-1.24c.22,.07,.39,.18,.52,.34,.13,.16,.19,.35,.19,.58,0,.33-.13,.58-.4,.76-.26,.17-.65,.26-1.15,.26h-2v-3.73h1.89c.47,0,.83,.09,1.08,.26,.25,.17,.38,.41,.38,.71,0,.18-.05,.34-.14,.49-.09,.14-.21,.25-.38,.34Zm-1.95-1.14v.88h.89c.22,0,.39-.04,.5-.11,.11-.07,.17-.18,.17-.33s-.06-.25-.17-.33c-.11-.07-.28-.11-.5-.11h-.89Zm1.05,2.43c.24,0,.41-.04,.53-.11,.12-.07,.18-.19,.18-.35,0-.31-.24-.46-.71-.46h-1.05v.92h1.05Zm3.43-2.26c.46,0,.82,.11,1.06,.32,.25,.21,.37,.53,.37,.95v1.64h-.81v-.36c-.16,.27-.46,.4-.91,.4-.23,0-.43-.04-.6-.11-.17-.07-.29-.18-.38-.31-.09-.13-.13-.28-.13-.45,0-.27,.1-.48,.31-.63,.21-.15,.53-.23,.97-.23h.69c0-.18-.06-.32-.17-.42-.11-.1-.29-.15-.51-.15-.16,0-.32,.02-.47,.07-.15,.05-.28,.11-.39,.19l-.31-.58c.16-.11,.36-.2,.58-.26,.23-.06,.46-.09,.7-.09Zm-.07,2.39c.15,0,.28-.03,.39-.1,.11-.07,.2-.17,.24-.29v-.29h-.59c-.35,0-.53,.11-.53,.34,0,.11,.04,.19,.13,.26,.09,.06,.21,.09,.36,.09Zm4.09-2.39c.37,0,.67,.11,.89,.32,.23,.21,.34,.53,.34,.95v1.64h-.86v-1.51c0-.23-.05-.4-.15-.51-.1-.11-.25-.17-.45-.17-.22,0-.39,.07-.52,.2-.13,.13-.19,.32-.19,.58v1.42h-.86v-2.87h.82v.34c.11-.12,.26-.21,.43-.28,.17-.07,.36-.1,.56-.1Zm3.29,1.79l-.41,.39v.73h-.86v-3.96h.86v2.24l1.26-1.15h1.03l-1.24,1.22,1.35,1.65h-1.05l-.94-1.12Z"/><path class="cls-2" d="M258.95,234.82h.7v2.9h-.7v-2.9Zm3.99,.64c.29,0,.52,.08,.69,.25,.18,.17,.27,.41,.27,.74v1.28h-.67v-1.18c0-.18-.04-.31-.12-.39-.08-.09-.2-.13-.35-.13-.17,0-.3,.05-.4,.15-.1,.1-.15,.25-.15,.45v1.1h-.67v-2.23h.64v.26c.09-.09,.2-.17,.33-.22,.13-.05,.28-.08,.43-.08Zm3.86,1.16s0,.07-.01,.17h-1.75c.03,.14,.11,.25,.22,.33,.12,.08,.26,.12,.44,.12,.12,0,.23-.02,.32-.05,.09-.04,.18-.09,.26-.17l.36,.37c-.22,.24-.54,.36-.96,.36-.26,0-.49-.05-.69-.15-.2-.1-.36-.24-.46-.41-.11-.17-.16-.37-.16-.59s.05-.41,.16-.59c.11-.18,.26-.31,.44-.41,.19-.1,.4-.15,.63-.15s.43,.05,.62,.14c.18,.09,.33,.23,.43,.41,.11,.17,.16,.38,.16,.61Zm-1.2-.67c-.15,0-.28,.04-.38,.12-.1,.08-.17,.2-.19,.34h1.14c-.02-.14-.09-.25-.19-.34-.1-.09-.23-.13-.38-.13Zm3.91,.67s0,.07-.01,.17h-1.75c.03,.14,.11,.25,.22,.33,.12,.08,.26,.12,.44,.12,.12,0,.23-.02,.32-.05,.09-.04,.18-.09,.26-.17l.36,.37c-.22,.24-.54,.36-.96,.36-.26,0-.49-.05-.69-.15-.2-.1-.36-.24-.46-.41-.11-.17-.16-.37-.16-.59s.05-.41,.16-.59c.11-.18,.26-.31,.44-.41,.19-.1,.4-.15,.63-.15s.43,.05,.62,.14c.18,.09,.33,.23,.43,.41,.11,.17,.16,.38,.16,.61Zm-1.2-.67c-.15,0-.28,.04-.38,.12-.1,.08-.17,.2-.19,.34h1.14c-.02-.14-.09-.25-.19-.34-.1-.09-.23-.13-.38-.13Zm4.01-1.3v3.08h-.64v-.26c-.17,.19-.41,.29-.72,.29-.22,0-.42-.05-.59-.14-.17-.09-.31-.23-.41-.4-.1-.17-.15-.38-.15-.61s.05-.43,.15-.61c.1-.17,.24-.31,.41-.4,.18-.09,.38-.14,.59-.14,.3,0,.53,.09,.69,.27v-1.08h.67Zm-1.25,2.58c.17,0,.31-.06,.42-.17,.11-.11,.17-.26,.17-.45s-.06-.34-.17-.45c-.11-.11-.25-.17-.42-.17s-.31,.06-.43,.17c-.11,.11-.17,.26-.17,.45s.06,.34,.17,.45c.11,.11,.25,.17,.43,.17Zm4.49-1.77c.29,0,.52,.08,.69,.25,.18,.17,.27,.41,.27,.74v1.28h-.67v-1.18c0-.18-.04-.31-.12-.39-.08-.09-.2-.13-.35-.13-.17,0-.3,.05-.4,.15-.1,.1-.15,.25-.15,.45v1.1h-.67v-3.08h.67v1.08c.09-.09,.2-.15,.32-.19,.13-.05,.26-.07,.41-.07Zm3.86,1.16s0,.07-.01,.17h-1.75c.03,.14,.11,.25,.22,.33,.12,.08,.26,.12,.44,.12,.12,0,.23-.02,.32-.05,.09-.04,.18-.09,.26-.17l.36,.37c-.22,.24-.54,.36-.96,.36-.26,0-.49-.05-.69-.15-.2-.1-.36-.24-.46-.41-.11-.17-.16-.37-.16-.59s.05-.41,.16-.59c.11-.18,.26-.31,.44-.41,.19-.1,.4-.15,.63-.15s.43,.05,.62,.14c.18,.09,.33,.23,.43,.41,.11,.17,.16,.38,.16,.61Zm-1.2-.67c-.15,0-.28,.04-.38,.12-.1,.08-.17,.2-.19,.34h1.14c-.02-.14-.09-.25-.19-.34-.1-.09-.23-.13-.38-.13Zm1.65-1.3h.67v3.08h-.67v-3.08Zm2.66,.81c.22,0,.41,.05,.59,.15,.18,.09,.32,.23,.42,.4,.1,.17,.15,.37,.15,.6s-.05,.43-.15,.61c-.1,.17-.24,.31-.42,.4-.17,.09-.37,.14-.59,.14-.3,0-.53-.09-.7-.27v1.04h-.67v-3.04h.64v.26c.17-.19,.41-.29,.73-.29Zm-.12,1.77c.17,0,.31-.06,.42-.17,.11-.11,.17-.26,.17-.45s-.06-.34-.17-.45c-.11-.11-.25-.17-.42-.17s-.31,.06-.43,.17c-.11,.11-.16,.26-.16,.45s.05,.34,.16,.45c.11,.11,.25,.17,.43,.17Zm1.63-2.41h.8l-.13,1.9h-.53l-.13-1.9Zm.4,2.94c-.12,0-.22-.04-.3-.11-.08-.07-.12-.16-.12-.27s.04-.19,.12-.26c.08-.07,.18-.11,.3-.11s.22,.04,.3,.11c.08,.07,.12,.16,.12,.26s-.04,.19-.12,.27c-.08,.07-.17,.11-.29,.11Z"/><path class="cls-42" d="M217.29,71.44h111.2c2.98,0,5.39,2.28,5.39,5.08v22.13c0,4.44-3.81,8.03-8.52,8.03h-104.93c-4.69,0-8.53-3.62-8.53-8.05v-22.12c0-2.81,2.41-5.08,5.39-5.08Z"/><path class="cls-2" d="M245.11,97.17h-2.94l-.52,1.3h-2.66l3.39-7.46h2.57l3.39,7.46h-2.7l-.52-1.3Zm-.72-1.81l-.75-1.88-.75,1.88h1.5Zm6.59,3.22c-.52,0-1.03-.05-1.53-.16-.5-.11-.91-.25-1.22-.42l.69-1.59c.28,.16,.61,.29,1,.38,.38,.09,.76,.14,1.12,.14,.29,0,.49-.02,.6-.06,.12-.05,.18-.12,.18-.21s-.07-.16-.22-.19c-.14-.04-.37-.07-.7-.11-.49-.06-.91-.13-1.26-.21-.35-.09-.65-.27-.92-.52-.26-.26-.39-.62-.39-1.1,0-.38,.12-.71,.35-1.01,.24-.3,.59-.54,1.05-.71,.47-.18,1.04-.27,1.69-.27,.46,0,.9,.04,1.34,.13,.44,.08,.82,.2,1.13,.35l-.69,1.59c-.53-.28-1.11-.43-1.75-.43-.55,0-.82,.09-.82,.28,0,.09,.07,.16,.22,.2,.15,.04,.38,.07,.7,.11,.49,.06,.91,.13,1.25,.22,.35,.09,.65,.27,.91,.52,.27,.26,.4,.62,.4,1.1,0,.36-.12,.69-.35,.99-.24,.3-.59,.54-1.06,.71-.47,.18-1.04,.27-1.71,.27Zm6.26,0c-.52,0-1.03-.05-1.53-.16s-.91-.25-1.22-.42l.69-1.59c.28,.16,.61,.29,1,.38,.38,.09,.76,.14,1.12,.14,.29,0,.49-.02,.6-.06,.12-.05,.18-.12,.18-.21s-.07-.16-.22-.19c-.14-.04-.37-.07-.7-.11-.49-.06-.91-.13-1.26-.21-.35-.09-.65-.27-.92-.52-.26-.26-.39-.62-.39-1.1,0-.38,.12-.71,.35-1.01,.24-.3,.59-.54,1.05-.71,.47-.18,1.04-.27,1.69-.27,.46,0,.9,.04,1.34,.13,.44,.08,.82,.2,1.13,.35l-.69,1.59c-.53-.28-1.11-.43-1.75-.43-.55,0-.82,.09-.82,.28,0,.09,.07,.16,.22,.2,.15,.04,.38,.07,.7,.11,.49,.06,.91,.13,1.25,.22,.35,.09,.65,.27,.91,.52,.27,.26,.4,.62,.4,1.1,0,.36-.12,.69-.35,.99-.24,.3-.59,.54-1.06,.71-.47,.18-1.04,.27-1.71,.27Zm3.89-5.94h2.5v5.83h-2.5v-5.83Zm1.25-.47c-.45,0-.82-.11-1.1-.34-.27-.23-.41-.53-.41-.89s.14-.65,.41-.87c.28-.23,.65-.35,1.1-.35s.82,.11,1.1,.33c.27,.22,.41,.5,.41,.85,0,.37-.14,.68-.41,.92-.27,.23-.64,.35-1.1,.35Zm4.73,6.41c-.52,0-1.03-.05-1.53-.16-.5-.11-.91-.25-1.22-.42l.69-1.59c.28,.16,.61,.29,1,.38,.38,.09,.76,.14,1.12,.14,.29,0,.49-.02,.6-.06,.12-.05,.18-.12,.18-.21s-.07-.16-.22-.19c-.14-.04-.37-.07-.7-.11-.49-.06-.91-.13-1.26-.21-.35-.09-.65-.27-.92-.52-.26-.26-.39-.62-.39-1.1,0-.38,.12-.71,.35-1.01,.24-.3,.59-.54,1.05-.71,.47-.18,1.04-.27,1.69-.27,.46,0,.9,.04,1.34,.13,.44,.08,.82,.2,1.13,.35l-.69,1.59c-.53-.28-1.11-.43-1.75-.43-.55,0-.82,.09-.82,.28,0,.09,.07,.16,.22,.2,.15,.04,.38,.07,.7,.11,.49,.06,.91,.13,1.25,.22,.35,.09,.65,.27,.91,.52,.27,.26,.4,.62,.4,1.1,0,.36-.12,.69-.35,.99-.24,.3-.59,.54-1.06,.71s-1.04,.27-1.71,.27Zm8.35-.31c-.38,.21-.89,.31-1.54,.31-.85,0-1.5-.2-1.96-.59-.46-.4-.69-.99-.69-1.78v-1.49h-.83v-1.76h.83v-1.63h2.5v1.63h1.24v1.76h-1.24v1.47c0,.18,.05,.32,.14,.42,.1,.1,.22,.15,.38,.15,.21,0,.4-.05,.56-.16l.6,1.67Zm3.34-5.74c1.06,0,1.87,.23,2.43,.69,.56,.45,.84,1.16,.84,2.11v3.14h-2.32v-.77c-.29,.58-.86,.87-1.71,.87-.48,0-.89-.08-1.23-.23-.33-.16-.59-.38-.76-.65-.17-.28-.25-.59-.25-.93,0-.58,.23-1.01,.69-1.31,.46-.3,1.15-.45,2.08-.45h1.01c-.08-.45-.46-.68-1.14-.68-.27,0-.55,.04-.83,.13-.28,.08-.52,.19-.72,.33l-.8-1.59c.35-.21,.76-.37,1.25-.48,.49-.12,.98-.18,1.47-.18Zm-.01,4.6c.18,0,.34-.05,.48-.14,.14-.09,.24-.23,.31-.42v-.41h-.62c-.51,0-.76,.16-.76,.49,0,.14,.05,.25,.15,.34,.11,.09,.26,.13,.44,.13Zm8.57-4.6c.74,0,1.34,.22,1.79,.65,.46,.43,.69,1.09,.69,1.96v3.33h-2.5v-2.91c0-.67-.25-1-.74-1-.28,0-.51,.1-.69,.29-.17,.18-.25,.48-.25,.89v2.74h-2.5v-5.83h2.38v.58c.24-.23,.51-.4,.82-.51,.31-.11,.65-.17,1.01-.17Zm6.93,6.05c-.69,0-1.3-.13-1.85-.38-.54-.26-.96-.61-1.27-1.08-.3-.46-.45-.98-.45-1.57s.15-1.1,.45-1.56c.31-.46,.73-.82,1.27-1.08,.55-.26,1.16-.38,1.85-.38,.74,0,1.37,.15,1.89,.46,.52,.31,.89,.73,1.08,1.27l-1.94,.92c-.24-.51-.59-.77-1.05-.77-.3,0-.54,.1-.74,.3-.19,.2-.29,.48-.29,.84s.1,.65,.29,.85c.2,.2,.45,.3,.74,.3,.46,0,.82-.26,1.05-.77l1.94,.92c-.2,.54-.56,.96-1.08,1.27-.52,.31-1.15,.46-1.89,.46Zm9.94-3.03s-.01,.22-.03,.57h-4.2c.09,.22,.24,.39,.44,.51,.21,.11,.46,.17,.77,.17,.27,0,.49-.03,.66-.1,.18-.06,.38-.17,.6-.33l1.31,1.27c-.59,.63-1.47,.94-2.64,.94-.73,0-1.37-.13-1.93-.38-.55-.26-.98-.63-1.28-1.09-.3-.46-.45-.98-.45-1.56s.15-1.1,.44-1.56c.3-.46,.71-.82,1.23-1.08,.52-.26,1.11-.38,1.76-.38,.61,0,1.17,.12,1.67,.35,.51,.23,.91,.58,1.21,1.03,.3,.45,.45,1,.45,1.63Zm-3.31-1.38c-.26,0-.47,.07-.64,.2s-.28,.33-.33,.58h1.95c-.05-.24-.16-.43-.33-.57-.17-.14-.38-.21-.64-.21Z"/></g></g><g><path d="M323.55,68.8h-.07c-.22-.01-.45-.02-.68-.02h-102.16c-.23,0-.46,0-.69,.01h-.1c-7.38,.4-13.16,6.16-13.16,13.14v231c0,6.82,5.64,12.58,12.85,13.12,.11,0,.22,.02,.34,.02h.04c.24,.01,.48,.02,.73,.02h102.16c.24,0,.48,0,.72-.02h.04c.12,0,.24-.01,.35-.02,7.2-.53,12.84-6.3,12.84-13.11V81.94c0-7-5.8-12.77-13.21-13.14Zm9.49,244.14c0,5-4.13,9.23-9.41,9.62-.05,0-.1,0-.15,0h-.16c-.17,.01-.35,.02-.52,.02h-102.16c-.18,0-.36,0-.53-.01h-.14s-.09-.01-.14-.02c-5.28-.39-9.42-4.62-9.42-9.62V81.94c0-5.08,4.19-9.29,9.55-9.63h.23c.16-.02,.31-.02,.45-.02h102.16c.14,0,.29,0,.46,0h.09c5.43,.27,9.69,4.51,9.69,9.64v231Z"/><path d="M306.46,72.29v1.26c0,4.24-3.65,7.68-8.14,7.68h-53.17c-4.5,0-8.14-3.44-8.14-7.68v-1.26h69.46Z"/></g><path d="M306.46,72.29v1.26c0,4.24-3.65,7.68-8.14,7.68h-53.17c-4.5,0-8.14-3.44-8.14-7.68v-1.26h69.46Z"/></g><rect class="cls-1" x="263.15" y="73.33" width="16.3" height="1.61" rx=".68" ry=".68"/></g><path class="cls-3" d="M319.21,75.51c-.53-.42-1.2-.65-1.9-.65s-1.38,.23-1.91,.65l-.05,.04s-.04,.08,0,.11l.31,.29s.08,.03,.11,0l.04-.03c.42-.33,.94-.5,1.49-.5s1.07,.18,1.49,.5l.04,.03s.08,.02,.11,0l.31-.29s.03-.08,0-.11l-.05-.04Zm-1.9,.24c.44,0,.87,.14,1.21,.39l.05,.04s.04,.08,0,.11l-.31,.29s-.08,.03-.11,0l-.04-.03c-.23-.16-.52-.25-.81-.25s-.58,.09-.81,.25l-.04,.03s-.08,.02-.11,0l-.31-.29s-.03-.09,0-.11l.05-.04c.35-.25,.77-.39,1.22-.39Zm0,.89c.18,0,.35,.04,.5,.13l.06,.03s.05,.08,.02,.12l-.53,.49s-.08,.03-.12,0l-.52-.48s-.03-.09,.02-.12l.06-.03c.15-.08,.33-.13,.51-.13Z"/></g><path class="cls-16" d="M323.29,72.32h-.24c-.17-.02-.32-.02-.46-.02h-15.04c-.86,.04-1.56,.67-1.64,1.47,0,.05,0,.11,0,.17v.02c-.21,4.16-3.85,7.47-8.3,7.47h-54.27c-4.46,0-8.1-3.31-8.3-7.47v-.02c0-.06,0-.11,0-.17-.09-.8-.78-1.43-1.64-1.47h-15.04c-.14,0-.29,0-.46,0h-.24c-5.48,.35-9.75,4.65-9.75,9.84v235.78c0,5.1,4.22,9.42,9.61,9.81,.05,0,.1,0,.14,.01h.15c.18,.01,.36,.02,.54,.02h104.26c.18,0,.36,0,.54-.01h.15s.09-.01,.14-.02c5.39-.4,9.61-4.71,9.61-9.81V82.14c0-5.19-4.28-9.49-9.75-9.82Z"/></g><path class="cls-7" d="M321.61,74.99h5.28c.38,0,.69,.29,.69,.64v1.67c0,.35-.31,.64-.69,.64h-5.28c-.38,0-.69-.29-.69-.64v-1.67c0-.35,.31-.64,.69-.64Zm0,.26c-.23,0-.42,.17-.42,.39v1.67c0,.21,.19,.39,.42,.39h5.28c.23,0,.42-.17,.42-.39v-1.67c0-.21-.19-.39-.42-.39h-5.28Z"/><path class="cls-6" d="M327.86,75.83c.25,.12,.42,.35,.42,.63s-.17,.51-.42,.63v-1.26Z"/><path class="cls-3" d="M321.75,75.5h5c.15,0,.28,.11,.28,.26v1.41c0,.14-.12,.26-.28,.26h-5c-.15,0-.28-.11-.28-.26v-1.41c0-.14,.12-.26,.28-.26Z"/><path class="cls-3" d="M312.49,74.86h.28c.15,0,.28,.11,.28,.26v2.05c0,.14-.12,.26-.28,.26h-.28c-.15,0-.28-.11-.28-.26v-2.05c0-.14,.12-.26,.28-.26Z"/><path class="cls-2" d="M311.52,75.37h-.28c-.15,0-.28,.11-.28,.26v1.54c0,.14,.12,.26,.28,.26h.28c.15,0,.28-.11,.28-.26v-1.54c0-.14-.12-.26-.28-.26Z"/><path class="cls-2" d="M309.99,75.89h.28c.15,0,.28,.11,.28,.26v1.03c0,.14-.12,.26-.28,.26h-.28c-.15,0-.28-.11-.28-.26v-1.03c0-.14,.12-.26,.28-.26Z"/><path class="cls-2" d="M308.74,76.27h.28c.15,0,.28,.11,.28,.26v.64c0,.14-.12,.26-.28,.26h-.28c-.15,0-.28-.11-.28-.26v-.64c0-.14,.12-.26,.28-.26Z"/><path d="M218.72,77.94h.29v-.94h1.04v-.24h-1.04v-.75h1.13v-.24h-1.43v2.17Zm2.01-1.94c.11,0,.2-.08,.2-.18s-.09-.18-.2-.18-.2,.08-.2,.18,.09,.18,.2,.18Zm-.14,1.94h.28v-1.62h-.28v1.62Zm1.53,.57c.48,0,.78-.23,.78-.59v-1.6h-.28v.27h-.02c-.11-.18-.3-.3-.55-.3-.46,0-.74,.33-.74,.78h0c0,.46,.28,.78,.74,.78,.24,0,.44-.1,.55-.28h.03v.33c0,.24-.19,.38-.5,.38-.25,0-.41-.09-.44-.21h-.3c.04,.27,.31,.44,.74,.44Zm-.01-.89c-.33,0-.51-.23-.51-.55h0c0-.33,.18-.56,.51-.56s.52,.23,.52,.55h0c0,.33-.2,.55-.52,.55Zm1.31,.32h.28v-1.01c0-.23,.17-.41,.4-.41s.36,.12,.36,.32v1.1h.28v-1.04c0-.21,.16-.38,.41-.38s.37,.12,.37,.36v1.06h.28v-1.12c0-.34-.2-.53-.56-.53-.24,0-.44,.11-.54,.28h-.03c-.08-.17-.25-.28-.49-.28s-.4,.1-.47,.28h-.03v-.25h-.28v1.62Zm3.37,.03c.24,0,.42-.09,.53-.27h.03v.24h.28v-1.11c0-.34-.24-.54-.67-.54-.37,0-.64,.17-.69,.43h.28c.05-.12,.18-.19,.39-.19,.26,0,.39,.11,.39,.31v.15l-.5,.03c-.41,.02-.64,.19-.64,.48h0c0,.3,.25,.48,.59,.48Zm-.3-.49h0c0-.16,.12-.25,.38-.27l.47-.03v.15c0,.23-.21,.41-.5,.41-.2,0-.35-.1-.35-.26Z"/></g><rect class="cls-35" x="235" y="318" width="79" height="2" rx="1" ry="1"/></g><g id="Layer_2"><rect class="cls-27" x="269" y="71" width="3" height="25" rx=".5" ry=".5"/><rect class="cls-27" x="138" y="77" width="3" height="16" rx=".5" ry=".5"/><rect class="cls-27" x="138" y="51" width="3" height="10" rx="1.07" ry="1.07"/><rect class="cls-27" x="138" y="99" width="3" height="16" rx=".5" ry=".5"/><g><g><g><g><g><rect class="cls-2" x="142.73" y="32.54" width="124.27" height="252" rx="5.89" ry="5.89"/><g class="cls-32"><g><rect class="cls-2" x="145.19" y="37.7" width="120.23" height="242.49"/><path class="cls-30" d="M162.83,65.9l-2.76,7.79h-2.1l-1.86-5.28-1.92,5.28h-2.09l-2.77-7.79h2.03l1.91,5.48,1.99-5.48h1.81l1.93,5.52,1.97-5.52h1.87Zm6.83,4.82s-.01,.18-.04,.47h-4.91c.09,.37,.3,.66,.63,.88,.33,.22,.74,.32,1.23,.32,.34,0,.64-.04,.89-.13,.27-.1,.51-.24,.74-.45l1,1c-.61,.65-1.5,.97-2.68,.97-.73,0-1.38-.13-1.94-.39-.56-.27-1-.63-1.3-1.1-.31-.47-.46-1-.46-1.59s.15-1.11,.45-1.58c.31-.47,.72-.84,1.24-1.1,.53-.27,1.12-.4,1.77-.4s1.21,.13,1.72,.38c.51,.25,.92,.62,1.21,1.09,.3,.47,.45,1.01,.45,1.64Zm-3.36-1.79c-.43,0-.78,.11-1.07,.33-.29,.22-.47,.53-.53,.91h3.2c-.06-.38-.24-.68-.53-.9-.29-.23-.64-.35-1.06-.35Zm4.62-3.49h1.88v8.26h-1.88v-8.26Zm6.76,8.35c-.69,0-1.31-.13-1.87-.39-.55-.27-.98-.63-1.29-1.1-.31-.47-.46-1-.46-1.59s.15-1.12,.46-1.59c.31-.47,.74-.83,1.29-1.09,.55-.27,1.18-.4,1.87-.4s1.28,.13,1.78,.4c.51,.26,.89,.63,1.12,1.12l-1.46,.72c-.34-.55-.82-.82-1.46-.82-.49,0-.9,.15-1.22,.45-.32,.3-.48,.7-.48,1.21s.16,.92,.48,1.21c.32,.3,.73,.45,1.22,.45,.64,0,1.13-.27,1.46-.82l1.46,.73c-.23,.47-.61,.85-1.12,1.11-.51,.27-1.1,.4-1.78,.4Zm7,0c-.68,0-1.3-.13-1.85-.39-.54-.27-.96-.63-1.27-1.1-.31-.47-.46-1-.46-1.59s.15-1.12,.46-1.59c.31-.47,.73-.83,1.27-1.09,.55-.27,1.16-.4,1.85-.4s1.29,.13,1.83,.4c.54,.26,.96,.62,1.27,1.09,.31,.47,.46,1,.46,1.59s-.15,1.12-.46,1.59c-.31,.47-.73,.83-1.27,1.1-.54,.26-1.15,.39-1.83,.39Zm0-1.42c.48,0,.88-.15,1.18-.45,.31-.3,.47-.71,.47-1.21s-.16-.91-.47-1.2c-.31-.3-.7-.46-1.18-.46s-.88,.15-1.19,.46c-.31,.3-.47,.7-.47,1.2s.16,.91,.47,1.21c.31,.3,.71,.45,1.19,.45Zm13.13-4.74c.81,0,1.46,.22,1.93,.67,.48,.44,.72,1.1,.72,1.98v3.43h-1.88v-3.16c0-.47-.11-.83-.33-1.06-.21-.24-.51-.36-.9-.36-.44,0-.79,.13-1.05,.4-.26,.26-.39,.65-.39,1.17v3.01h-1.88v-3.16c0-.94-.41-1.41-1.23-1.41-.43,0-.78,.13-1.04,.4-.26,.26-.39,.65-.39,1.17v3.01h-1.88v-5.99h1.8v.69c.24-.25,.53-.45,.88-.58,.35-.13,.74-.2,1.16-.2,.46,0,.87,.09,1.24,.26,.37,.16,.67,.4,.89,.72,.27-.31,.6-.55,1-.72,.41-.17,.86-.26,1.34-.26Zm10.77,3.11s-.01,.18-.04,.47h-4.91c.09,.37,.3,.66,.63,.88,.33,.22,.74,.32,1.23,.32,.34,0,.64-.04,.89-.13,.27-.1,.51-.24,.74-.45l1,1c-.61,.65-1.5,.97-2.68,.97-.73,0-1.38-.13-1.94-.39-.56-.27-1-.63-1.3-1.1-.31-.47-.46-1-.46-1.59s.15-1.11,.45-1.58c.31-.47,.72-.84,1.24-1.1,.53-.27,1.12-.4,1.77-.4s1.21,.13,1.72,.38c.51,.25,.92,.62,1.21,1.09,.3,.47,.45,1.01,.45,1.64Zm-3.36-1.79c-.43,0-.78,.11-1.07,.33-.29,.22-.47,.53-.53,.91h3.2c-.06-.38-.24-.68-.53-.9-.29-.23-.64-.35-1.06-.35Zm12.22,4.47c-.19,.13-.41,.22-.69,.29-.27,.06-.55,.09-.84,.09-.77,0-1.37-.18-1.8-.55-.42-.36-.63-.9-.63-1.6v-2.46h-1v-1.34h1v-1.46h1.88v1.46h1.62v1.34h-1.62v2.44c0,.25,.07,.45,.21,.59,.14,.13,.35,.2,.6,.2,.3,0,.55-.07,.76-.22l.51,1.22Zm3.94,.38c-.68,0-1.3-.13-1.85-.39-.54-.27-.96-.63-1.27-1.1-.31-.47-.46-1-.46-1.59s.15-1.12,.46-1.59c.31-.47,.73-.83,1.27-1.09,.55-.27,1.16-.4,1.85-.4s1.29,.13,1.83,.4c.54,.26,.96,.62,1.27,1.09,.31,.47,.46,1,.46,1.59s-.15,1.12-.46,1.59c-.31,.47-.73,.83-1.27,1.1-.54,.26-1.15,.39-1.83,.39Zm0-1.42c.48,0,.88-.15,1.18-.45,.31-.3,.47-.71,.47-1.21s-.16-.91-.47-1.2c-.31-.3-.7-.46-1.18-.46s-.88,.15-1.19,.46c-.31,.3-.47,.7-.47,1.2s.16,.91,.47,1.21c.31,.3,.71,.45,1.19,.45Zm-67.64,7.02c.75,0,1.4,.12,1.94,.35,.55,.23,.98,.56,1.28,.98,.3,.42,.45,.92,.45,1.5s-.15,1.07-.45,1.5c-.3,.42-.72,.75-1.28,.98-.55,.22-1.19,.33-1.94,.33h-1.7v2.15h-1.95v-7.79h3.65Zm-.11,4.17c.59,0,1.03-.12,1.34-.35,.31-.24,.46-.57,.46-1s-.15-.77-.46-1c-.31-.24-.75-.36-1.34-.36h-1.59v2.7h1.59Zm8.11,3.71c-.68,0-1.3-.13-1.85-.39-.54-.27-.96-.63-1.27-1.1-.31-.47-.46-1-.46-1.59s.15-1.12,.46-1.59c.31-.47,.73-.83,1.27-1.09,.55-.27,1.16-.4,1.85-.4s1.29,.13,1.83,.4c.54,.26,.96,.62,1.27,1.09,.31,.47,.46,1,.46,1.59s-.15,1.12-.46,1.59c-.31,.47-.73,.83-1.27,1.1-.54,.26-1.15,.39-1.83,.39Zm0-1.42c.48,0,.88-.15,1.18-.45,.31-.3,.47-.71,.47-1.21s-.16-.91-.47-1.2c-.31-.3-.7-.46-1.18-.46s-.88,.15-1.19,.46c-.31,.3-.47,.7-.47,1.2s.16,.91,.47,1.21c.31,.3,.71,.45,1.19,.45Zm7.95,1.42c-.69,0-1.31-.13-1.87-.39-.55-.27-.98-.63-1.29-1.1-.31-.47-.46-1-.46-1.59s.15-1.12,.46-1.59c.31-.47,.74-.83,1.29-1.09,.55-.27,1.18-.4,1.87-.4s1.28,.13,1.78,.4c.51,.26,.89,.63,1.12,1.12l-1.46,.72c-.34-.55-.82-.82-1.46-.82-.49,0-.9,.15-1.22,.45-.32,.3-.48,.7-.48,1.21s.16,.92,.48,1.21c.32,.3,.73,.45,1.22,.45,.64,0,1.13-.27,1.46-.82l1.46,.73c-.23,.47-.61,.85-1.12,1.11-.51,.27-1.1,.4-1.78,.4Zm6.73-2.44l-.9,.82v1.52h-1.88v-8.26h1.88v4.67l2.75-2.4h2.24l-2.7,2.54,2.94,3.45h-2.28l-2.05-2.35Zm11.25-.62s-.01,.18-.04,.47h-4.91c.09,.37,.3,.66,.63,.88,.33,.22,.74,.32,1.23,.32,.34,0,.64-.04,.89-.13,.27-.1,.51-.24,.74-.45l1,1c-.61,.65-1.5,.97-2.68,.97-.73,0-1.38-.13-1.94-.39-.56-.27-1-.63-1.3-1.1-.31-.47-.46-1-.46-1.59s.15-1.11,.45-1.58c.31-.47,.72-.84,1.24-1.1,.53-.27,1.12-.4,1.77-.4s1.21,.13,1.72,.38c.51,.25,.92,.62,1.21,1.09,.3,.47,.45,1.01,.45,1.64Zm-3.36-1.79c-.43,0-.78,.11-1.07,.33-.29,.22-.47,.53-.53,.91h3.2c-.06-.38-.24-.68-.53-.9-.29-.23-.64-.35-1.06-.35Zm8.8,4.47c-.19,.13-.41,.22-.69,.29-.27,.06-.55,.09-.84,.09-.77,0-1.37-.18-1.8-.55-.42-.36-.63-.9-.63-1.6v-2.46h-1v-1.34h1v-1.46h1.88v1.46h1.62v1.34h-1.62v2.44c0,.25,.07,.45,.21,.59,.14,.13,.35,.2,.6,.2,.3,0,.55-.07,.76-.22l.51,1.22Zm2.94-6.03h-2.7v-1.47h7.36v1.47h-2.7v6.32h-1.95v-6.32Zm11.97,.33v5.99h-1.79v-.71c-.25,.26-.55,.46-.89,.6-.35,.13-.72,.2-1.12,.2-.85,0-1.53-.23-2.03-.68-.5-.45-.75-1.12-.75-2.01v-3.38h1.88v3.13c0,.96,.44,1.45,1.31,1.45,.45,0,.81-.13,1.09-.4,.27-.27,.41-.68,.41-1.21v-2.96h1.88Zm5.93,5.7c-.18,.13-.41,.22-.69,.29-.27,.06-.55,.09-.84,.09-.77,0-1.37-.18-1.8-.55-.42-.36-.63-.9-.63-1.6v-2.46h-1v-1.34h1v-1.46h1.88v1.46h1.62v1.34h-1.62v2.44c0,.25,.07,.45,.21,.59,.14,.13,.35,.2,.6,.2,.3,0,.55-.07,.76-.22l.51,1.22Zm3.94,.38c-.68,0-1.3-.13-1.85-.39-.54-.27-.96-.63-1.27-1.1-.31-.47-.46-1-.46-1.59s.15-1.12,.46-1.59c.31-.47,.73-.83,1.27-1.09,.55-.27,1.16-.4,1.85-.4s1.29,.13,1.83,.4c.54,.26,.96,.62,1.27,1.09,.31,.47,.46,1,.46,1.59s-.15,1.12-.46,1.59c-.31,.47-.73,.83-1.27,1.1-.54,.26-1.15,.39-1.83,.39Zm0-1.42c.48,0,.88-.15,1.18-.45,.31-.3,.47-.71,.47-1.21s-.16-.91-.47-1.2c-.31-.3-.7-.46-1.18-.46s-.88,.15-1.19,.46c-.31,.3-.47,.7-.47,1.2s.16,.91,.47,1.21c.31,.3,.71,.45,1.19,.45Zm6.61-3.86c.23-.29,.53-.51,.9-.66,.39-.15,.83-.22,1.33-.22v1.6c-.21-.01-.35-.02-.42-.02-.54,0-.96,.14-1.27,.42-.31,.27-.46,.69-.46,1.25v2.83h-1.88v-5.99h1.8v.79Zm3.35-.79h1.88v5.99h-1.88v-5.99Zm.94-.83c-.35,0-.63-.09-.84-.28-.22-.19-.33-.42-.33-.69s.11-.5,.33-.69c.22-.19,.5-.28,.84-.28s.63,.09,.84,.27,.33,.4,.33,.67c0,.29-.11,.53-.33,.72-.22,.19-.5,.28-.84,.28Zm5.3,.75c1.01,0,1.78,.22,2.32,.67,.54,.44,.81,1.1,.81,1.99v3.42h-1.76v-.75c-.35,.56-1.01,.83-1.98,.83-.5,0-.93-.08-1.3-.23-.36-.16-.64-.37-.83-.65s-.29-.59-.29-.93c0-.56,.23-.99,.68-1.31,.46-.32,1.16-.48,2.11-.48h1.5c0-.38-.12-.67-.37-.87-.25-.21-.62-.31-1.12-.31-.35,0-.69,.05-1.03,.16-.33,.1-.61,.23-.84,.4l-.68-1.21c.35-.23,.78-.41,1.27-.53,.5-.13,1.01-.19,1.53-.19Zm-.14,5c.32,0,.61-.07,.86-.2,.25-.14,.43-.35,.53-.61v-.61h-1.29c-.77,0-1.16,.23-1.16,.7,0,.22,.09,.4,.28,.53,.19,.13,.45,.19,.78,.19Zm4.97-7.18h1.88v8.26h-1.88v-8.26Z"/><path class="cls-18" d="M150.97,225.71h107.28c1.05,0,1.9,.79,1.9,1.76v17.28c0,.97-.85,1.76-1.9,1.76h-107.28c-1.05,0-1.9-.79-1.9-1.76v-17.28c0-.97,.85-1.76,1.9-1.76Z"/><path class="cls-2" d="M188.59,239.29c-.53,0-1.04-.06-1.53-.19-.49-.13-.88-.31-1.18-.52l.52-1.07c.29,.19,.63,.35,1.02,.47,.39,.12,.79,.18,1.18,.18,.44,0,.76-.06,.97-.18,.21-.12,.31-.28,.31-.48,0-.15-.06-.27-.19-.36-.12-.1-.28-.18-.48-.24-.19-.06-.45-.12-.78-.19-.51-.11-.92-.22-1.25-.33-.32-.11-.6-.29-.84-.54-.23-.25-.34-.57-.34-.98,0-.36,.1-.68,.31-.97,.21-.29,.52-.52,.94-.69,.43-.17,.94-.25,1.55-.25,.43,0,.84,.05,1.25,.14s.76,.23,1.07,.4l-.48,1.08c-.62-.32-1.23-.48-1.85-.48-.43,0-.75,.06-.96,.19-.2,.13-.3,.3-.3,.51s.12,.37,.35,.47c.24,.1,.61,.2,1.09,.3,.51,.11,.92,.22,1.25,.33,.32,.11,.6,.29,.83,.53,.23,.24,.35,.57,.35,.98,0,.35-.11,.67-.32,.97-.21,.29-.53,.52-.95,.69-.43,.17-.94,.25-1.55,.25Zm3.78-4.83h1.49v4.73h-1.49v-4.73Zm.74-.66c-.27,0-.5-.07-.67-.22-.17-.15-.26-.33-.26-.54s.09-.4,.26-.54c.17-.15,.39-.22,.67-.22s.5,.07,.67,.21c.17,.14,.26,.32,.26,.53,0,.23-.09,.42-.26,.57-.17,.15-.39,.22-.67,.22Zm7.41,.66v3.94c0,.87-.24,1.51-.73,1.93-.49,.42-1.2,.63-2.14,.63-.5,0-.96-.06-1.41-.17-.44-.11-.81-.27-1.1-.48l.59-.98c.22,.16,.49,.29,.82,.39,.33,.1,.66,.15,.99,.15,.51,0,.89-.11,1.13-.33,.25-.21,.37-.53,.37-.97v-.2c-.39,.39-.93,.59-1.62,.59-.47,0-.9-.09-1.29-.28-.39-.19-.7-.46-.92-.81s-.34-.74-.34-1.2,.11-.85,.34-1.2c.23-.35,.54-.61,.92-.8,.39-.19,.83-.29,1.29-.29,.74,0,1.31,.23,1.69,.68v-.61h1.41Zm-2.81,3.37c.39,0,.71-.11,.96-.32,.25-.22,.38-.5,.38-.84s-.13-.62-.38-.83c-.25-.22-.57-.33-.96-.33s-.72,.11-.97,.33c-.25,.21-.38,.49-.38,.83s.13,.63,.38,.84c.25,.21,.58,.32,.97,.32Zm7.31-3.44c.63,0,1.15,.18,1.53,.53,.39,.35,.59,.87,.59,1.56v2.71h-1.49v-2.5c0-.37-.09-.65-.27-.83-.18-.19-.43-.28-.77-.28-.37,0-.67,.11-.9,.33-.22,.21-.33,.53-.33,.95v2.34h-1.49v-4.73h1.42v.55c.2-.2,.44-.35,.73-.46,.29-.11,.61-.17,.96-.17Zm11.33,.07v4.73h-1.41v-.56c-.2,.21-.43,.36-.7,.47-.27,.11-.57,.16-.89,.16-.67,0-1.21-.18-1.6-.54-.39-.36-.59-.89-.59-1.59v-2.67h1.49v2.47c0,.76,.35,1.14,1.04,1.14,.36,0,.64-.11,.86-.32,.22-.22,.32-.54,.32-.96v-2.34h1.49Zm4.4-.07c.48,0,.91,.1,1.29,.31,.39,.2,.7,.48,.92,.85,.22,.36,.33,.79,.33,1.27s-.11,.91-.33,1.28c-.22,.36-.53,.65-.92,.85-.39,.2-.82,.3-1.29,.3-.65,0-1.17-.19-1.54-.57v2.21h-1.49v-6.43h1.42v.54c.37-.41,.9-.62,1.61-.62Zm-.26,3.74c.38,0,.69-.12,.93-.35,.25-.24,.37-.56,.37-.96s-.12-.71-.37-.95c-.24-.24-.55-.36-.93-.36s-.7,.12-.94,.36c-.24,.23-.36,.55-.36,.95s.12,.72,.36,.96c.25,.23,.56,.35,.94,.35Z"/><path d="M151.05,95.43c.4,0,.71,.09,.93,.26,.23,.17,.34,.42,.34,.72s-.11,.55-.34,.72c-.23,.17-.54,.26-.93,.26h-.84v.91h-.33v-2.87h1.16Zm0,1.7c.31,0,.54-.06,.71-.18,.16-.13,.24-.3,.24-.53s-.08-.41-.24-.53c-.16-.13-.4-.19-.71-.19h-.83v1.44h.83Zm1.97-1.87h.32v3.04h-.32v-3.04Zm3.23,2.05h-1.96c.02,.22,.11,.41,.28,.55,.17,.14,.38,.21,.64,.21,.15,0,.28-.02,.4-.07,.12-.05,.23-.12,.32-.21l.18,.19c-.1,.11-.23,.2-.39,.26-.15,.06-.32,.09-.51,.09-.24,0-.45-.05-.64-.14-.18-.1-.33-.23-.43-.39-.1-.17-.16-.36-.16-.57s.05-.4,.15-.57c.1-.17,.24-.3,.41-.39,.17-.09,.37-.14,.59-.14s.41,.05,.58,.14c.17,.09,.31,.22,.4,.39,.1,.16,.15,.35,.15,.57v.09Zm-1.13-.93c-.23,0-.41,.07-.57,.2-.15,.13-.24,.3-.26,.52h1.66c-.02-.21-.11-.39-.26-.52-.15-.13-.34-.2-.57-.2Zm2.53-.25c.31,0,.54,.07,.7,.21,.16,.14,.24,.35,.24,.62v1.34h-.3v-.34c-.07,.11-.18,.2-.32,.26-.14,.06-.3,.09-.49,.09-.26,0-.47-.06-.62-.17-.15-.11-.23-.27-.23-.46s.07-.33,.21-.44c.15-.11,.37-.17,.69-.17h.74v-.13c0-.19-.06-.33-.17-.42-.11-.1-.28-.15-.49-.15-.15,0-.29,.02-.43,.07-.14,.04-.25,.11-.35,.18l-.14-.22c.12-.09,.26-.16,.43-.21,.17-.05,.34-.08,.52-.08Zm-.11,1.96c.18,0,.33-.04,.46-.11,.13-.08,.22-.19,.28-.33v-.35h-.73c-.4,0-.6,.13-.6,.39,0,.13,.05,.23,.16,.3,.1,.07,.25,.11,.44,.11Zm2.54,.23c-.19,0-.37-.02-.55-.07-.17-.05-.31-.12-.4-.19l.14-.23c.1,.07,.22,.13,.37,.18,.15,.04,.3,.07,.46,.07,.21,0,.37-.03,.47-.09,.1-.06,.16-.15,.16-.26,0-.08-.03-.14-.08-.18-.06-.05-.13-.08-.21-.1-.09-.02-.2-.05-.34-.07-.19-.03-.34-.07-.46-.1-.12-.04-.21-.09-.3-.18-.08-.08-.12-.2-.12-.34,0-.18,.08-.33,.24-.44,.16-.11,.39-.17,.68-.17,.15,0,.3,.02,.45,.06,.15,.04,.28,.08,.37,.14l-.14,.23c-.19-.12-.42-.18-.69-.18-.2,0-.35,.03-.46,.1-.1,.07-.15,.15-.15,.26,0,.08,.03,.15,.08,.2,.06,.05,.13,.09,.22,.11,.09,.02,.2,.05,.36,.07,.19,.03,.34,.07,.45,.1,.11,.03,.21,.09,.29,.17,.08,.08,.12,.19,.12,.33,0,.19-.09,.34-.26,.45-.17,.11-.4,.16-.71,.16Zm3.58-1.01h-1.96c.02,.22,.11,.41,.28,.55,.17,.14,.38,.21,.64,.21,.15,0,.28-.02,.4-.07,.12-.05,.23-.12,.32-.21l.18,.19c-.1,.11-.23,.2-.39,.26-.15,.06-.32,.09-.51,.09-.24,0-.45-.05-.64-.14-.18-.1-.33-.23-.43-.39-.1-.17-.16-.36-.16-.57s.05-.4,.15-.57c.1-.17,.24-.3,.41-.39,.17-.09,.37-.14,.59-.14s.41,.05,.58,.14c.17,.09,.31,.22,.4,.39,.1,.16,.15,.35,.15,.57v.09Zm-1.13-.93c-.23,0-.41,.07-.57,.2-.15,.13-.24,.3-.26,.52h1.66c-.02-.21-.11-.39-.26-.52-.15-.13-.34-.2-.57-.2Zm2.94-1.12h.32v3.04h-.32v-3.04Zm2.15,3.06c-.23,0-.43-.05-.61-.14-.18-.1-.32-.23-.43-.39s-.16-.36-.16-.57,.05-.4,.16-.57,.25-.3,.43-.39,.38-.14,.61-.14,.43,.05,.61,.14,.32,.22,.42,.39c.1,.17,.16,.36,.16,.57s-.05,.4-.16,.57c-.1,.17-.24,.3-.42,.39-.18,.09-.38,.14-.61,.14Zm0-.26c.17,0,.31-.03,.44-.1,.13-.07,.24-.17,.31-.3,.07-.13,.11-.27,.11-.44s-.04-.31-.11-.44c-.07-.13-.18-.23-.31-.3-.13-.07-.28-.11-.44-.11s-.32,.04-.45,.11c-.13,.07-.23,.17-.31,.3-.07,.13-.11,.27-.11,.44s.04,.31,.11,.44c.08,.13,.18,.23,.31,.3,.13,.07,.28,.1,.45,.1Zm3.99-1.92v1.89c0,.37-.1,.64-.29,.81-.19,.18-.48,.27-.88,.27-.22,0-.42-.03-.62-.09-.19-.06-.35-.14-.47-.24l.16-.22c.11,.09,.25,.17,.41,.22,.16,.05,.33,.08,.51,.08,.3,0,.51-.06,.65-.19,.14-.13,.21-.32,.21-.59v-.27c-.1,.14-.23,.24-.39,.31-.16,.07-.33,.11-.52,.11-.22,0-.42-.04-.6-.13-.18-.09-.32-.21-.42-.37-.1-.16-.15-.34-.15-.55s.05-.38,.15-.54c.1-.16,.24-.28,.42-.37,.18-.09,.38-.13,.6-.13,.2,0,.38,.04,.54,.11,.16,.07,.29,.18,.39,.32v-.41h.3Zm-1.2,1.82c.17,0,.32-.03,.46-.1,.14-.07,.24-.16,.32-.28,.08-.12,.12-.26,.12-.41s-.04-.29-.12-.41c-.07-.12-.18-.21-.32-.28-.13-.07-.29-.1-.46-.1s-.32,.03-.46,.1c-.13,.07-.24,.16-.32,.28-.07,.12-.11,.26-.11,.41s.04,.29,.11,.41c.08,.12,.18,.21,.32,.28,.14,.07,.29,.1,.46,.1Zm2.08-1.82h.32v2.16h-.32v-2.16Zm.16-.47c-.07,0-.12-.02-.16-.06s-.07-.09-.07-.15,.02-.1,.07-.14,.1-.06,.16-.06,.12,.02,.16,.06c.04,.04,.07,.08,.07,.14,0,.06-.02,.11-.07,.15s-.1,.06-.16,.06Zm2.22,.46c.29,0,.53,.08,.7,.24,.17,.16,.26,.38,.26,.68v1.25h-.32v-1.22c0-.22-.06-.4-.18-.51-.12-.12-.29-.18-.52-.18-.25,0-.45,.07-.6,.21-.15,.14-.22,.33-.22,.57v1.13h-.32v-2.16h.3v.4c.09-.13,.2-.23,.36-.3,.15-.07,.33-.11,.53-.11Zm3.93,2.19c-.23,0-.43-.05-.61-.14-.18-.1-.32-.23-.43-.39-.1-.17-.16-.36-.16-.57s.05-.4,.16-.57c.1-.17,.25-.3,.43-.39,.18-.09,.38-.14,.61-.14s.43,.05,.61,.14c.18,.09,.32,.22,.42,.39,.1,.17,.16,.36,.16,.57s-.05,.4-.16,.57c-.1,.17-.24,.3-.42,.39-.18,.09-.38,.14-.61,.14Zm0-.26c.17,0,.31-.03,.44-.1,.13-.07,.24-.17,.31-.3,.07-.13,.11-.27,.11-.44s-.04-.31-.11-.44c-.07-.13-.18-.23-.31-.3-.13-.07-.28-.11-.44-.11s-.32,.04-.45,.11c-.13,.07-.23,.17-.31,.3-.07,.13-.11,.27-.11,.44s.04,.31,.11,.44c.08,.13,.18,.23,.31,.3,.13,.07,.28,.1,.45,.1Zm2.13-1.5c.07-.14,.18-.25,.33-.33,.15-.07,.33-.11,.55-.11v.28h-.08c-.25,0-.44,.07-.58,.21-.14,.14-.21,.33-.21,.59v1.1h-.32v-2.16h.3v.42Zm3.27,1.76c-.19,0-.37-.02-.55-.07-.17-.05-.31-.12-.4-.19l.14-.23c.1,.07,.22,.13,.37,.18,.15,.04,.3,.07,.46,.07,.21,0,.37-.03,.47-.09,.1-.06,.16-.15,.16-.26,0-.08-.03-.14-.08-.18-.06-.05-.13-.08-.21-.1-.09-.02-.2-.05-.34-.07-.19-.03-.34-.07-.46-.1-.12-.04-.21-.09-.3-.18-.08-.08-.12-.2-.12-.34,0-.18,.08-.33,.24-.44,.16-.11,.39-.17,.68-.17,.15,0,.3,.02,.45,.06,.15,.04,.28,.08,.37,.14l-.14,.23c-.19-.12-.42-.18-.69-.18-.2,0-.35,.03-.46,.1-.1,.07-.15,.15-.15,.26,0,.08,.03,.15,.08,.2,.06,.05,.13,.09,.22,.11,.09,.02,.2,.05,.36,.07,.19,.03,.34,.07,.45,.1,.11,.03,.21,.09,.29,.17,.08,.08,.12,.19,.12,.33,0,.19-.09,.34-.26,.45-.17,.11-.4,.16-.71,.16Zm1.55-2.18h.32v2.16h-.32v-2.16Zm.16-.47c-.07,0-.12-.02-.16-.06s-.07-.09-.07-.15,.02-.1,.07-.14,.1-.06,.16-.06,.12,.02,.16,.06c.04,.04,.07,.08,.07,.14,0,.06-.02,.11-.07,.15s-.1,.06-.16,.06Zm3.2,.47v1.89c0,.37-.1,.64-.29,.81-.19,.18-.48,.27-.88,.27-.22,0-.42-.03-.62-.09-.19-.06-.35-.14-.47-.24l.16-.22c.11,.09,.25,.17,.41,.22,.16,.05,.33,.08,.51,.08,.3,0,.51-.06,.65-.19,.14-.13,.21-.32,.21-.59v-.27c-.1,.14-.23,.24-.39,.31-.16,.07-.33,.11-.52,.11-.22,0-.42-.04-.6-.13-.18-.09-.32-.21-.42-.37-.1-.16-.15-.34-.15-.55s.05-.38,.15-.54c.1-.16,.24-.28,.42-.37s.38-.13,.6-.13c.2,0,.38,.04,.54,.11,.16,.07,.29,.18,.39,.32v-.41h.3Zm-1.2,1.82c.17,0,.32-.03,.46-.1,.14-.07,.24-.16,.32-.28,.08-.12,.12-.26,.12-.41s-.04-.29-.12-.41c-.07-.12-.18-.21-.32-.28-.13-.07-.29-.1-.46-.1s-.32,.03-.46,.1c-.13,.07-.24,.16-.32,.28-.07,.12-.11,.26-.11,.41s.04,.29,.11,.41c.08,.12,.18,.21,.32,.28,.14,.07,.29,.1,.46,.1Zm3.27-1.83c.29,0,.53,.08,.7,.24,.17,.16,.26,.38,.26,.68v1.25h-.32v-1.22c0-.22-.06-.4-.18-.51-.12-.12-.29-.18-.52-.18-.25,0-.45,.07-.6,.21-.15,.14-.22,.33-.22,.57v1.13h-.32v-2.16h.3v.4c.09-.13,.2-.23,.36-.3,.15-.07,.33-.11,.53-.11Zm5.09,.02v2.16h-.3v-.39c-.08,.13-.2,.23-.34,.31-.15,.07-.31,.11-.5,.11-.31,0-.55-.08-.72-.23-.17-.16-.26-.39-.26-.69v-1.25h.32v1.22c0,.23,.06,.4,.18,.52s.29,.18,.52,.18c.25,0,.44-.07,.58-.21,.14-.14,.21-.33,.21-.58v-1.13h.32Zm2.09-.02c.22,0,.42,.05,.6,.14,.18,.09,.32,.22,.42,.39,.1,.17,.15,.36,.15,.57s-.05,.41-.15,.57c-.1,.17-.24,.3-.42,.39-.17,.09-.37,.14-.6,.14-.19,0-.36-.04-.52-.11-.15-.07-.28-.18-.37-.32v1.2h-.32v-2.95h.3v.43c.09-.14,.22-.25,.37-.33,.16-.08,.33-.11,.53-.11Zm-.02,1.94c.16,0,.31-.03,.44-.1,.13-.07,.24-.17,.31-.3,.08-.13,.12-.27,.12-.44s-.04-.31-.12-.43c-.07-.13-.18-.23-.31-.3s-.28-.11-.44-.11-.32,.04-.45,.11c-.13,.07-.23,.17-.31,.3-.07,.13-.11,.27-.11,.43s.04,.31,.11,.44c.08,.13,.18,.23,.31,.3,.13,.07,.28,.1,.45,.1Zm4.22,.11c-.06,.05-.13,.09-.22,.11-.09,.02-.18,.04-.27,.04-.22,0-.39-.05-.51-.16s-.18-.26-.18-.46v-1.3h-.42v-.25h.42v-.47h.32v.47h.71v.25h-.71v1.29c0,.13,.03,.23,.1,.3,.07,.07,.17,.1,.3,.1,.07,0,.13,0,.19-.03,.06-.02,.12-.05,.16-.08l.11,.21Zm1.45,.15c-.23,0-.43-.05-.61-.14-.18-.1-.32-.23-.43-.39s-.16-.36-.16-.57,.05-.4,.16-.57,.25-.3,.43-.39,.38-.14,.61-.14,.43,.05,.61,.14,.32,.22,.42,.39c.1,.17,.16,.36,.16,.57s-.05,.4-.16,.57c-.1,.17-.24,.3-.42,.39-.18,.09-.38,.14-.61,.14Zm0-.26c.17,0,.31-.03,.44-.1,.13-.07,.24-.17,.31-.3,.07-.13,.11-.27,.11-.44s-.04-.31-.11-.44c-.07-.13-.18-.23-.31-.3-.13-.07-.28-.11-.44-.11s-.32,.04-.45,.11c-.13,.07-.23,.17-.31,.3-.07,.13-.11,.27-.11,.44s.04,.31,.11,.44c.08,.13,.18,.23,.31,.3,.13,.07,.28,.1,.45,.1Zm3.96,.26c-.23,0-.44-.05-.62-.14-.18-.09-.32-.22-.43-.39-.1-.17-.16-.36-.16-.57s.05-.4,.16-.57c.1-.17,.25-.3,.43-.39,.18-.09,.39-.14,.62-.14,.2,0,.38,.04,.54,.11,.16,.07,.29,.18,.38,.32l-.24,.15c-.08-.11-.17-.19-.29-.24-.12-.05-.25-.08-.39-.08-.17,0-.32,.04-.46,.11-.13,.07-.24,.17-.32,.3-.07,.13-.11,.27-.11,.44s.04,.31,.11,.44c.08,.13,.18,.22,.32,.3,.14,.07,.29,.1,.46,.1,.14,0,.27-.03,.39-.08,.12-.05,.22-.13,.29-.24l.24,.15c-.09,.14-.22,.25-.38,.32-.16,.07-.34,.11-.54,.11Zm2.45,0c-.23,0-.43-.05-.61-.14-.18-.1-.32-.23-.43-.39s-.16-.36-.16-.57,.05-.4,.16-.57,.25-.3,.43-.39,.38-.14,.61-.14,.43,.05,.61,.14,.32,.22,.42,.39c.1,.17,.16,.36,.16,.57s-.05,.4-.16,.57c-.1,.17-.24,.3-.42,.39-.18,.09-.38,.14-.61,.14Zm0-.26c.17,0,.31-.03,.44-.1,.13-.07,.24-.17,.31-.3,.07-.13,.11-.27,.11-.44s-.04-.31-.11-.44c-.07-.13-.18-.23-.31-.3-.13-.07-.28-.11-.44-.11s-.32,.04-.45,.11c-.13,.07-.23,.17-.31,.3-.07,.13-.11,.27-.11,.44s.04,.31,.11,.44c.08,.13,.18,.23,.31,.3,.13,.07,.28,.1,.45,.1Zm3.02-1.94c.29,0,.53,.08,.7,.24,.17,.16,.26,.38,.26,.68v1.25h-.32v-1.22c0-.22-.06-.4-.18-.51-.12-.12-.29-.18-.52-.18-.25,0-.45,.07-.6,.21-.15,.14-.22,.33-.22,.57v1.13h-.32v-2.16h.3v.4c.09-.13,.2-.23,.36-.3,.15-.07,.33-.11,.53-.11Zm3.05,2.04c-.06,.05-.13,.09-.22,.11-.09,.02-.18,.04-.27,.04-.22,0-.39-.05-.51-.16s-.18-.26-.18-.46v-1.3h-.42v-.25h.42v-.47h.32v.47h.71v.25h-.71v1.29c0,.13,.03,.23,.1,.3,.07,.07,.17,.1,.3,.1,.07,0,.13,0,.19-.03,.06-.02,.12-.05,.16-.08l.11,.21Zm.57-2.03h.32v2.16h-.32v-2.16Zm.16-.47c-.07,0-.12-.02-.16-.06s-.07-.09-.07-.15,.02-.1,.07-.14,.1-.06,.16-.06,.12,.02,.16,.06c.04,.04,.07,.08,.07,.14,0,.06-.02,.11-.07,.15s-.1,.06-.16,.06Zm2.22,.46c.29,0,.53,.08,.7,.24,.17,.16,.26,.38,.26,.68v1.25h-.32v-1.22c0-.22-.06-.4-.18-.51s-.29-.18-.52-.18c-.25,0-.45,.07-.6,.21-.15,.14-.22,.33-.22,.57v1.13h-.32v-2.16h.3v.4c.09-.13,.2-.23,.36-.3,.15-.07,.33-.11,.53-.11Zm3.92,.02v2.16h-.3v-.39c-.08,.13-.2,.23-.34,.31-.15,.07-.31,.11-.5,.11-.31,0-.55-.08-.72-.23-.17-.16-.26-.39-.26-.69v-1.25h.32v1.22c0,.23,.06,.4,.18,.52,.12,.12,.29,.18,.52,.18,.25,0,.44-.07,.58-.21,.14-.14,.21-.33,.21-.58v-1.13h.32Zm2.92,1.17h-1.96c.02,.22,.11,.41,.28,.55,.17,.14,.38,.21,.64,.21,.15,0,.28-.02,.4-.07,.12-.05,.23-.12,.32-.21l.18,.19c-.1,.11-.23,.2-.39,.26-.15,.06-.32,.09-.51,.09-.24,0-.45-.05-.64-.14-.18-.1-.33-.23-.43-.39-.1-.17-.16-.36-.16-.57s.05-.4,.15-.57c.1-.17,.24-.3,.41-.39,.17-.09,.37-.14,.59-.14s.41,.05,.58,.14c.17,.09,.31,.22,.4,.39,.1,.16,.15,.35,.15,.57v.09Zm-1.13-.93c-.23,0-.41,.07-.57,.2-.15,.13-.24,.3-.26,.52h1.66c-.02-.21-.11-.39-.26-.52-.15-.13-.34-.2-.57-.2Zm4.17,1.79c-.06,.05-.13,.09-.22,.11-.09,.02-.18,.04-.27,.04-.22,0-.39-.05-.51-.16-.12-.11-.18-.26-.18-.46v-1.3h-.42v-.25h.42v-.47h.32v.47h.71v.25h-.71v1.29c0,.13,.03,.23,.1,.3,.07,.07,.17,.1,.3,.1,.07,0,.13,0,.19-.03,.06-.02,.12-.05,.16-.08l.11,.21Zm1.45,.15c-.23,0-.43-.05-.61-.14-.18-.1-.32-.23-.43-.39-.1-.17-.16-.36-.16-.57s.05-.4,.16-.57c.1-.17,.25-.3,.43-.39,.18-.09,.38-.14,.61-.14s.43,.05,.61,.14c.18,.09,.32,.22,.42,.39,.1,.17,.16,.36,.16,.57s-.05,.4-.16,.57c-.1,.17-.24,.3-.42,.39-.18,.09-.38,.14-.61,.14Zm0-.26c.17,0,.31-.03,.44-.1,.13-.07,.24-.17,.31-.3,.07-.13,.11-.27,.11-.44s-.04-.31-.11-.44c-.07-.13-.18-.23-.31-.3-.13-.07-.28-.11-.44-.11s-.32,.04-.45,.11c-.13,.07-.23,.17-.31,.3-.07,.13-.11,.27-.11,.44s.04,.31,.11,.44c.08,.13,.18,.23,.31,.3,.13,.07,.28,.1,.45,.1Zm5.1-1.92v2.16h-.3v-.39c-.08,.13-.2,.23-.34,.31-.15,.07-.31,.11-.5,.11-.31,0-.55-.08-.72-.23-.17-.16-.26-.39-.26-.69v-1.25h.32v1.22c0,.23,.06,.4,.18,.52s.29,.18,.52,.18c.25,0,.44-.07,.58-.21,.14-.14,.21-.33,.21-.58v-1.13h.32Zm1.51,2.18c-.19,0-.37-.02-.55-.07-.17-.05-.31-.12-.4-.19l.14-.23c.1,.07,.22,.13,.37,.18,.15,.04,.3,.07,.46,.07,.21,0,.37-.03,.47-.09,.1-.06,.16-.15,.16-.26,0-.08-.03-.14-.08-.18-.06-.05-.13-.08-.21-.1-.09-.02-.2-.05-.34-.07-.19-.03-.34-.07-.46-.1-.12-.04-.21-.09-.3-.18-.08-.08-.12-.2-.12-.34,0-.18,.08-.33,.24-.44s.39-.17,.68-.17c.15,0,.3,.02,.45,.06,.15,.04,.28,.08,.37,.14l-.14,.23c-.19-.12-.42-.18-.69-.18-.2,0-.35,.03-.46,.1-.1,.07-.15,.15-.15,.26,0,.08,.03,.15,.08,.2,.06,.05,.13,.09,.22,.11,.09,.02,.2,.05,.36,.07,.19,.03,.34,.07,.45,.1s.21,.09,.29,.17c.08,.08,.12,.19,.12,.33,0,.19-.09,.34-.26,.45-.17,.11-.4,.16-.71,.16Zm3.58-1.01h-1.96c.02,.22,.11,.41,.28,.55,.17,.14,.38,.21,.64,.21,.15,0,.28-.02,.4-.07,.12-.05,.23-.12,.32-.21l.18,.19c-.1,.11-.23,.2-.39,.26-.15,.06-.32,.09-.51,.09-.24,0-.45-.05-.64-.14-.18-.1-.33-.23-.43-.39-.1-.17-.16-.36-.16-.57s.05-.4,.15-.57c.1-.17,.24-.3,.41-.39,.17-.09,.37-.14,.59-.14s.41,.05,.58,.14c.17,.09,.31,.22,.4,.39,.1,.16,.15,.35,.15,.57v.09Zm-1.13-.93c-.23,0-.41,.07-.57,.2-.15,.13-.24,.3-.26,.52h1.66c-.02-.21-.11-.39-.26-.52-.15-.13-.34-.2-.57-.2Zm3.89,1.94c-.23,0-.43-.05-.61-.14-.18-.1-.32-.23-.43-.39s-.16-.36-.16-.57,.05-.4,.16-.57,.25-.3,.43-.39,.38-.14,.61-.14,.43,.05,.61,.14,.32,.22,.42,.39c.1,.17,.16,.36,.16,.57s-.05,.4-.16,.57c-.1,.17-.24,.3-.42,.39-.18,.09-.38,.14-.61,.14Zm0-.26c.17,0,.31-.03,.44-.1,.13-.07,.24-.17,.31-.3,.07-.13,.11-.27,.11-.44s-.04-.31-.11-.44c-.07-.13-.18-.23-.31-.3-.13-.07-.28-.11-.44-.11s-.32,.04-.45,.11c-.13,.07-.23,.17-.31,.3-.07,.13-.11,.27-.11,.44s.04,.31,.11,.44c.08,.13,.18,.23,.31,.3,.13,.07,.28,.1,.45,.1Zm3.94-1.92v2.16h-.3v-.39c-.08,.13-.2,.23-.34,.31-.15,.07-.31,.11-.5,.11-.31,0-.55-.08-.72-.23-.17-.16-.26-.39-.26-.69v-1.25h.32v1.22c0,.23,.06,.4,.18,.52,.12,.12,.29,.18,.52,.18,.25,0,.44-.07,.58-.21,.14-.14,.21-.33,.21-.58v-1.13h.32Zm1.19,.42c.07-.14,.18-.25,.33-.33,.15-.07,.33-.11,.55-.11v.28h-.08c-.25,0-.44,.07-.58,.21-.14,.14-.21,.33-.21,.59v1.1h-.32v-2.16h.3v.42Zm-98.22,4.54c.31,0,.54,.07,.7,.21,.16,.14,.24,.35,.24,.62v1.34h-.3v-.34c-.07,.11-.18,.2-.32,.26-.14,.06-.3,.09-.49,.09-.26,0-.47-.06-.62-.17s-.23-.27-.23-.46,.07-.33,.21-.44c.15-.11,.37-.17,.69-.17h.74v-.13c0-.19-.06-.33-.17-.42-.11-.1-.28-.15-.49-.15-.15,0-.29,.02-.43,.07-.14,.04-.25,.11-.35,.18l-.14-.22c.12-.09,.26-.16,.43-.21,.17-.05,.34-.08,.52-.08Zm-.11,1.96c.18,0,.33-.04,.46-.11,.13-.08,.22-.19,.28-.33v-.35h-.73c-.4,0-.6,.13-.6,.39,0,.13,.05,.23,.16,.3,.1,.07,.25,.11,.44,.11Zm3.12-1.96c.22,0,.42,.05,.6,.14,.18,.09,.32,.22,.42,.39,.1,.17,.15,.36,.15,.57s-.05,.41-.15,.57c-.1,.17-.24,.3-.42,.39-.17,.09-.37,.14-.6,.14-.19,0-.36-.04-.52-.11-.15-.07-.28-.18-.37-.32v1.2h-.32v-2.95h.3v.43c.09-.14,.22-.25,.37-.33,.16-.08,.33-.11,.53-.11Zm-.02,1.94c.16,0,.31-.03,.44-.1,.13-.07,.24-.17,.31-.3,.08-.13,.12-.27,.12-.44s-.04-.31-.12-.43c-.07-.13-.18-.23-.31-.3-.13-.07-.28-.11-.44-.11s-.32,.04-.45,.11c-.13,.07-.23,.17-.31,.3-.07,.13-.11,.27-.11,.43s.04,.31,.11,.44c.08,.13,.18,.23,.31,.3,.13,.07,.28,.1,.45,.1Zm3.03-1.94c.22,0,.42,.05,.6,.14,.18,.09,.32,.22,.42,.39s.15,.36,.15,.57-.05,.41-.15,.57-.24,.3-.42,.39c-.17,.09-.37,.14-.6,.14-.19,0-.36-.04-.52-.11-.15-.07-.28-.18-.37-.32v1.2h-.32v-2.95h.3v.43c.09-.14,.22-.25,.37-.33,.16-.08,.33-.11,.53-.11Zm-.02,1.94c.16,0,.31-.03,.44-.1,.13-.07,.24-.17,.31-.3,.08-.13,.12-.27,.12-.44s-.04-.31-.12-.43c-.07-.13-.18-.23-.31-.3-.13-.07-.28-.11-.44-.11s-.32,.04-.45,.11c-.13,.07-.23,.17-.31,.3-.07,.13-.11,.27-.11,.43s.04,.31,.11,.44c.08,.13,.18,.23,.31,.3,.13,.07,.28,.1,.45,.1Z"/><path d="M155.75,254.82v3.69h-.93v-1.51h-1.82v1.51h-.93v-3.69h.93v1.46h1.82v-1.46h.93Zm2.12,.81c.48,0,.84,.11,1.1,.32,.26,.21,.38,.52,.38,.94v1.62h-.83v-.35c-.17,.26-.48,.4-.94,.4-.24,0-.44-.04-.62-.11-.17-.07-.3-.18-.39-.31-.09-.13-.14-.28-.14-.44,0-.26,.11-.47,.32-.62,.22-.15,.55-.23,1-.23h.71c0-.18-.06-.32-.18-.41-.12-.1-.3-.15-.53-.15-.16,0-.33,.02-.49,.07-.16,.05-.29,.11-.4,.19l-.32-.57c.17-.11,.37-.19,.6-.25,.24-.06,.48-.09,.73-.09Zm-.07,2.37c.15,0,.29-.03,.41-.09,.12-.07,.2-.16,.25-.29v-.29h-.61c-.37,0-.55,.11-.55,.33,0,.11,.04,.19,.13,.25,.09,.06,.22,.09,.37,.09Zm5.35-2.33l-1.3,2.84h-.92l-1.29-2.84h.92l.85,1.93,.88-1.93h.86Zm3.29,1.43s0,.08-.02,.22h-2.33c.04,.18,.14,.31,.3,.42,.16,.1,.35,.15,.58,.15,.16,0,.3-.02,.42-.06,.13-.05,.24-.12,.35-.21l.47,.47c-.29,.31-.71,.46-1.27,.46-.35,0-.65-.06-.92-.18-.27-.13-.47-.3-.62-.52s-.22-.47-.22-.75,.07-.53,.21-.75c.14-.22,.34-.4,.59-.52,.25-.13,.53-.19,.84-.19s.57,.06,.82,.18,.43,.29,.57,.52c.14,.22,.21,.48,.21,.78Zm-1.59-.85c-.2,0-.37,.05-.51,.16s-.22,.25-.25,.43h1.51c-.03-.18-.11-.32-.25-.43-.14-.11-.3-.16-.5-.16Zm5.04-.62c.48,0,.84,.11,1.1,.32,.26,.21,.38,.52,.38,.94v1.62h-.83v-.35c-.17,.26-.48,.4-.94,.4-.24,0-.44-.04-.62-.11-.17-.07-.3-.18-.39-.31-.09-.13-.14-.28-.14-.44,0-.26,.11-.47,.32-.62,.22-.15,.55-.23,1-.23h.71c0-.18-.06-.32-.18-.41-.12-.1-.3-.15-.53-.15-.16,0-.33,.02-.49,.07-.16,.05-.29,.11-.4,.19l-.32-.57c.17-.11,.37-.19,.6-.25,.24-.06,.48-.09,.73-.09Zm-.07,2.37c.15,0,.29-.03,.41-.09,.12-.07,.2-.16,.25-.29v-.29h-.61c-.37,0-.55,.11-.55,.33,0,.11,.04,.19,.13,.25,.09,.06,.22,.09,.37,.09Zm4.22-2.37c.38,0,.69,.11,.92,.32,.24,.21,.35,.52,.35,.94v1.62h-.89v-1.5c0-.22-.05-.39-.16-.5-.11-.11-.26-.17-.46-.17-.22,0-.4,.07-.54,.2-.13,.13-.2,.32-.2,.57v1.4h-.89v-2.84h.85v.33c.12-.12,.26-.21,.44-.27,.18-.07,.37-.1,.58-.1Zm4.94,0c.48,0,.84,.11,1.1,.32,.26,.21,.38,.52,.38,.94v1.62h-.83v-.35c-.17,.26-.48,.4-.94,.4-.24,0-.44-.04-.62-.11-.17-.07-.3-.18-.39-.31-.09-.13-.14-.28-.14-.44,0-.26,.11-.47,.32-.62,.22-.15,.55-.23,1-.23h.71c0-.18-.06-.32-.18-.41-.12-.1-.3-.15-.53-.15-.16,0-.33,.02-.49,.07-.16,.05-.29,.11-.4,.19l-.32-.57c.17-.11,.37-.19,.6-.25,.24-.06,.48-.09,.73-.09Zm-.07,2.37c.15,0,.29-.03,.41-.09,.12-.07,.2-.16,.25-.29v-.29h-.61c-.37,0-.55,.11-.55,.33,0,.11,.04,.19,.13,.25,.09,.06,.22,.09,.37,.09Zm3.87,.55c-.33,0-.62-.06-.89-.18-.26-.13-.46-.3-.61-.52-.14-.22-.22-.47-.22-.75s.07-.53,.22-.75c.15-.22,.35-.39,.61-.52,.26-.13,.56-.19,.89-.19s.61,.06,.85,.19c.24,.12,.42,.3,.53,.53l-.69,.34c-.16-.26-.39-.39-.69-.39-.23,0-.42,.07-.58,.21-.15,.14-.23,.33-.23,.57s.08,.43,.23,.57c.15,.14,.34,.21,.58,.21,.3,0,.54-.13,.69-.39l.69,.35c-.11,.22-.29,.4-.53,.53-.24,.13-.52,.19-.85,.19Zm3.34,0c-.33,0-.62-.06-.89-.18-.26-.13-.46-.3-.61-.52-.14-.22-.22-.47-.22-.75s.07-.53,.22-.75c.15-.22,.35-.39,.61-.52,.26-.13,.56-.19,.89-.19s.61,.06,.85,.19c.24,.12,.42,.3,.53,.53l-.69,.34c-.16-.26-.39-.39-.69-.39-.23,0-.42,.07-.58,.21-.15,.14-.23,.33-.23,.57s.08,.43,.23,.57c.15,.14,.34,.21,.58,.21,.3,0,.54-.13,.69-.39l.69,.35c-.11,.22-.29,.4-.53,.53-.24,.13-.52,.19-.85,.19Zm3.31,0c-.32,0-.62-.06-.87-.18-.26-.13-.46-.3-.6-.52s-.22-.47-.22-.75,.07-.53,.22-.75c.14-.22,.34-.39,.6-.52,.26-.13,.55-.19,.87-.19s.61,.06,.87,.19c.26,.12,.46,.3,.6,.52,.14,.22,.22,.47,.22,.75s-.07,.53-.22,.75c-.14,.22-.34,.4-.6,.52-.26,.12-.54,.18-.87,.18Zm0-.67c.23,0,.42-.07,.56-.21,.15-.14,.22-.34,.22-.57s-.07-.43-.22-.57c-.14-.14-.33-.22-.56-.22s-.42,.07-.57,.22c-.15,.14-.22,.33-.22,.57s.07,.43,.22,.57c.15,.14,.34,.21,.57,.21Zm5.38-2.2v2.84h-.85v-.34c-.12,.12-.26,.22-.42,.28-.16,.06-.34,.09-.53,.09-.4,0-.72-.11-.96-.32-.24-.21-.35-.53-.35-.95v-1.6h.89v1.48c0,.46,.21,.69,.62,.69,.21,0,.38-.06,.51-.19,.13-.13,.19-.32,.19-.57v-1.4h.89Zm2.69-.04c.38,0,.69,.11,.92,.32,.24,.21,.35,.52,.35,.94v1.62h-.89v-1.5c0-.22-.05-.39-.16-.5-.11-.11-.26-.17-.46-.17-.22,0-.4,.07-.54,.2-.13,.13-.2,.32-.2,.57v1.4h-.89v-2.84h.85v.33c.12-.12,.26-.21,.44-.27,.18-.07,.37-.1,.58-.1Zm4.06,2.74c-.09,.06-.2,.11-.33,.14-.13,.03-.26,.04-.4,.04-.37,0-.65-.09-.85-.26-.2-.17-.3-.43-.3-.76v-1.17h-.47v-.63h.47v-.69h.89v.69h.77v.63h-.77v1.15c0,.12,.03,.21,.1,.28,.07,.06,.16,.09,.29,.09,.14,0,.26-.04,.36-.11l.24,.58Zm1.25-1.14c0-.18,.04-.33,.13-.45,.09-.12,.22-.25,.39-.4,.13-.11,.22-.19,.27-.26,.06-.07,.09-.16,.09-.25,0-.13-.06-.23-.17-.31-.11-.08-.26-.12-.45-.12s-.34,.04-.48,.11c-.14,.07-.25,.16-.35,.28l-.69-.37c.16-.22,.38-.4,.65-.52,.27-.12,.6-.18,.97-.18,.44,0,.79,.09,1.05,.26,.27,.17,.4,.41,.4,.72,0,.14-.03,.27-.08,.38-.05,.11-.11,.2-.19,.28-.07,.07-.17,.16-.29,.26-.14,.12-.24,.21-.31,.3-.06,.08-.1,.17-.1,.28h-.86Zm.43,1.32c-.16,0-.29-.05-.39-.14-.1-.09-.15-.21-.15-.34s.05-.24,.15-.33c.1-.09,.23-.14,.39-.14s.29,.05,.39,.14c.1,.09,.15,.2,.15,.33s-.05,.25-.16,.34c-.1,.09-.23,.14-.39,.14Z"/><path class="cls-30" d="M208.89,254.82h.93v2.99h2.01v.7h-2.93v-3.69Zm4.83,3.73c-.32,0-.62-.06-.87-.18-.26-.13-.46-.3-.6-.52-.14-.22-.22-.47-.22-.75s.07-.53,.22-.75c.14-.22,.34-.39,.6-.52,.26-.13,.55-.19,.87-.19s.61,.06,.87,.19c.26,.12,.46,.3,.6,.52,.14,.22,.22,.47,.22,.75s-.07,.53-.22,.75c-.14,.22-.34,.4-.6,.52-.26,.12-.54,.18-.87,.18Zm0-.67c.23,0,.42-.07,.56-.21,.15-.14,.22-.34,.22-.57s-.07-.43-.22-.57c-.14-.14-.33-.22-.56-.22s-.42,.07-.57,.22c-.15,.14-.22,.33-.22,.57s.07,.43,.22,.57c.15,.14,.34,.21,.57,.21Zm5.45-2.2v2.36c0,.52-.15,.91-.44,1.16-.29,.25-.72,.38-1.29,.38-.3,0-.58-.03-.85-.1-.27-.07-.49-.16-.66-.29l.35-.59c.13,.1,.29,.18,.49,.23,.2,.06,.4,.09,.59,.09,.31,0,.54-.07,.68-.2,.15-.13,.22-.32,.22-.58v-.12c-.23,.24-.56,.35-.97,.35-.28,0-.54-.06-.78-.17-.23-.12-.42-.28-.55-.49-.14-.21-.21-.45-.21-.72s.07-.51,.21-.72c.14-.21,.32-.37,.55-.48,.24-.12,.5-.17,.78-.17,.45,0,.78,.14,1.02,.41v-.36h.85Zm-1.69,2.02c.24,0,.43-.06,.58-.19,.15-.13,.23-.3,.23-.51s-.08-.37-.23-.5c-.15-.13-.34-.2-.58-.2s-.43,.07-.58,.2c-.15,.13-.23,.29-.23,.5s.08,.38,.23,.51c.15,.13,.35,.19,.58,.19Zm2.51-2.02h.89v2.84h-.89v-2.84Zm.45-.4c-.16,0-.3-.04-.4-.13-.1-.09-.15-.2-.15-.33s.05-.24,.15-.33c.1-.09,.24-.13,.4-.13s.3,.04,.4,.13c.1,.08,.15,.19,.15,.32,0,.14-.05,.25-.15,.34-.1,.09-.24,.13-.4,.13Zm3.14,.35c.38,0,.69,.11,.92,.32,.24,.21,.35,.52,.35,.94v1.62h-.89v-1.5c0-.22-.05-.39-.16-.5-.11-.11-.26-.17-.46-.17-.22,0-.4,.07-.54,.2-.13,.13-.2,.32-.2,.57v1.4h-.89v-2.84h.85v.33c.12-.12,.26-.21,.44-.27,.18-.07,.37-.1,.58-.1Zm2.42,2.92c-.16,0-.29-.05-.39-.15s-.16-.22-.16-.37,.05-.27,.16-.36c.11-.09,.24-.14,.39-.14s.29,.05,.39,.14c.11,.09,.16,.21,.16,.36s-.05,.27-.16,.37-.24,.15-.39,.15Z"/><g class="cls-31"><path class="cls-22" d="M138.15,198.37c10.26-26.06,56.69-37.64,70.67-31.12,13.98,6.52,12.61,16.35,30.03,15.3,17.41-1.05,21.87-17.33,41.25-12.84,19.38,4.49,26.26,28.41,26.26,28.41"/><path class="cls-14" d="M158.97,139.67v58.14"/><path class="cls-14" d="M175.32,146.23v.34c0,1-.49,1.96-1.37,2.67-.88,.71-2.07,1.11-3.32,1.11h-2.87c-.61,0-1.2,.2-1.64,.55-.43,.35-.68,.82-.68,1.32"/><path class="cls-14" d="M170.63,150.35h9.23c.69,0,1.37-.13,1.99-.38,.62-.25,1.15-.62,1.55-1.07"/><path class="cls-14" d="M154.78,139.67v7.97c0,1.07,.26,2.12,.77,3.11,.51,.99,1.25,1.88,2.19,2.64h0c.39,.32,.71,.69,.92,1.11,.21,.41,.32,.86,.32,1.31"/><path class="cls-14" d="M165.46,146.23v5.28c0,1.38-.35,2.74-1.04,4.01s-1.69,2.4-2.94,3.34l-.14,.11c-.75,.56-1.34,1.23-1.75,1.98-.41,.75-.62,1.56-.62,2.38"/><path class="cls-14" d="M149.15,143.35v14.69c0,2.2,.57,4.37,1.68,6.38,1.11,2.01,2.72,3.81,4.74,5.29h0c1.07,.78,1.93,1.74,2.52,2.81s.89,2.22,.89,3.39"/><path class="cls-14" d="M139.44,139.62c0,3.61,2.86,5.86,6.38,5.86h3.32"/><path class="cls-14" d="M146.21,155.03v3.77c0,.72,.35,1.41,.99,1.92,.63,.51,1.49,.79,2.38,.79h.05"/><path class="cls-14" d="M146.78,160.3h-4.64c-1.86,0-3.65-.6-4.97-1.66-1.32-1.06-2.06-2.5-2.06-4.01"/><path class="cls-14" d="M168.77,167.94v1.85c0,2.74-1.35,5.37-3.76,7.31l-3.67,2.95c-1.52,1.22-2.37,2.88-2.37,4.61"/><path class="cls-14" d="M172.55,167.35c0,.77-.38,1.51-1.06,2.06-.68,.55-1.6,.85-2.55,.85h-.17"/><path class="cls-26" d="M170.52,167.38h7.96s1.65-.97,.25-2.08c-.91-.72-2.37-.27-2.37-.27,0,0,1.56-4.12-3.31-4.55-4.87-.43-5.8,2.84-5.05,4.25,.75,1.41-9.57-1.93-10.8,2.03-.09,.3,3.28,.68,6.49,.28,0,0,1.03,2.59,4.65,2.1,2.54-.34,2.18-1.76,2.18-1.76Z"/><path class="cls-26" d="M136.32,154.82h-9.23s-.19-3.76,12.92-2.4c0,0,.37-3.73,7.39-3.54,7.02,.19,6.93,6.06,6.65,6.19-.28,.14-6.41,0-6.41,0,0,0-.71,2.86-6.49,2.86-3.77,0-4.83-3.11-4.83-3.11Z"/><path class="cls-26" d="M179.28,146.27h-15.91c-1.43,0-2.54-1.06-2.24-2.19,.16-.62,.72-1.19,2.09-1.43,2.94-.53,4.63,.3,4.63,.3,0,0-2.67-5.83,6.32-5.84,8.33,0,7.43,4.41,7.3,5.13-.2,1.16,5.75-1.21,9.11,1.81,3.36,3.02-2.61,5.91-6.07,5.22-3.46-.69-5.24-2.99-5.24-2.99Z"/><path class="cls-26" d="M154.18,139.75h12.78s1.18-1.69-1.27-2.52c-2.46-.83-7.83,.1-7.83,.1,0,0,.36-6.21-6.88-5.77-6.57,.4-6.17,4.69-6.17,4.69,0,0-6.5-1.33-11.86,1.94-.92,.56-.49,1.4,.66,1.4,1.52,0,6.97,.05,6.97,.05,0,0,1.54,4.32,8.43,3.78,4.84-.38,5.17-3.67,5.17-3.67Z"/><path class="cls-13" d="M170.02,140.11c.32,0,.58-.21,.58-.47s-.26-.47-.58-.47-.58,.21-.58,.47,.26,.47,.58,.47Z"/><path class="cls-11" d="M143.22,135.26c.31,0,.56-.2,.56-.45s-.25-.45-.56-.45-.56,.2-.56,.45,.25,.45,.56,.45Z"/><path class="cls-11" d="M166.11,163.88c.32,0,.58-.21,.58-.47s-.26-.47-.58-.47-.58,.21-.58,.47,.26,.47,.58,.47Z"/><path class="cls-13" d="M148.35,135.26c.62,0,1.12-.4,1.12-.9s-.5-.9-1.12-.9-1.12,.4-1.12,.9,.5,.9,1.12,.9Z"/><path class="cls-13" d="M182.65,145.15c.62,0,1.12-.4,1.12-.9s-.5-.9-1.12-.9-1.12,.4-1.12,.9,.5,.9,1.12,.9Z"/><path class="cls-13" d="M151.72,153.85c.46,0,.84-.3,.84-.68s-.38-.68-.84-.68-.84,.3-.84,.68,.38,.68,.84,.68Z"/><path class="cls-13" d="M166.11,168.22c.46,0,.84-.3,.84-.68s-.38-.68-.84-.68-.84,.3-.84,.68,.38,.68,.84,.68Z"/><path class="cls-13" d="M151.27,133.51c.22,0,.39-.14,.39-.32s-.18-.32-.39-.32-.39,.14-.39,.32,.18,.32,.39,.32Z"/><path class="cls-13" d="M180.29,142.27c.22,0,.4-.15,.4-.33s-.18-.33-.4-.33-.4,.15-.4,.33,.18,.33,.4,.33Z"/><path class="cls-13" d="M149.15,153.72c.22,0,.4-.15,.4-.33s-.18-.33-.4-.33-.4,.15-.4,.33,.18,.33,.4,.33Z"/><path class="cls-22" d="M185.86,198.3c3.57,0,35.71,.77,29.91,7.28-5.8,6.51-79.21,5.5-79.21,5.5v5.27h178.19l-2.21-2.43s-52.63-2.7-44.1-10.04c5.58-4.8-31.24-5.67-40.84-5.67-9.6,0-41.73,.09-41.73,.09Z"/><path class="cls-8" d="M191.11,202.24c2.83,0,5.13-.31,5.13-.7s-2.3-.7-5.13-.7-5.13,.31-5.13,.7,2.3,.7,5.13,.7Z"/><path class="cls-8" d="M199.98,204c1.08,0,1.95-.18,1.95-.4s-.87-.4-1.95-.4-1.95,.18-1.95,.4,.87,.4,1.95,.4Z"/><path class="cls-23" d="M262.43,147.7c4.42,0,8-2.89,8-6.44s-3.58-6.44-8-6.44-8,2.89-8,6.44,3.58,6.44,8,6.44Z"/><path class="cls-5" d="M213.13,157.64h-31.67s.37-2.56,5.07-1.71c6.32,1.14,9.07,.37,8.73-1.27-.44-2.12,2.37-4.7,7.67-3.76,5.31,.94,4.61,3.68,4.61,3.68,0,0,6.01-.77,5.59,3.06Z"/><path class="cls-8" d="M186.95,159.16h15.6"/><path class="cls-5" d="M233.48,143.23h29.16s-.36-2.54-5.03-1.69c-6.27,1.13-6.72,0-6.38-1.63,.44-2.1-2.35-5.03-7.62-4.1-5.27,.93-4.12,5.86-4.12,5.86,0,0-5.15-.98-6,1.56Z"/><path class="cls-8" d="M247.47,144.46h15.6"/><path class="cls-44" d="M329.2,198.12s-.11-7.48-9.91-7.12c0,0-3.18-16.49-21.31-18.17-22.05-2.04-26.36,17.62-26.36,17.62,0,0-20.9-5.03-23.58,7.68h81.16Z"/><path class="cls-12" d="M329.2,198.12s-.11-7.48-9.91-7.12c0,0-3.18-16.49-21.31-18.17-22.05-2.04-26.36,17.62-26.36,17.62,0,0-20.9-5.03-23.58,7.68h81.16Z"/><path class="cls-12" d="M264.43,189.5s3.74,1.42,2.46,8.62"/><path class="cls-12" d="M257.68,189.96s2.97,4.05,8.32,.94"/><path class="cls-12" d="M260.3,198.12s-1.84-1.48-5.08-1.21c-3.24,.27-3.63,1.21-3.63,1.21"/><path class="cls-12" d="M265.79,198.12s-.86-3.3-5.21-2.84c-4.35,.46-4.46,2.84-4.46,2.84"/><path class="cls-44" d="M133.79,216.36h44.86c.22-6.32-9.15-5.9-9.15-5.9,0,0-.15-8.08-13.61-9.95-5.62-.78-24.33-.01-22.1,15.85Z"/><path class="cls-12" d="M133.79,216.36h44.86c.22-6.32-9.15-5.9-9.15-5.9,0,0-.15-8.08-13.61-9.95-5.62-.78-24.33-.01-22.1,15.85Z"/><path class="cls-12" d="M154.51,200.37s-4.52,7.4-.5,15.99"/><path class="cls-12" d="M150.88,200.35s-.73,4.11,1.62,6.26"/><path class="cls-12" d="M159.05,201.11s-1.9,6.09-6.65,9.18"/><path class="cls-12" d="M162.69,202.35s-3.72,3.74-6.34,4.02"/><path class="cls-12" d="M144.32,201.37s1.14,7.42,8.17,9.9"/><path class="cls-12" d="M135.54,207.03s5.11-3.89,11.34,0"/><path class="cls-12" d="M153.36,214.79c0-5.2,13.3-5.71,13.36-9.76"/><path class="cls-12" d="M164.24,203.16s-2.03,1.51-.44,4.79"/><path class="cls-12" d="M169.5,210.45c-1.16,.06-7.18,1.95-7.29,5.9"/><path class="cls-12" d="M171.47,216.36c-.5-.68-4.16-6.91-13.82-5.9"/><path class="cls-12" d="M172.61,210.68s.05,3.07-3.11,3.32"/><path class="cls-12" d="M161.43,210.45s-1.1,1.59,1.26,4.13"/><path class="cls-12" d="M156.35,216.36s0-1.6,1.79-1.57c1.79,.04,1.91,1.57,1.91,1.57"/><path class="cls-12" d="M150.78,216.36s-1.79-5.32-8.21-5.09c-6.42,.23-7.03,5.09-7.03,5.09"/><path class="cls-12" d="M149.21,216.36s-.84-2.44-4.18-2.55c-3.34-.1-3.35,2.55-3.35,2.55"/><path class="cls-12" d="M142.87,205.45s-1.36,3.69,1.65,5.93"/><path class="cls-12" d="M147.18,200.74s1.23,2.74-1.98,3.46"/><path class="cls-12" d="M177.55,213.02s-2.56,.15-1.61,3.34"/><path class="cls-26" d="M146.88,198.39s6.03-1.38,10.56-4.73c3.88-2.87,6.99-6.35,11.9-6.29,4.91,.06,5.51,4.14,5.51,4.14,0,0,2.31-3.42,8.78-2.1,6.47,1.32,2.68,5.41,5.65,5.54,2.97,.13,11.75-3.62,11.75,3.45h-54.16Z"/><path class="cls-13" d="M175.31,198.55c10.05-7.41,8.47-14.29,8.47-14.29-10.83,4.41-9.03,14.16-9.03,14.16"/><path class="cls-13" d="M175.88,198.42s1.5-5.48-4.86-7.19c-6.36-1.71,3.35,7.19,3.35,7.19"/><path class="cls-11" d="M190.65,193.21c.45,0,.81-.29,.81-.65s-.36-.65-.81-.65-.81,.29-.81,.65,.36,.65,.81,.65Z"/><path class="cls-29" d="M132.3,198.42s-7.63-1.69-6.06-4.52c.93-1.68,6.69,2.91,6.69,2.91,0,0-5.28-4.49-4.43-12.73,0,0,6.33,3.62,8.59,9.5,0,0,1.26-8.6,5.77-11.6,0,0,1.08,1.98-.3,8.45,0,0,4.54-4.14,7.44-5.24,0,0-1.82,6.02-4.39,8.84,0,0,3.01-1.23,4.39,.66s-3.12,3.63-3.12,3.63l-14.58,.12Z"/><path class="cls-10" d="M142.81,182.2s-3.43,14.43-4.66,16.13"/><path class="cls-10" d="M149.67,185.49s-7.03,10.29-10.64,12.79"/><path class="cls-10" d="M149.77,194.4s-4.52,3.28-7.76,3.9"/><path class="cls-10" d="M132.3,198.28h14.58"/><path class="cls-26" d="M265.3,216.36s.21-7.21,8.09-7.24c5.58-.02,7.14,2.11,7.14,2.11,0,0-5.47-7.37,4.63-9.03,10.1-1.67,12.44,8.23,16.97,9.21,4.57,.99,15.46-2.76,12.66,4.94h-49.49Z"/></g><path class="cls-24" d="M219.23,140h-12.78c-.88,0-1.6,.66-1.6,1.48v24.46c0,.81,.72,1.48,1.6,1.48h12.78c.88,0,1.6-.66,1.6-1.48v-24.46c0-.81-.72-1.48-1.6-1.48Z"/><path class="cls-27" d="M206.22,212.23v3.2h-9.4v-1.35l5.83-2.47,3.58,.63Z"/><path class="cls-27" d="M226.62,209.17c.48,.98,1.6,3.53,1.6,3.53l-4.69,2.72h-4.25l-.5-1.5,5.34-3.77,2.5-.98Z"/><path class="cls-37" d="M210.37,139.39c2.19,0,3.97-2.07,3.97-4.61s-1.78-4.61-3.97-4.61-3.97,2.07-3.97,4.61,1.78,4.61,3.97,4.61Z"/><path class="cls-37" d="M207.48,126.53c-.52-.66-1.99-.51-3.28,.35-.49,.32-.9,.72-1.22,1.19-.04-.02-.09-.03-.13-.03-.63,0-11.03,5.14-10.94,7.51,.1,2.37,3.59,6.17,4.81,6.9,0,0,5.5-2.37,5.2-3.13-.3-.76-3.46-3.2-4.02-3.68,.65-.31,5.88-5.09,6.47-5.63,.62-.12,1.2-.37,1.71-.71,1.29-.86,1.91-2.09,1.39-2.76Z"/><path class="cls-28" d="M204.49,146.61c1.2-.89-.79-8.35-2.91-8.54-2.13-.18-5.84,3.52-5.69,4.57,.15,1.05,5.57,6.21,8.6,3.97Z"/><path class="cls-43" d="M199.73,164.47c0,1.23,.67,43.76,1.86,47.45,1.07,.49,3.86,.61,4.8,.25,.93-.37,6.88-47.02,6.88-49.07s-13.54,1.37-13.54,1.37Z"/><path class="cls-33" d="M223.62,210.6c-1.27-1.84-17.84-37.65-19.14-46.48,1.36-.97,11.48-2.52,12.3-.76,.82,1.77,10.66,45.41,10.32,45.98-.34,.57-2.53,1.45-3.48,1.26Z"/><path class="cls-34" d="M210.42,140.75c8.59,0,8.06,21.94,6.19,23.3-1.86,1.35-16.45,1.41-17.38,.43-.93-.98-3.14-23.73,11.19-23.73Z"/><path class="cls-24" d="M216.67,133.21c0-.94-.97-1.61-.97-2.13s.33-1.45-.41-2.11c-.9-.81-2.34-.47-3.63-.47-1.21,0-1.88-1.3-3.53-1.3-1.1,0-.96,1.32-1.37,1.64-.31,.25-2.68,.72-2.68,1.72,0,1.12,.03,2.63,2.55,2.63,.17-.54,.8-1.72,1.52-2.25,.37,.15,2.4,.92,2.9,1.06s1.24,2.12,2.01,2.36c.78,.24,.83,1.56,1.4,1.5,.57-.06,2.2-.28,2.2-2.66Z"/><path class="cls-37" d="M213.78,136.11c.58,0,1.05-.43,1.05-.97s-.47-.97-1.05-.97-1.05,.43-1.05,.97,.47,.97,1.05,.97Z"/><path class="cls-37" d="M212.35,142.47c-.17,.53-3.69-.11-3.62-.72l.6-5.37,4.25,.84s-1.05,4.72-1.22,5.25Z"/><path class="cls-9" d="M236.35,145.35l-14.9,68.16"/><path class="cls-37" d="M233.96,164.16c-.4-.37-.91-.62-1.47-.71-1.78-2.65-7.82-10.8-10.48-13.77-1.92,1.27-4.26,3.5-4.26,3.5,.98,1.01,8.31,9.02,12.21,12.16,0,.33,.07,.65,.2,.96,.14,.3,.34,.58,.59,.81,.99,.91,2.5,.99,3.38,.18,.88-.81,.8-2.21-.19-3.13Z"/><path class="cls-36" d="M213.8,144.34c3.45-2.36,9.13,3.35,9.03,4.86-.09,1.5-4.46,4.84-5.95,4.84-1.82,0-6.01-7.68-3.08-9.7Z"/></g></g></g><g><path d="M256.5,29.9h-.07c-.22-.01-.45-.02-.68-.02h-102.16c-.23,0-.46,0-.69,.01h-.1c-7.38,.4-13.16,6.16-13.16,13.14v231c0,6.82,5.64,12.58,12.85,13.12,.11,0,.22,.02,.34,.02h.04c.24,.01,.48,.02,.73,.02h102.16c.24,0,.48,0,.72-.02h.04c.12,0,.24-.01,.35-.02,7.2-.53,12.84-6.3,12.84-13.11V43.04c0-7-5.8-12.77-13.21-13.14Zm9.49,244.14c0,5-4.13,9.23-9.41,9.62-.05,0-.1,0-.15,0h-.16c-.17,.01-.35,.02-.52,.02h-102.16c-.18,0-.36,0-.53-.01h-.14s-.09-.01-.14-.02c-5.28-.39-9.42-4.62-9.42-9.62V43.04c0-5.08,4.19-9.29,9.55-9.63h.23c.16-.02,.31-.02,.45-.02h102.16c.14,0,.29,0,.46,0h.09c5.43,.27,9.69,4.51,9.69,9.64v231Z"/><path d="M239.42,33.39v1.26c0,4.24-3.65,7.68-8.14,7.68h-53.17c-4.5,0-8.14-3.44-8.14-7.68v-1.26h69.46Z"/></g></g><rect class="cls-39" x="196.1" y="34.43" width="16.3" height="1.61" rx=".68" ry=".68"/></g><path class="cls-16" d="M256.24,33.41h-.24c-.17-.02-.32-.02-.46-.02h-15.04c-.86,.04-1.56,.67-1.64,1.47,0,.05,0,.11,0,.17v.02c-.21,4.16-3.85,7.47-8.3,7.47h-54.27c-4.46,0-8.1-3.31-8.3-7.47v-.02c0-.06,0-.11,0-.17-.09-.8-.78-1.43-1.64-1.47h-15.04c-.14,0-.29,0-.46,0h-.24c-5.48,.35-9.75,4.65-9.75,9.84v235.78c0,5.1,4.22,9.42,9.61,9.81,.05,0,.1,0,.14,.01h.15c.18,.01,.36,.02,.54,.02h104.26c.18,0,.36,0,.54-.01h.15s.09-.01,.14-.02c5.39-.4,9.61-4.71,9.61-9.81V43.24c0-5.19-4.28-9.49-9.75-9.82Z"/></g><path class="cls-21" d="M252.17,36.61c-.53-.42-1.2-.65-1.9-.65s-1.38,.23-1.91,.65l-.05,.04s-.04,.08,0,.11l.31,.29s.08,.03,.11,0l.04-.03c.42-.33,.94-.5,1.49-.5s1.07,.18,1.49,.5l.04,.03s.08,.02,.11,0l.31-.29s.03-.08,0-.11l-.05-.04Zm-1.9,.24c.44,0,.87,.14,1.21,.39l.05,.04s.04,.08,0,.11l-.31,.29s-.08,.03-.11,0l-.04-.03c-.23-.16-.52-.25-.81-.25s-.58,.09-.81,.25l-.04,.03s-.08,.02-.11,0l-.31-.29s-.03-.09,0-.11l.05-.04c.35-.25,.77-.39,1.22-.39Zm0,.89c.18,0,.35,.04,.5,.13l.06,.03s.05,.08,.02,.12l-.53,.49s-.08,.03-.12,0l-.52-.48s-.03-.09,.02-.12l.06-.03c.15-.08,.33-.13,.51-.13Z"/><path class="cls-19" d="M254.56,36.09h5.28c.38,0,.69,.29,.69,.64v1.67c0,.35-.31,.64-.69,.64h-5.28c-.38,0-.69-.29-.69-.64v-1.67c0-.35,.31-.64,.69-.64Zm0,.26c-.23,0-.42,.17-.42,.39v1.67c0,.21,.19,.39,.42,.39h5.28c.23,0,.42-.17,.42-.39v-1.67c0-.21-.19-.39-.42-.39h-5.28Z"/><path class="cls-20" d="M260.82,36.93c.25,.12,.42,.35,.42,.63s-.17,.51-.42,.63v-1.26Z"/><path class="cls-21" d="M254.7,36.6h5c.15,0,.28,.11,.28,.26v1.41c0,.14-.12,.26-.28,.26h-5c-.15,0-.28-.11-.28-.26v-1.41c0-.14,.12-.26,.28-.26Z"/><path class="cls-21" d="M245.44,35.96h.28c.15,0,.28,.11,.28,.26v2.05c0,.14-.12,.26-.28,.26h-.28c-.15,0-.28-.11-.28-.26v-2.05c0-.14,.12-.26,.28-.26Z"/><path d="M244.47,36.47h-.28c-.15,0-.28,.11-.28,.26v1.54c0,.14,.12,.26,.28,.26h.28c.15,0,.28-.11,.28-.26v-1.54c0-.14-.12-.26-.28-.26Z"/><path d="M242.94,36.99h.28c.15,0,.28,.11,.28,.26v1.03c0,.14-.12,.26-.28,.26h-.28c-.15,0-.28-.11-.28-.26v-1.03c0-.14,.12-.26,.28-.26Z"/><path d="M241.69,37.37h.28c.15,0,.28,.11,.28,.26v.64c0,.14-.12,.26-.28,.26h-.28c-.15,0-.28-.11-.28-.26v-.64c0-.14,.12-.26,.28-.26Z"/><path d="M151.67,39.04h.29v-.94h1.04v-.24h-1.04v-.75h1.13v-.24h-1.43v2.17Zm2.01-1.94c.11,0,.2-.08,.2-.18s-.09-.18-.2-.18-.2,.08-.2,.18,.09,.18,.2,.18Zm-.14,1.94h.28v-1.62h-.28v1.62Zm1.53,.57c.48,0,.78-.23,.78-.59v-1.6h-.28v.27h-.02c-.11-.18-.3-.3-.55-.3-.46,0-.74,.33-.74,.78h0c0,.46,.28,.78,.74,.78,.24,0,.44-.1,.55-.28h.03v.33c0,.24-.19,.38-.5,.38-.25,0-.41-.09-.44-.21h-.3c.04,.27,.31,.44,.74,.44Zm-.01-.89c-.33,0-.51-.23-.51-.55h0c0-.33,.18-.56,.51-.56s.52,.23,.52,.55h0c0,.33-.2,.55-.52,.55Zm1.31,.32h.28v-1.01c0-.23,.17-.41,.4-.41s.36,.12,.36,.32v1.1h.28v-1.04c0-.21,.16-.38,.41-.38s.37,.12,.37,.36v1.06h.28v-1.12c0-.34-.2-.53-.56-.53-.24,0-.44,.11-.54,.28h-.03c-.08-.17-.25-.28-.49-.28s-.4,.1-.47,.28h-.03v-.25h-.28v1.62Zm3.37,.03c.24,0,.42-.09,.53-.27h.03v.24h.28v-1.11c0-.34-.24-.54-.67-.54-.37,0-.64,.17-.69,.43h.28c.05-.12,.18-.19,.39-.19,.26,0,.39,.11,.39,.31v.15l-.5,.03c-.41,.02-.64,.19-.64,.48h0c0,.3,.25,.48,.59,.48Zm-.3-.49h0c0-.16,.12-.25,.38-.27l.47-.03v.15c0,.23-.21,.41-.5,.41-.2,0-.35-.1-.35-.26Z"/></g></g></svg>