<?xml version="1.0" encoding="UTF-8"?><svg xmlns="http://www.w3.org/2000/svg" xmlns:xlink="http://www.w3.org/1999/xlink" viewBox="0 0 201.47 287.11"><defs><style>.cls-1{fill:url(#linear-gradient-2);}.cls-2,.cls-3,.cls-4,.cls-5,.cls-6,.cls-7{fill:#fff;}.cls-8,.cls-5{stroke:#cde8ec;}.cls-8,.cls-5,.cls-9,.cls-10,.cls-11,.cls-12,.cls-13{stroke-linecap:round;}.cls-8,.cls-5,.cls-10,.cls-14,.cls-11,.cls-12,.cls-13{stroke-width:3px;}.cls-8,.cls-5,.cls-10,.cls-11,.cls-12,.cls-13{stroke-linejoin:round;}.cls-8,.cls-9,.cls-15,.cls-10,.cls-14,.cls-16,.cls-17,.cls-11,.cls-12,.cls-13{fill:none;}.cls-18{fill:#87b6a2;}.cls-3,.cls-6,.cls-19,.cls-20,.cls-7,.cls-21{fill-rule:evenodd;}.cls-4{stroke-width:.5px;}.cls-4,.cls-15{stroke:#87b6a2;}.cls-9{stroke:#333;stroke-width:7px;}.cls-9,.cls-14{stroke-miterlimit:10;}.cls-22{fill:#d6eaf2;}.cls-23{fill:#ffba00;}.cls-24{fill:#fd8369;}.cls-25{fill:#395460;}.cls-26{fill:#99c9e5;}.cls-27{fill:#333;}.cls-28{fill:#fcc486;}.cls-29{fill:#aea61f;}.cls-10{stroke:#9f9300;}.cls-6,.cls-19,.cls-20,.cls-7{isolation:isolate;}.cls-6,.cls-20{opacity:.4;}.cls-30{fill:#495f77;}.cls-31{opacity:.6;}.cls-14{stroke:#f1b104;}.cls-32{clip-path:url(#clippath);}.cls-33{fill:#74d5de;}.cls-34{fill:#fed385;}.cls-17{stroke:#000;stroke-width:.25px;}.cls-11{stroke:#99c9e5;}.cls-19,.cls-7{opacity:.35;}.cls-35{fill:#fed892;}.cls-12{stroke:#d3a000;}.cls-36{fill:#de8e68;}.cls-37{opacity:.2;}.cls-38{fill:url(#linear-gradient-3);}.cls-39{fill:url(#linear-gradient);}.cls-40{fill:#648d9e;}.cls-41{fill:#56cad8;}.cls-42{fill:#f9c543;}.cls-13{stroke:#fff;}</style><linearGradient id="linear-gradient" x1="140.49" y1="383.37" x2="140.49" y2="364.63" gradientTransform="translate(0 531.57) scale(1 -1)" gradientUnits="userSpaceOnUse"><stop offset="0" stop-color="#648d9e"/><stop offset="1" stop-color="#34697e"/></linearGradient><linearGradient id="linear-gradient-2" x1="132.08" y1="33.49" x2="147.45" y2="33.49" gradientTransform="translate(-.01 -.01)" gradientUnits="userSpaceOnUse"><stop offset="0" stop-color="#303030"/><stop offset=".12" stop-color="#232323"/><stop offset=".3" stop-color="#171717"/><stop offset=".48" stop-color="#131313"/><stop offset=".78" stop-color="#141414"/><stop offset=".89" stop-color="#1b1b1b"/><stop offset=".96" stop-color="#272727"/><stop offset="1" stop-color="#303030"/></linearGradient><clipPath id="clippath"><rect class="cls-16" x="15.74" y="0" width="116.7" height="247.21"/></clipPath><linearGradient id="linear-gradient-3" x1="66.08" y1="5.49" x2="81.45" y2="5.49" xlink:href="#linear-gradient-2"/></defs><g id="Layer_1"><g><g><g><g><g><g><rect class="cls-2" x="81.75" y="30.78" width="116" height="252" rx="3.78" ry="3.78"/><g><rect class="cls-2" x="83.75" y="31.78" width="113" height="250"/><image width="350" height="423" transform="translate(89.74 100.7) scale(.29)" xlink:href="../../../../ResumeAssets/image 5.png"/><path class="cls-2" d="M83.75,264.01c0-1.15,.91-2.07,2.03-2.07h108.94c1.12,0,2.03,.93,2.03,2.07v17.77H83.75v-17.77Z"/><path class="cls-40" d="M83.75,267.86c0-3.27,2.59-5.92,5.79-5.92h45.2c3.2,0,5.79,2.65,5.79,5.92v13.92h-56.79v-13.92Z"/><path class="cls-2" d="M96.39,273.31h-2.26l-.43,1.07h-1.15l2.17-4.98h1.11l2.18,4.98h-1.18l-.43-1.07Zm-.35-.87l-.77-1.91-.77,1.91h1.54Zm3.62,2c-.31,0-.61-.04-.91-.11-.3-.08-.53-.18-.71-.3l.36-.8c.17,.11,.37,.2,.6,.27,.24,.07,.47,.1,.7,.1,.46,0,.69-.12,.69-.35,0-.11-.06-.19-.19-.23-.13-.05-.32-.09-.58-.12-.31-.05-.56-.1-.76-.16s-.37-.17-.52-.33c-.14-.16-.22-.38-.22-.67,0-.24,.07-.45,.2-.64,.14-.19,.34-.34,.6-.44,.26-.1,.57-.16,.93-.16,.26,0,.53,.03,.79,.09,.26,.06,.48,.14,.65,.24l-.36,.79c-.33-.19-.69-.28-1.08-.28-.23,0-.41,.03-.52,.1-.12,.07-.17,.15-.17,.26,0,.12,.06,.2,.19,.25,.13,.05,.32,.09,.6,.14,.31,.05,.56,.11,.75,.17,.19,.06,.36,.16,.51,.32,.14,.16,.22,.37,.22,.65,0,.24-.07,.45-.21,.63s-.34,.33-.61,.43c-.26,.1-.58,.15-.95,.15Zm3.69,0c-.31,0-.61-.04-.91-.11-.3-.08-.53-.18-.71-.3l.36-.8c.17,.11,.37,.2,.6,.27,.24,.07,.47,.1,.7,.1,.46,0,.69-.12,.69-.35,0-.11-.06-.19-.19-.23-.13-.05-.32-.09-.58-.12-.31-.05-.56-.1-.76-.16-.2-.06-.37-.17-.52-.33-.14-.16-.22-.38-.22-.67,0-.24,.07-.45,.2-.64,.14-.19,.34-.34,.6-.44,.26-.1,.57-.16,.93-.16,.26,0,.53,.03,.79,.09,.26,.06,.48,.14,.65,.24l-.36,.79c-.33-.19-.69-.28-1.08-.28-.23,0-.41,.03-.52,.1-.12,.07-.17,.15-.17,.26,0,.12,.06,.2,.19,.25,.13,.05,.32,.09,.6,.14,.31,.05,.56,.11,.75,.17,.19,.06,.36,.16,.51,.32,.14,.16,.22,.37,.22,.65,0,.24-.07,.45-.21,.63s-.34,.33-.61,.43c-.26,.1-.58,.15-.95,.15Zm2.44-3.88h1.08v3.82h-1.08v-3.82Zm.54-.53c-.2,0-.36-.06-.49-.18-.13-.12-.19-.27-.19-.44s.06-.32,.19-.44c.13-.12,.29-.18,.49-.18s.36,.06,.49,.17c.13,.11,.19,.26,.19,.43,0,.18-.06,.34-.19,.46-.13,.12-.29,.18-.49,.18Zm2.81,4.41c-.31,0-.61-.04-.91-.11-.3-.08-.53-.18-.71-.3l.36-.8c.17,.11,.37,.2,.6,.27,.24,.07,.47,.1,.7,.1,.46,0,.69-.12,.69-.35,0-.11-.06-.19-.19-.23-.13-.05-.32-.09-.58-.12-.31-.05-.56-.1-.76-.16-.2-.06-.37-.17-.52-.33-.14-.16-.22-.38-.22-.67,0-.24,.07-.45,.2-.64,.14-.19,.34-.34,.6-.44,.26-.1,.57-.16,.93-.16,.26,0,.53,.03,.79,.09,.26,.06,.48,.14,.65,.24l-.36,.79c-.33-.19-.69-.28-1.08-.28-.23,0-.41,.03-.52,.1s-.17,.15-.17,.26c0,.12,.06,.2,.19,.25,.13,.05,.32,.09,.6,.14,.31,.05,.56,.11,.75,.17,.19,.06,.36,.16,.51,.32s.22,.37,.22,.65c0,.24-.07,.45-.21,.63-.14,.18-.34,.33-.61,.43-.26,.1-.58,.15-.95,.15Zm4.85-.24c-.11,.08-.24,.14-.4,.18-.15,.04-.32,.06-.49,.06-.45,0-.79-.12-1.04-.35-.24-.23-.36-.57-.36-1.02v-1.57h-.58v-.85h.58v-.93h1.08v.93h.93v.85h-.93v1.56c0,.16,.04,.29,.12,.38,.08,.09,.2,.13,.35,.13,.17,0,.32-.05,.44-.14l.29,.78Zm2.12-3.7c.58,0,1.02,.14,1.34,.43,.31,.28,.47,.7,.47,1.27v2.18h-1.02v-.48c-.2,.36-.58,.53-1.14,.53-.29,0-.54-.05-.75-.15-.21-.1-.37-.24-.48-.41-.11-.18-.17-.37-.17-.6,0-.36,.13-.64,.39-.84,.26-.2,.67-.31,1.22-.31h.86c0-.24-.07-.43-.22-.55-.14-.13-.36-.2-.65-.2-.2,0-.4,.03-.59,.1-.19,.06-.35,.15-.49,.26l-.39-.77c.2-.15,.45-.26,.73-.34,.29-.08,.58-.12,.88-.12Zm-.08,3.19c.19,0,.35-.04,.49-.13,.14-.09,.25-.22,.31-.39v-.39h-.74c-.45,0-.67,.15-.67,.45,0,.14,.05,.26,.16,.34,.11,.08,.26,.12,.45,.12Zm5.14-3.19c.46,0,.84,.14,1.12,.43,.29,.28,.43,.71,.43,1.27v2.19h-1.08v-2.02c0-.3-.06-.53-.19-.68-.13-.15-.32-.23-.56-.23-.27,0-.49,.09-.65,.26-.16,.17-.24,.43-.24,.77v1.89h-1.08v-3.82h1.04v.45c.14-.16,.32-.28,.54-.37,.21-.09,.45-.14,.7-.14Zm4.38,3.94c-.4,0-.76-.08-1.08-.25-.32-.17-.56-.41-.74-.7-.18-.3-.26-.64-.26-1.02s.09-.72,.26-1.02c.18-.3,.43-.53,.74-.7,.32-.17,.68-.26,1.08-.26s.74,.09,1.03,.26c.3,.17,.51,.41,.65,.72l-.84,.46c-.19-.35-.48-.53-.84-.53-.28,0-.52,.09-.7,.28-.19,.19-.28,.45-.28,.77s.09,.59,.28,.77c.19,.19,.42,.28,.7,.28,.37,0,.65-.18,.84-.53l.84,.47c-.13,.3-.35,.54-.65,.71-.29,.17-.64,.26-1.03,.26Zm5.92-1.95s0,.11-.02,.3h-2.83c.05,.24,.17,.42,.36,.56,.19,.14,.43,.21,.71,.21,.19,0,.37-.03,.51-.09,.15-.06,.29-.16,.42-.28l.58,.64c-.35,.41-.87,.62-1.54,.62-.42,0-.8-.08-1.12-.25-.32-.17-.57-.41-.75-.7s-.26-.64-.26-1.02,.09-.71,.26-1.01c.18-.3,.41-.54,.72-.7,.31-.17,.65-.26,1.02-.26s.7,.08,.99,.24c.3,.16,.53,.39,.7,.7,.17,.3,.26,.65,.26,1.05Zm-1.94-1.14c-.25,0-.45,.07-.62,.21-.17,.14-.27,.34-.31,.58h1.84c-.04-.24-.14-.43-.31-.58-.17-.15-.37-.22-.61-.22Z"/><path class="cls-30" d="M148.99,269.4h2.21c.53,0,.99,.1,1.4,.31,.41,.2,.72,.49,.95,.87,.23,.37,.34,.81,.34,1.31s-.11,.93-.34,1.31c-.22,.37-.54,.67-.95,.87-.4,.2-.87,.31-1.4,.31h-2.21v-4.98Zm2.16,4.03c.49,0,.87-.14,1.16-.41,.29-.28,.44-.66,.44-1.13s-.15-.85-.44-1.12c-.29-.28-.67-.42-1.16-.42h-1.03v3.09h1.03Zm5.02-2.94c.58,0,1.02,.14,1.34,.43,.31,.28,.47,.7,.47,1.27v2.18h-1.02v-.48c-.2,.36-.58,.53-1.14,.53-.29,0-.54-.05-.75-.15-.21-.1-.37-.24-.48-.41-.11-.18-.17-.37-.17-.6,0-.36,.13-.64,.39-.84,.26-.2,.67-.31,1.22-.31h.86c0-.24-.07-.43-.22-.55-.14-.13-.36-.2-.65-.2-.2,0-.4,.03-.59,.1-.19,.06-.35,.15-.49,.26l-.39-.77c.2-.15,.45-.26,.73-.34,.29-.08,.58-.12,.88-.12Zm-.08,3.19c.19,0,.35-.04,.49-.13,.14-.09,.25-.22,.31-.39v-.39h-.74c-.45,0-.67,.15-.67,.45,0,.14,.05,.26,.16,.34,.11,.08,.26,.12,.45,.12Zm4.12,.75c-.31,0-.61-.04-.91-.11-.3-.08-.53-.18-.71-.3l.36-.8c.17,.11,.37,.2,.6,.27,.24,.07,.47,.1,.7,.1,.46,0,.69-.12,.69-.35,0-.11-.06-.19-.19-.23-.13-.05-.32-.09-.58-.12-.31-.05-.56-.1-.76-.16s-.37-.17-.52-.33c-.14-.16-.22-.38-.22-.67,0-.24,.07-.45,.2-.64,.14-.19,.34-.34,.6-.44,.26-.1,.57-.16,.93-.16,.26,0,.53,.03,.79,.09,.26,.06,.48,.14,.65,.24l-.36,.79c-.33-.19-.69-.28-1.08-.28-.23,0-.41,.03-.52,.1-.12,.07-.17,.15-.17,.26,0,.12,.06,.2,.19,.25,.13,.05,.32,.09,.6,.14,.31,.05,.56,.11,.75,.17,.19,.06,.36,.16,.51,.32,.14,.16,.22,.37,.22,.65,0,.24-.07,.45-.21,.63s-.34,.33-.61,.43c-.26,.1-.58,.15-.95,.15Zm4.71-3.94c.46,0,.84,.14,1.12,.43,.29,.28,.43,.71,.43,1.27v2.19h-1.08v-2.02c0-.3-.06-.53-.19-.68-.13-.15-.32-.23-.56-.23-.27,0-.49,.09-.65,.26-.16,.17-.24,.43-.24,.77v1.89h-1.08v-5.27h1.08v1.85c.14-.15,.32-.26,.52-.33,.2-.08,.43-.12,.67-.12Zm4.75,0c.35,0,.66,.08,.95,.25,.29,.16,.51,.39,.67,.69,.16,.29,.24,.64,.24,1.03s-.08,.74-.24,1.04c-.16,.29-.39,.52-.67,.69-.28,.16-.6,.24-.95,.24-.51,0-.91-.17-1.18-.5v.44h-1.04v-5.27h1.08v1.86c.27-.31,.65-.46,1.13-.46Zm-.19,3.03c.28,0,.51-.09,.68-.28,.18-.19,.27-.45,.27-.77s-.09-.58-.27-.77c-.18-.19-.4-.29-.68-.29s-.51,.1-.69,.29c-.18,.19-.26,.45-.26,.77s.09,.58,.26,.77c.18,.19,.41,.28,.69,.28Zm4.56,.91c-.39,0-.75-.08-1.06-.25-.31-.17-.55-.41-.73-.7s-.26-.64-.26-1.02,.09-.72,.26-1.02,.42-.53,.73-.7c.32-.17,.67-.26,1.06-.26s.75,.09,1.06,.26c.31,.17,.55,.4,.73,.7s.26,.64,.26,1.02-.09,.72-.26,1.02-.42,.53-.73,.7c-.31,.17-.66,.25-1.06,.25Zm0-.91c.28,0,.51-.09,.68-.28,.18-.19,.27-.45,.27-.77s-.09-.58-.27-.77c-.18-.19-.4-.29-.68-.29s-.51,.1-.69,.29c-.18,.19-.27,.45-.27,.77s.09,.58,.27,.77c.18,.19,.41,.28,.69,.28Zm4.22-3.03c.58,0,1.02,.14,1.34,.43,.31,.28,.47,.7,.47,1.27v2.18h-1.02v-.48c-.2,.36-.58,.53-1.14,.53-.29,0-.54-.05-.75-.15-.21-.1-.37-.24-.48-.41-.11-.18-.17-.37-.17-.6,0-.36,.13-.64,.39-.84,.26-.2,.67-.31,1.22-.31h.86c0-.24-.07-.43-.22-.55-.14-.13-.36-.2-.65-.2-.2,0-.4,.03-.59,.1-.19,.06-.35,.15-.49,.26l-.39-.77c.2-.15,.45-.26,.73-.34,.29-.08,.58-.12,.88-.12Zm-.08,3.19c.19,0,.35-.04,.49-.13,.14-.09,.25-.22,.31-.39v-.39h-.74c-.45,0-.67,.15-.67,.45,0,.14,.05,.26,.16,.34,.11,.08,.26,.12,.45,.12Zm3.9-2.63c.13-.18,.3-.32,.52-.42,.22-.09,.48-.14,.76-.14v1.02c-.12,0-.2-.01-.24-.01-.31,0-.55,.09-.73,.27-.18,.18-.26,.44-.26,.8v1.81h-1.08v-3.82h1.04v.5Zm5.71-1.95v5.27h-1.04v-.44c-.27,.33-.66,.5-1.17,.5-.35,0-.67-.08-.96-.24-.28-.16-.51-.39-.67-.69-.16-.3-.24-.64-.24-1.04s.08-.74,.24-1.04c.16-.3,.38-.53,.67-.69,.29-.16,.61-.24,.96-.24,.48,0,.85,.15,1.12,.46v-1.86h1.08Zm-2.02,4.42c.27,0,.5-.09,.68-.28,.18-.19,.27-.45,.27-.77s-.09-.58-.27-.77c-.18-.19-.41-.29-.68-.29s-.51,.1-.69,.29c-.18,.19-.27,.45-.27,.77s.09,.58,.27,.77c.18,.19,.41,.28,.69,.28Z"/><path class="cls-17" d="M141.99,232.46h45.49c1.84,0,3.33,1.53,3.33,3.41v8.59c0,1.88-1.49,3.41-3.33,3.41h-45.49c-1.84,0-3.33-1.53-3.33-3.41v-8.59c0-1.88,1.49-3.41,3.33-3.41Z"/><path class="cls-30" d="M146.54,240.78v.42h-1.73v-2.28h1.69v.42h-1.17v.5h1.04v.41h-1.04v.53h1.21Zm1.42-1.36c.21,0,.38,.07,.51,.2,.13,.13,.2,.32,.2,.58v1h-.5v-.93c0-.14-.03-.24-.09-.31-.06-.07-.15-.1-.26-.1-.13,0-.23,.04-.3,.12-.07,.08-.11,.2-.11,.35v.87h-.5v-1.75h.47v.21c.07-.07,.15-.13,.25-.17,.1-.04,.2-.06,.32-.06Zm1.85,0c.27,0,.47,.07,.61,.2,.14,.13,.21,.32,.21,.58v1h-.47v-.22c-.09,.16-.27,.24-.52,.24-.13,0-.25-.02-.34-.07-.1-.05-.17-.11-.22-.19-.05-.08-.08-.17-.08-.27,0-.16,.06-.29,.18-.38,.12-.09,.31-.14,.56-.14h.4c0-.11-.03-.2-.1-.25-.07-.06-.16-.09-.3-.09-.09,0-.18,.02-.27,.05-.09,.03-.16,.07-.22,.12l-.18-.36c.09-.07,.21-.12,.33-.16,.13-.04,.27-.06,.4-.06Zm-.04,1.46c.09,0,.16-.02,.23-.06,.07-.04,.11-.1,.14-.18v-.18h-.34c-.2,0-.31,.07-.31,.21,0,.07,.02,.12,.07,.16,.05,.04,.12,.06,.21,.06Zm2.33-1.46c.16,0,.3,.04,.43,.11,.13,.07,.23,.18,.31,.32,.07,.13,.11,.29,.11,.47s-.04,.34-.11,.48c-.07,.13-.18,.24-.31,.32-.13,.07-.27,.11-.43,.11-.24,0-.42-.08-.54-.23v.2h-.47v-2.42h.5v.85c.13-.14,.3-.21,.52-.21Zm-.09,1.39c.13,0,.23-.04,.31-.13,.08-.09,.12-.21,.12-.36s-.04-.27-.12-.35c-.08-.09-.18-.13-.31-.13s-.23,.04-.32,.13c-.08,.09-.12,.2-.12,.35s.04,.27,.12,.36c.08,.09,.19,.13,.32,.13Zm1.27-2.03h.5v2.42h-.5v-2.42Zm2.64,1.55s0,.05,0,.14h-1.3c.02,.11,.08,.19,.17,.26,.09,.06,.2,.09,.33,.09,.09,0,.17-.01,.24-.04,.07-.03,.13-.07,.19-.13l.26,.29c-.16,.19-.4,.28-.71,.28-.19,0-.36-.04-.51-.11-.15-.08-.26-.19-.34-.32-.08-.14-.12-.29-.12-.47s.04-.33,.12-.46c.08-.14,.19-.25,.33-.32,.14-.08,.3-.12,.47-.12s.32,.04,.46,.11c.14,.07,.24,.18,.32,.32,.08,.14,.12,.3,.12,.48Zm-.89-.52c-.11,0-.21,.03-.28,.1-.08,.07-.12,.15-.14,.27h.84c-.02-.11-.06-.2-.14-.26-.08-.07-.17-.1-.28-.1Zm2.12-1.02h.5v2.42h-.5v-2.42Zm1.77,2.44c-.18,0-.34-.04-.49-.11-.14-.08-.25-.19-.33-.32-.08-.14-.12-.29-.12-.47s.04-.33,.12-.47c.08-.14,.19-.24,.33-.32,.14-.08,.31-.12,.49-.12s.34,.04,.48,.12c.14,.08,.25,.18,.33,.32,.08,.14,.12,.29,.12,.47s-.04,.33-.12,.47c-.08,.14-.19,.24-.33,.32-.14,.08-.3,.11-.48,.11Zm0-.42c.13,0,.23-.04,.31-.13,.08-.09,.12-.21,.12-.36s-.04-.27-.12-.35c-.08-.09-.18-.13-.31-.13s-.23,.04-.32,.13c-.08,.09-.12,.2-.12,.35s.04,.27,.12,.36c.08,.09,.19,.13,.32,.13Zm2.1,.42c-.18,0-.35-.04-.49-.11-.14-.08-.26-.19-.34-.32-.08-.14-.12-.29-.12-.47s.04-.33,.12-.47c.08-.14,.2-.24,.34-.32,.15-.08,.31-.12,.49-.12s.34,.04,.47,.12c.14,.08,.23,.19,.3,.33l-.39,.21c-.09-.16-.22-.24-.39-.24-.13,0-.24,.04-.32,.13-.08,.09-.13,.21-.13,.36s.04,.27,.13,.36c.08,.09,.19,.13,.32,.13,.17,0,.3-.08,.39-.24l.39,.22c-.06,.14-.16,.25-.3,.33-.13,.08-.29,.12-.47,.12Zm1.75-1.81c.27,0,.47,.07,.61,.2,.14,.13,.21,.32,.21,.58v1h-.47v-.22c-.09,.16-.27,.24-.52,.24-.13,0-.25-.02-.34-.07-.1-.05-.17-.11-.22-.19-.05-.08-.08-.17-.08-.27,0-.16,.06-.29,.18-.38,.12-.09,.31-.14,.56-.14h.4c0-.11-.03-.2-.1-.25-.07-.06-.16-.09-.3-.09-.09,0-.18,.02-.27,.05-.09,.03-.16,.07-.22,.12l-.18-.36c.09-.07,.21-.12,.33-.16,.13-.04,.27-.06,.4-.06Zm-.04,1.46c.08,0,.16-.02,.23-.06,.07-.04,.11-.1,.14-.18v-.18h-.34c-.2,0-.31,.07-.31,.21,0,.07,.02,.12,.07,.16,.05,.04,.12,.06,.21,.06Zm2.42,.23s-.11,.07-.18,.08c-.07,.02-.14,.03-.22,.03-.2,0-.36-.05-.47-.16-.11-.11-.17-.26-.17-.47v-.72h-.26v-.39h.26v-.43h.5v.43h.43v.39h-.43v.71c0,.07,.02,.13,.05,.17,.04,.04,.09,.06,.16,.06,.08,0,.15-.02,.2-.07l.13,.36Zm.28-1.67h.5v1.75h-.5v-1.75Zm.25-.24c-.09,0-.17-.03-.22-.08s-.09-.12-.09-.2,.03-.15,.09-.2c.06-.05,.13-.08,.22-.08s.17,.03,.22,.08c.06,.05,.09,.12,.09,.2,0,.08-.03,.16-.09,.21-.06,.05-.13,.08-.22,.08Zm1.53,2.02c-.18,0-.34-.04-.49-.11-.14-.08-.25-.19-.33-.32-.08-.14-.12-.29-.12-.47s.04-.33,.12-.47c.08-.14,.19-.24,.33-.32,.14-.08,.31-.12,.49-.12s.34,.04,.48,.12c.14,.08,.25,.18,.33,.32,.08,.14,.12,.29,.12,.47s-.04,.33-.12,.47c-.08,.14-.19,.24-.33,.32-.14,.08-.3,.11-.48,.11Zm0-.42c.13,0,.23-.04,.31-.13,.08-.09,.12-.21,.12-.36s-.04-.27-.12-.35c-.08-.09-.18-.13-.31-.13s-.23,.04-.32,.13c-.08,.09-.12,.2-.12,.35s.04,.27,.12,.36c.08,.09,.19,.13,.32,.13Zm2.31-1.39c.21,0,.38,.07,.51,.2,.13,.13,.2,.32,.2,.58v1h-.5v-.93c0-.14-.03-.24-.09-.31-.06-.07-.15-.1-.26-.1-.13,0-.23,.04-.3,.12-.07,.08-.11,.2-.11,.35v.87h-.5v-1.75h.47v.21c.07-.07,.15-.13,.25-.17,.1-.04,.21-.06,.32-.06Zm2.64,1.81c-.14,0-.28-.02-.42-.05-.14-.04-.24-.08-.33-.14l.17-.36c.08,.05,.17,.09,.28,.12,.11,.03,.21,.05,.32,.05,.21,0,.32-.05,.32-.16,0-.05-.03-.09-.09-.11s-.15-.04-.26-.06c-.14-.02-.26-.05-.35-.07-.09-.03-.17-.08-.24-.15-.07-.07-.1-.17-.1-.31,0-.11,.03-.21,.09-.29,.06-.09,.16-.15,.27-.2,.12-.05,.26-.07,.43-.07,.12,0,.24,.01,.36,.04,.12,.03,.22,.06,.3,.11l-.17,.36c-.15-.09-.32-.13-.49-.13-.11,0-.19,.02-.24,.05-.05,.03-.08,.07-.08,.12,0,.05,.03,.09,.09,.11s.15,.04,.27,.06c.14,.02,.25,.05,.34,.08,.09,.03,.17,.07,.23,.15,.07,.07,.1,.17,.1,.3,0,.11-.03,.21-.1,.29-.06,.08-.16,.15-.28,.2-.12,.05-.27,.07-.43,.07Zm2.8-.9s0,.05,0,.14h-1.3c.02,.11,.08,.19,.17,.26,.09,.06,.2,.09,.33,.09,.09,0,.17-.01,.24-.04,.07-.03,.14-.07,.19-.13l.26,.29c-.16,.19-.4,.28-.71,.28-.19,0-.36-.04-.51-.11-.15-.08-.26-.19-.34-.32-.08-.14-.12-.29-.12-.47s.04-.33,.12-.46c.08-.14,.19-.25,.33-.32,.14-.08,.3-.12,.47-.12s.32,.04,.46,.11c.14,.07,.24,.18,.32,.32,.08,.14,.12,.3,.12,.48Zm-.89-.52c-.11,0-.21,.03-.28,.1-.08,.07-.12,.15-.14,.27h.84c-.02-.11-.06-.2-.14-.26-.08-.07-.17-.1-.28-.1Zm1.7-.13c.06-.08,.14-.15,.24-.19,.1-.04,.22-.07,.35-.07v.47c-.06,0-.09,0-.11,0-.14,0-.25,.04-.33,.12-.08,.08-.12,.2-.12,.36v.83h-.5v-1.75h.47v.23Zm2.65-.23l-.72,1.75h-.51l-.72-1.75h.51l.47,1.19,.49-1.19h.48Zm.2,0h.5v1.75h-.5v-1.75Zm.25-.24c-.09,0-.17-.03-.22-.08s-.09-.12-.09-.2,.03-.15,.09-.2c.06-.05,.13-.08,.22-.08s.17,.03,.22,.08c.06,.05,.09,.12,.09,.2,0,.08-.03,.16-.09,.21-.06,.05-.13,.08-.22,.08Zm1.54,2.02c-.18,0-.35-.04-.49-.11-.14-.08-.26-.19-.34-.32-.08-.14-.12-.29-.12-.47s.04-.33,.12-.47c.08-.14,.2-.24,.34-.32,.15-.08,.31-.12,.49-.12s.34,.04,.47,.12c.14,.08,.23,.19,.3,.33l-.39,.21c-.09-.16-.22-.24-.39-.24-.13,0-.24,.04-.32,.13-.08,.09-.13,.21-.13,.36s.04,.27,.13,.36c.08,.09,.19,.13,.32,.13,.17,0,.3-.08,.39-.24l.39,.22c-.06,.14-.16,.25-.3,.33-.13,.08-.29,.12-.47,.12Zm2.71-.9s0,.05,0,.14h-1.3c.02,.11,.08,.19,.17,.26,.09,.06,.2,.09,.33,.09,.09,0,.17-.01,.24-.04,.07-.03,.14-.07,.19-.13l.26,.29c-.16,.19-.4,.28-.71,.28-.19,0-.36-.04-.51-.11-.15-.08-.26-.19-.34-.32-.08-.14-.12-.29-.12-.47s.04-.33,.12-.46c.08-.14,.19-.25,.33-.32,.14-.08,.3-.12,.47-.12s.32,.04,.46,.11c.14,.07,.24,.18,.32,.32,.08,.14,.12,.3,.12,.48Zm-.89-.52c-.11,0-.21,.03-.28,.1-.08,.07-.12,.15-.14,.27h.84c-.02-.11-.06-.2-.14-.26-.08-.07-.17-.1-.28-.1Zm1.8,1.42c-.14,0-.28-.02-.42-.05-.14-.04-.24-.08-.33-.14l.17-.36c.08,.05,.17,.09,.28,.12,.11,.03,.21,.05,.32,.05,.21,0,.32-.05,.32-.16,0-.05-.03-.09-.09-.11s-.15-.04-.26-.06c-.14-.02-.26-.05-.35-.07-.09-.03-.17-.08-.24-.15-.07-.07-.1-.17-.1-.31,0-.11,.03-.21,.09-.29,.06-.09,.16-.15,.27-.2,.12-.05,.26-.07,.43-.07,.12,0,.24,.01,.36,.04,.12,.03,.22,.06,.3,.11l-.17,.36c-.15-.09-.32-.13-.49-.13-.11,0-.19,.02-.24,.05-.05,.03-.08,.07-.08,.12,0,.05,.03,.09,.09,.11s.15,.04,.27,.06c.14,.02,.25,.05,.34,.08,.09,.03,.17,.07,.23,.15,.07,.07,.1,.17,.1,.3,0,.11-.03,.21-.1,.29-.06,.08-.16,.15-.28,.2-.12,.05-.27,.07-.43,.07Z"/><rect class="cls-17" x="89.69" y="100.65" width="101.12" height="124.41"/><path class="cls-30" d="M90.82,81.76v.99h1.69v.69h-1.69v1.36h-.84v-3.73h2.76v.69h-1.91Zm2.38,.17h.81v2.87h-.81v-2.87Zm.41-.4c-.15,0-.27-.04-.37-.13-.09-.09-.14-.2-.14-.33s.05-.24,.14-.33,.22-.13,.37-.13,.27,.04,.37,.13c.09,.09,.14,.19,.14,.32,0,.14-.05,.25-.14,.35-.09,.09-.22,.13-.37,.13Zm1.94,.78c.1-.14,.23-.24,.39-.31,.17-.07,.36-.11,.57-.11v.77c-.09,0-.15-.01-.18-.01-.23,0-.42,.07-.55,.2-.13,.13-.2,.33-.2,.6v1.35h-.81v-2.87h.78v.38Zm2.4,2.53c-.23,0-.46-.03-.68-.09-.22-.06-.4-.14-.53-.22l.27-.6c.13,.08,.28,.15,.45,.2,.18,.05,.35,.07,.52,.07,.34,0,.52-.09,.52-.26,0-.08-.05-.14-.14-.18-.09-.04-.24-.07-.43-.09-.23-.04-.42-.08-.57-.12-.15-.05-.28-.13-.39-.25-.11-.12-.16-.28-.16-.5,0-.18,.05-.34,.15-.48,.1-.14,.25-.25,.45-.33,.2-.08,.43-.12,.7-.12,.2,0,.39,.02,.59,.07,.2,.04,.36,.1,.49,.18l-.27,.59c-.25-.14-.52-.21-.81-.21-.17,0-.3,.02-.39,.07s-.13,.11-.13,.19c0,.09,.05,.15,.14,.19,.09,.04,.24,.07,.45,.1,.23,.04,.42,.08,.56,.13,.15,.04,.27,.12,.38,.24,.11,.12,.16,.28,.16,.49,0,.18-.05,.34-.16,.47s-.26,.25-.46,.33c-.2,.07-.43,.11-.71,.11Zm3.64-.18c-.08,.06-.18,.11-.3,.14-.11,.03-.24,.04-.37,.04-.33,0-.59-.09-.78-.26-.18-.17-.27-.43-.27-.77v-1.18h-.43v-.64h.43v-.7h.81v.7h.7v.64h-.7v1.17c0,.12,.03,.22,.09,.28,.06,.06,.15,.1,.26,.1,.13,0,.24-.04,.33-.11l.22,.59Zm.46-3.82h.81v3.96h-.81v-3.96Zm4.35,1.09l-1.27,3.04c-.13,.33-.29,.56-.48,.7-.19,.14-.42,.2-.68,.2-.15,0-.29-.02-.43-.07-.14-.05-.26-.11-.35-.19l.3-.59c.06,.06,.13,.1,.21,.13,.08,.03,.17,.05,.25,.05,.11,0,.2-.03,.27-.09,.07-.05,.13-.14,.19-.27v-.03l-1.2-2.89h.84l.79,1.95,.79-1.95h.78Zm1.81,0h.81v2.87h-.81v-2.87Zm.41-.4c-.15,0-.27-.04-.37-.13-.09-.09-.14-.2-.14-.33s.05-.24,.14-.33c.09-.09,.22-.13,.37-.13s.27,.04,.37,.13c.09,.09,.14,.19,.14,.32,0,.14-.05,.25-.14,.35-.09,.09-.22,.13-.37,.13Zm2.87,.36c.35,0,.63,.11,.84,.32,.22,.21,.32,.53,.32,.95v1.64h-.81v-1.51c0-.23-.05-.4-.15-.51-.1-.11-.24-.17-.42-.17-.21,0-.37,.07-.49,.2-.12,.13-.18,.32-.18,.58v1.42h-.81v-2.87h.78v.34c.11-.12,.24-.21,.4-.28,.16-.07,.34-.1,.53-.1Zm3.56,0c.26,0,.5,.06,.71,.19,.22,.12,.38,.29,.51,.52,.12,.22,.18,.48,.18,.77s-.06,.55-.18,.78c-.12,.22-.29,.39-.51,.52-.21,.12-.45,.18-.71,.18-.36,0-.64-.12-.84-.35v1.34h-.81v-3.9h.78v.33c.2-.25,.5-.37,.88-.37Zm-.14,2.27c.21,0,.38-.07,.51-.21,.14-.15,.2-.34,.2-.58s-.07-.43-.2-.58c-.13-.15-.3-.22-.51-.22s-.38,.07-.52,.22c-.13,.14-.2,.33-.2,.58s.07,.44,.2,.58c.14,.14,.31,.21,.52,.21Zm4.91-2.23v2.87h-.77v-.34c-.11,.12-.24,.22-.39,.29-.15,.06-.31,.1-.49,.1-.37,0-.66-.11-.88-.33-.22-.22-.32-.54-.32-.97v-1.62h.81v1.5c0,.46,.19,.69,.57,.69,.19,0,.35-.06,.47-.19,.12-.13,.18-.33,.18-.58v-1.42h.81Zm2.56,2.73c-.08,.06-.18,.11-.3,.14-.11,.03-.24,.04-.37,.04-.33,0-.59-.09-.78-.26-.18-.17-.27-.43-.27-.77v-1.18h-.43v-.64h.43v-.7h.81v.7h.7v.64h-.7v1.17c0,.12,.03,.22,.09,.28,.06,.06,.15,.1,.26,.1,.13,0,.24-.04,.33-.11l.22,.59Zm4.72-2.73l-1.27,3.04c-.13,.33-.29,.56-.48,.7-.19,.14-.42,.2-.68,.2-.15,0-.29-.02-.43-.07-.14-.05-.26-.11-.35-.19l.3-.59c.06,.06,.13,.1,.21,.13,.08,.03,.17,.05,.25,.05,.11,0,.2-.03,.27-.09,.07-.05,.13-.14,.19-.27v-.03l-1.2-2.89h.84l.79,1.95,.79-1.95h.78Zm1.59,2.91c-.3,0-.56-.06-.8-.19-.23-.13-.42-.3-.55-.53-.13-.22-.2-.48-.2-.76s.07-.54,.2-.76c.13-.22,.31-.4,.55-.52,.24-.13,.5-.19,.8-.19s.56,.06,.79,.19c.23,.12,.42,.3,.55,.52s.2,.48,.2,.76-.07,.54-.2,.76c-.13,.22-.31,.4-.55,.53-.23,.12-.5,.19-.79,.19Zm0-.68c.21,0,.38-.07,.51-.21,.14-.15,.2-.34,.2-.58s-.07-.43-.2-.58c-.13-.15-.3-.22-.51-.22s-.38,.07-.52,.22c-.14,.14-.2,.33-.2,.58s.07,.44,.2,.58c.14,.14,.31,.21,.52,.21Zm4.91-2.23v2.87h-.77v-.34c-.11,.12-.24,.22-.39,.29-.15,.06-.31,.1-.49,.1-.37,0-.66-.11-.88-.33-.22-.22-.32-.54-.32-.97v-1.62h.81v1.5c0,.46,.19,.69,.57,.69,.19,0,.35-.06,.47-.19,.12-.13,.18-.33,.18-.58v-1.42h.81Zm1.53,.38c.1-.14,.23-.24,.39-.31,.17-.07,.36-.11,.57-.11v.77c-.09,0-.15-.01-.18-.01-.23,0-.42,.07-.55,.2-.13,.13-.2,.33-.2,.6v1.35h-.81v-2.87h.78v.38Zm4.3,2.53c-.3,0-.57-.06-.81-.19-.24-.13-.42-.3-.56-.53-.13-.22-.2-.48-.2-.76s.07-.54,.2-.76c.14-.22,.32-.4,.56-.52,.24-.13,.51-.19,.81-.19s.55,.06,.77,.19c.22,.12,.38,.3,.49,.54l-.63,.35c-.15-.26-.36-.39-.63-.39-.21,0-.39,.07-.53,.21s-.21,.34-.21,.58,.07,.44,.21,.58c.14,.14,.31,.21,.53,.21,.28,0,.49-.13,.63-.39l.63,.35c-.1,.23-.26,.41-.49,.53-.22,.13-.48,.19-.77,.19Zm4.55-2.91v2.87h-.77v-.34c-.11,.12-.24,.22-.39,.29-.15,.06-.31,.1-.49,.1-.37,0-.66-.11-.88-.33-.22-.22-.32-.54-.32-.97v-1.62h.81v1.5c0,.46,.19,.69,.57,.69,.19,0,.35-.06,.47-.19,.12-.13,.18-.33,.18-.58v-1.42h.81Zm1.53,.38c.1-.14,.23-.24,.39-.31,.17-.07,.36-.11,.57-.11v.77c-.09,0-.15-.01-.18-.01-.23,0-.42,.07-.55,.2-.13,.13-.2,.33-.2,.6v1.35h-.81v-2.87h.78v.38Zm2.23,0c.1-.14,.23-.24,.39-.31,.17-.07,.36-.11,.57-.11v.77c-.09,0-.15-.01-.18-.01-.23,0-.42,.07-.55,.2-.13,.13-.2,.33-.2,.6v1.35h-.81v-2.87h.78v.38Zm4.17,1.07s0,.09-.02,.22h-2.12c.04,.18,.13,.32,.27,.42,.14,.1,.32,.15,.53,.15,.15,0,.27-.02,.39-.06,.11-.05,.22-.12,.32-.21l.43,.48c-.26,.31-.65,.46-1.16,.46-.32,0-.6-.06-.84-.19-.24-.13-.43-.3-.56-.53-.13-.22-.2-.48-.2-.76s.06-.53,.19-.76c.13-.23,.31-.4,.54-.53,.23-.13,.49-.19,.77-.19s.52,.06,.75,.18c.22,.12,.4,.3,.52,.52,.13,.22,.19,.49,.19,.78Zm-1.46-.86c-.18,0-.34,.05-.46,.16-.13,.11-.2,.25-.23,.44h1.38c-.03-.18-.1-.33-.23-.43-.13-.11-.28-.17-.46-.17Zm3.7-.63c.35,0,.63,.11,.84,.32,.22,.21,.32,.53,.32,.95v1.64h-.81v-1.51c0-.23-.05-.4-.15-.51-.1-.11-.24-.17-.42-.17-.21,0-.37,.07-.49,.2-.12,.13-.18,.32-.18,.58v1.42h-.81v-2.87h.78v.34c.11-.12,.24-.21,.4-.28,.16-.07,.34-.1,.53-.1Zm3.71,2.77c-.08,.06-.18,.11-.3,.14-.11,.03-.24,.04-.37,.04-.33,0-.59-.09-.78-.26-.18-.17-.27-.43-.27-.77v-1.18h-.43v-.64h.43v-.7h.81v.7h.7v.64h-.7v1.17c0,.12,.03,.22,.09,.28,.06,.06,.15,.1,.26,.1,.13,0,.24-.04,.33-.11l.22,.59Zm1.93-3.82h.81v3.96h-.81v-3.96Zm2.9,4c-.3,0-.56-.06-.8-.19-.23-.13-.42-.3-.55-.53-.13-.22-.2-.48-.2-.76s.07-.54,.2-.76,.31-.4,.55-.52c.24-.13,.5-.19,.8-.19s.56,.06,.79,.19c.23,.12,.42,.3,.55,.52s.2,.48,.2,.76-.07,.54-.2,.76c-.13,.22-.31,.4-.55,.53-.23,.12-.5,.19-.79,.19Zm0-.68c.21,0,.38-.07,.51-.21,.14-.15,.2-.34,.2-.58s-.07-.43-.2-.58c-.13-.15-.3-.22-.51-.22s-.38,.07-.52,.22c-.14,.14-.2,.33-.2,.58s.07,.44,.2,.58c.14,.14,.31,.21,.52,.21Zm3.44,.68c-.3,0-.57-.06-.81-.19-.24-.13-.42-.3-.56-.53-.13-.22-.2-.48-.2-.76s.07-.54,.2-.76c.14-.22,.32-.4,.56-.52,.24-.13,.51-.19,.81-.19s.55,.06,.77,.19c.22,.12,.38,.3,.49,.54l-.63,.35c-.15-.26-.36-.39-.63-.39-.21,0-.39,.07-.53,.21-.14,.14-.21,.34-.21,.58s.07,.44,.21,.58c.14,.14,.31,.21,.53,.21,.28,0,.49-.13,.63-.39l.63,.35c-.1,.23-.26,.41-.49,.53-.22,.13-.48,.19-.77,.19Zm2.86-2.95c.43,0,.77,.11,1,.32,.23,.21,.35,.53,.35,.95v1.64h-.76v-.36c-.15,.27-.44,.4-.86,.4-.22,0-.4-.04-.56-.11-.16-.07-.28-.18-.36-.31s-.13-.28-.13-.45c0-.27,.1-.48,.29-.63,.2-.15,.5-.23,.91-.23h.65c0-.18-.05-.32-.16-.42-.11-.1-.27-.15-.49-.15-.15,0-.3,.02-.44,.07-.14,.05-.26,.11-.37,.19l-.29-.58c.15-.11,.34-.2,.55-.26,.22-.06,.44-.09,.66-.09Zm-.06,2.39c.14,0,.26-.03,.37-.1,.11-.07,.18-.17,.23-.29v-.29h-.56c-.33,0-.5,.11-.5,.34,0,.11,.04,.19,.12,.26,.08,.06,.2,.09,.34,.09Zm3.96,.38c-.08,.06-.18,.11-.3,.14-.11,.03-.24,.04-.37,.04-.33,0-.59-.09-.78-.26-.18-.17-.27-.43-.27-.77v-1.18h-.43v-.64h.43v-.7h.81v.7h.7v.64h-.7v1.17c0,.12,.03,.22,.09,.28,.06,.06,.15,.1,.26,.1,.13,0,.24-.04,.33-.11l.22,.59Zm.46-2.73h.81v2.87h-.81v-2.87Zm.41-.4c-.15,0-.27-.04-.37-.13-.09-.09-.14-.2-.14-.33s.05-.24,.14-.33,.22-.13,.37-.13,.27,.04,.37,.13c.09,.09,.14,.19,.14,.32,0,.14-.05,.25-.14,.35-.09,.09-.22,.13-.37,.13Zm2.5,3.31c-.3,0-.56-.06-.8-.19-.23-.13-.42-.3-.55-.53-.13-.22-.2-.48-.2-.76s.07-.54,.2-.76,.31-.4,.55-.52c.24-.13,.5-.19,.8-.19s.56,.06,.79,.19c.23,.12,.42,.3,.55,.52s.2,.48,.2,.76-.07,.54-.2,.76c-.13,.22-.31,.4-.55,.53-.23,.12-.5,.19-.79,.19Zm0-.68c.21,0,.38-.07,.51-.21,.14-.15,.2-.34,.2-.58s-.07-.43-.2-.58c-.13-.15-.3-.22-.51-.22s-.38,.07-.52,.22c-.14,.14-.2,.33-.2,.58s.07,.44,.2,.58c.14,.14,.31,.21,.52,.21Zm3.79-2.27c.35,0,.63,.11,.84,.32,.22,.21,.32,.53,.32,.95v1.64h-.81v-1.51c0-.23-.05-.4-.15-.51-.1-.11-.24-.17-.42-.17-.21,0-.37,.07-.49,.2-.12,.13-.18,.32-.18,.58v1.42h-.81v-2.87h.78v.34c.11-.12,.24-.21,.4-.28,.16-.07,.34-.1,.53-.1Zm4.71,2.95c-.3,0-.56-.06-.8-.19-.23-.13-.42-.3-.55-.53-.13-.22-.2-.48-.2-.76s.07-.54,.2-.76c.13-.22,.31-.4,.55-.52,.24-.13,.5-.19,.8-.19s.56,.06,.79,.19c.23,.12,.42,.3,.55,.52s.2,.48,.2,.76-.07,.54-.2,.76c-.13,.22-.31,.4-.55,.53-.23,.12-.5,.19-.79,.19Zm0-.68c.21,0,.38-.07,.51-.21,.14-.15,.2-.34,.2-.58s-.07-.43-.2-.58c-.13-.15-.3-.22-.51-.22s-.38,.07-.52,.22c-.14,.14-.2,.33-.2,.58s.07,.44,.2,.58c.14,.14,.31,.21,.52,.21Zm2.86-1.85c.1-.14,.23-.24,.39-.31,.17-.07,.36-.11,.57-.11v.77c-.09,0-.15-.01-.18-.01-.23,0-.42,.07-.55,.2-.13,.13-.2,.33-.2,.6v1.35h-.81v-2.87h.78v.38Zm-94.94,7.58s0,.09-.02,.22h-2.12c.04,.18,.13,.32,.27,.42,.14,.1,.32,.15,.53,.15,.15,0,.27-.02,.39-.06,.11-.05,.22-.12,.32-.21l.43,.48c-.26,.31-.65,.46-1.16,.46-.32,0-.6-.06-.84-.19-.24-.13-.43-.3-.56-.53-.13-.22-.2-.48-.2-.76s.06-.53,.19-.76c.13-.23,.31-.4,.54-.53,.23-.13,.49-.19,.77-.19s.52,.06,.75,.18c.22,.12,.4,.3,.52,.52,.13,.22,.19,.49,.19,.78Zm-1.46-.86c-.18,0-.34,.05-.46,.16-.13,.11-.2,.25-.23,.44h1.38c-.03-.18-.1-.33-.23-.43-.13-.11-.28-.17-.46-.17Zm3.7-.63c.35,0,.63,.11,.84,.32,.22,.21,.32,.53,.32,.95v1.64h-.81v-1.51c0-.23-.05-.4-.15-.51-.1-.11-.24-.17-.42-.17-.21,0-.37,.07-.49,.2-.12,.13-.18,.32-.18,.58v1.42h-.81v-2.87h.78v.34c.11-.12,.24-.21,.4-.28,.16-.07,.34-.1,.53-.1Zm3.03,0c.43,0,.77,.11,1,.32,.23,.21,.35,.53,.35,.95v1.64h-.76v-.36c-.15,.27-.44,.4-.86,.4-.22,0-.4-.04-.56-.11-.16-.07-.28-.18-.36-.31s-.13-.28-.13-.45c0-.27,.1-.48,.29-.63,.2-.15,.5-.23,.91-.23h.65c0-.18-.05-.32-.16-.42-.11-.1-.27-.15-.49-.15-.15,0-.3,.02-.44,.07-.14,.05-.26,.11-.37,.19l-.29-.58c.15-.11,.34-.2,.55-.26,.22-.06,.44-.09,.66-.09Zm-.06,2.39c.14,0,.26-.03,.37-.1,.11-.07,.18-.17,.23-.29v-.29h-.56c-.33,0-.5,.11-.5,.34,0,.11,.04,.19,.12,.26,.08,.06,.2,.09,.34,.09Zm3.81-2.39c.26,0,.5,.06,.71,.19,.22,.12,.38,.29,.51,.52,.12,.22,.18,.48,.18,.77s-.06,.55-.18,.78c-.12,.22-.29,.39-.51,.52-.21,.12-.45,.18-.71,.18-.39,0-.68-.12-.88-.37v.33h-.78v-3.96h.81v1.39c.21-.23,.49-.35,.84-.35Zm-.14,2.27c.21,0,.38-.07,.51-.21,.14-.15,.2-.34,.2-.58s-.07-.43-.2-.58c-.13-.15-.3-.22-.51-.22s-.38,.07-.52,.22c-.13,.14-.2,.33-.2,.58s.07,.44,.2,.58c.14,.14,.31,.21,.52,.21Zm2.08-3.32h.81v3.96h-.81v-3.96Zm4.32,2.53s0,.09-.02,.22h-2.12c.04,.18,.13,.32,.27,.42,.14,.1,.32,.15,.53,.15,.15,0,.27-.02,.39-.06,.11-.05,.22-.12,.32-.21l.43,.48c-.26,.31-.65,.46-1.16,.46-.32,0-.6-.06-.84-.19-.24-.13-.43-.3-.56-.53-.13-.22-.2-.48-.2-.76s.06-.53,.19-.76c.13-.23,.31-.4,.54-.53,.23-.13,.49-.19,.77-.19s.52,.06,.75,.18c.22,.12,.4,.3,.52,.52,.13,.22,.19,.49,.19,.78Zm-1.46-.86c-.18,0-.34,.05-.46,.16-.13,.11-.2,.25-.23,.44h1.38c-.03-.18-.1-.33-.23-.43-.13-.11-.28-.17-.46-.17Zm6.26-.59l-1.27,3.04c-.13,.33-.29,.56-.48,.7-.19,.14-.42,.2-.68,.2-.15,0-.29-.02-.43-.07-.14-.05-.26-.11-.35-.19l.3-.59c.06,.06,.13,.1,.21,.13,.08,.03,.17,.05,.25,.05,.11,0,.2-.03,.27-.09,.07-.05,.13-.14,.19-.27v-.03l-1.2-2.89h.84l.79,1.95,.79-1.95h.78Zm1.59,2.91c-.3,0-.56-.06-.8-.19-.23-.13-.42-.3-.55-.53-.13-.22-.2-.48-.2-.76s.07-.54,.2-.76,.31-.4,.55-.52c.24-.13,.5-.19,.8-.19s.56,.06,.79,.19c.23,.12,.42,.3,.55,.52,.13,.22,.2,.48,.2,.76s-.07,.54-.2,.76c-.13,.22-.31,.4-.55,.53-.23,.12-.5,.19-.79,.19Zm0-.68c.21,0,.38-.07,.51-.21,.14-.15,.2-.34,.2-.58s-.07-.43-.2-.58c-.13-.15-.3-.22-.51-.22s-.38,.07-.52,.22c-.14,.14-.2,.33-.2,.58s.07,.44,.2,.58c.14,.14,.31,.21,.52,.21Zm4.91-2.23v2.87h-.77v-.34c-.11,.12-.24,.22-.39,.29-.15,.06-.31,.1-.49,.1-.37,0-.66-.11-.88-.33-.22-.22-.32-.54-.32-.97v-1.62h.81v1.5c0,.46,.19,.69,.57,.69,.19,0,.35-.06,.47-.19,.12-.13,.18-.33,.18-.58v-1.42h.81Zm1.53,.38c.1-.14,.23-.24,.39-.31,.17-.07,.36-.11,.57-.11v.77c-.09,0-.15-.01-.18-.01-.23,0-.42,.07-.55,.2-.13,.13-.2,.33-.2,.6v1.35h-.81v-2.87h.78v.38Zm4.6-.42c.26,0,.5,.06,.71,.19,.22,.12,.38,.29,.51,.52,.12,.22,.18,.48,.18,.77s-.06,.55-.18,.78c-.12,.22-.29,.39-.51,.52-.21,.12-.45,.18-.71,.18-.36,0-.64-.12-.84-.35v1.34h-.81v-3.9h.78v.33c.2-.25,.5-.37,.88-.37Zm-.14,2.27c.21,0,.38-.07,.51-.21,.14-.15,.2-.34,.2-.58s-.07-.43-.2-.58c-.13-.15-.3-.22-.51-.22s-.38,.07-.52,.22c-.13,.14-.2,.33-.2,.58s.07,.44,.2,.58c.14,.14,.31,.21,.52,.21Zm3.79-2.27c.35,0,.63,.11,.84,.32,.22,.21,.32,.53,.32,.95v1.64h-.81v-1.51c0-.23-.05-.4-.15-.51-.1-.11-.24-.17-.42-.17-.21,0-.37,.07-.49,.2-.12,.13-.18,.32-.18,.58v1.42h-.81v-3.96h.81v1.39c.11-.11,.24-.19,.39-.25,.15-.06,.32-.09,.5-.09Zm3.27,2.95c-.3,0-.56-.06-.8-.19-.23-.13-.42-.3-.55-.53-.13-.22-.2-.48-.2-.76s.07-.54,.2-.76c.13-.22,.31-.4,.55-.52,.24-.13,.5-.19,.8-.19s.56,.06,.79,.19c.23,.12,.42,.3,.55,.52,.13,.22,.2,.48,.2,.76s-.07,.54-.2,.76c-.13,.22-.31,.4-.55,.53-.23,.12-.5,.19-.79,.19Zm0-.68c.21,0,.38-.07,.51-.21,.14-.15,.2-.34,.2-.58s-.07-.43-.2-.58c-.13-.15-.3-.22-.51-.22s-.38,.07-.52,.22c-.14,.14-.2,.33-.2,.58s.07,.44,.2,.58c.14,.14,.31,.21,.52,.21Zm3.79-2.27c.35,0,.63,.11,.84,.32,.22,.21,.32,.53,.32,.95v1.64h-.81v-1.51c0-.23-.05-.4-.15-.51-.1-.11-.24-.17-.42-.17-.21,0-.37,.07-.49,.2-.12,.13-.18,.32-.18,.58v1.42h-.81v-2.87h.78v.34c.11-.12,.24-.21,.4-.28,.16-.07,.34-.1,.53-.1Zm4.68,1.49s0,.09-.02,.22h-2.12c.04,.18,.13,.32,.27,.42,.14,.1,.32,.15,.53,.15,.15,0,.27-.02,.39-.06,.11-.05,.22-.12,.32-.21l.43,.48c-.26,.31-.65,.46-1.16,.46-.32,0-.6-.06-.84-.19-.24-.13-.43-.3-.56-.53-.13-.22-.2-.48-.2-.76s.06-.53,.19-.76c.13-.23,.31-.4,.54-.53,.23-.13,.49-.19,.77-.19s.52,.06,.75,.18c.22,.12,.4,.3,.52,.52,.13,.22,.19,.49,.19,.78Zm-1.46-.86c-.18,0-.34,.05-.46,.16-.13,.11-.2,.25-.23,.44h1.38c-.03-.18-.1-.33-.23-.43-.13-.11-.28-.17-.46-.17Zm2.31-1.72c.15,0,.27,.05,.36,.14,.09,.09,.14,.22,.14,.37,0,.07,0,.14-.03,.21s-.05,.18-.11,.32l-.3,.77h-.52l.22-.84c-.09-.04-.15-.1-.2-.18-.05-.08-.07-.17-.07-.28,0-.15,.05-.28,.14-.37,.1-.1,.22-.14,.37-.14Zm1.9,4.04c-.23,0-.46-.03-.68-.09-.22-.06-.4-.14-.53-.22l.27-.6c.13,.08,.28,.15,.45,.2,.18,.05,.35,.07,.52,.07,.34,0,.52-.09,.52-.26,0-.08-.05-.14-.14-.18-.09-.04-.24-.07-.43-.09-.23-.04-.42-.08-.57-.12-.15-.05-.28-.13-.39-.25-.11-.12-.16-.28-.16-.5,0-.18,.05-.34,.15-.48,.1-.14,.25-.25,.45-.33,.2-.08,.43-.12,.7-.12,.2,0,.39,.02,.59,.07,.2,.04,.36,.1,.49,.18l-.27,.59c-.25-.14-.52-.21-.81-.21-.17,0-.3,.02-.39,.07s-.13,.11-.13,.19c0,.09,.05,.15,.14,.19,.09,.04,.24,.07,.45,.1,.23,.04,.42,.08,.56,.13,.15,.04,.27,.12,.38,.24,.11,.12,.16,.28,.16,.49,0,.18-.05,.34-.16,.47s-.26,.25-.46,.33c-.2,.07-.43,.11-.71,.11Zm3.3-4h.81v3.96h-.81v-3.96Zm2.9,4c-.3,0-.56-.06-.8-.19-.23-.13-.42-.3-.55-.53-.13-.22-.2-.48-.2-.76s.07-.54,.2-.76,.31-.4,.55-.52c.24-.13,.5-.19,.8-.19s.56,.06,.79,.19c.23,.12,.42,.3,.55,.52,.13,.22,.2,.48,.2,.76s-.07,.54-.2,.76c-.13,.22-.31,.4-.55,.53-.23,.12-.5,.19-.79,.19Zm0-.68c.21,0,.38-.07,.51-.21,.14-.15,.2-.34,.2-.58s-.07-.43-.2-.58c-.13-.15-.3-.22-.51-.22s-.38,.07-.52,.22c-.14,.14-.2,.33-.2,.58s.07,.44,.2,.58c.14,.14,.31,.21,.52,.21Zm3.44,.68c-.3,0-.57-.06-.81-.19-.24-.13-.42-.3-.56-.53-.13-.22-.2-.48-.2-.76s.07-.54,.2-.76c.14-.22,.32-.4,.56-.52,.24-.13,.51-.19,.81-.19s.55,.06,.77,.19c.22,.12,.38,.3,.49,.54l-.63,.35c-.15-.26-.36-.39-.63-.39-.21,0-.39,.07-.53,.21s-.21,.34-.21,.58,.07,.44,.21,.58c.14,.14,.31,.21,.53,.21,.28,0,.49-.13,.63-.39l.63,.35c-.1,.23-.26,.41-.49,.53-.22,.13-.48,.19-.77,.19Zm2.86-2.95c.43,0,.77,.11,1,.32,.23,.21,.35,.53,.35,.95v1.64h-.76v-.36c-.15,.27-.44,.4-.86,.4-.22,0-.4-.04-.56-.11-.16-.07-.28-.18-.36-.31-.08-.13-.13-.28-.13-.45,0-.27,.1-.48,.29-.63,.2-.15,.5-.23,.91-.23h.65c0-.18-.05-.32-.16-.42-.11-.1-.27-.15-.49-.15-.15,0-.3,.02-.44,.07-.14,.05-.26,.11-.37,.19l-.29-.58c.15-.11,.34-.2,.55-.26,.22-.06,.44-.09,.66-.09Zm-.06,2.39c.14,0,.26-.03,.37-.1,.11-.07,.18-.17,.23-.29v-.29h-.56c-.33,0-.5,.11-.5,.34,0,.11,.04,.19,.12,.26,.08,.06,.2,.09,.34,.09Zm3.96,.38c-.08,.06-.18,.11-.3,.14-.11,.03-.24,.04-.37,.04-.33,0-.59-.09-.78-.26-.18-.17-.27-.43-.27-.77v-1.18h-.43v-.64h.43v-.7h.81v.7h.7v.64h-.7v1.17c0,.12,.03,.22,.09,.28,.06,.06,.15,.1,.26,.1,.13,0,.24-.04,.33-.11l.22,.59Zm.46-2.73h.81v2.87h-.81v-2.87Zm.41-.4c-.15,0-.27-.04-.37-.13-.09-.09-.14-.2-.14-.33s.05-.24,.14-.33,.22-.13,.37-.13,.27,.04,.37,.13c.09,.09,.14,.19,.14,.32,0,.14-.05,.25-.14,.35-.09,.09-.22,.13-.37,.13Zm2.5,3.31c-.3,0-.56-.06-.8-.19-.23-.13-.42-.3-.55-.53-.13-.22-.2-.48-.2-.76s.07-.54,.2-.76c.13-.22,.31-.4,.55-.52,.24-.13,.5-.19,.8-.19s.56,.06,.79,.19c.23,.12,.42,.3,.55,.52s.2,.48,.2,.76-.07,.54-.2,.76c-.13,.22-.31,.4-.55,.53-.23,.12-.5,.19-.79,.19Zm0-.68c.21,0,.38-.07,.51-.21,.14-.15,.2-.34,.2-.58s-.07-.43-.2-.58c-.13-.15-.3-.22-.51-.22s-.38,.07-.52,.22c-.14,.14-.2,.33-.2,.58s.07,.44,.2,.58c.14,.14,.31,.21,.52,.21Zm3.79-2.27c.35,0,.63,.11,.84,.32,.22,.21,.32,.53,.32,.95v1.64h-.81v-1.51c0-.23-.05-.4-.15-.51-.1-.11-.24-.17-.42-.17-.21,0-.37,.07-.49,.2-.12,.13-.18,.32-.18,.58v1.42h-.81v-2.87h.78v.34c.11-.12,.24-.21,.4-.28,.16-.07,.34-.1,.53-.1Zm4.32,2.95c-.23,0-.46-.03-.68-.09-.22-.06-.4-.14-.53-.22l.27-.6c.13,.08,.28,.15,.45,.2,.18,.05,.35,.07,.52,.07,.34,0,.52-.09,.52-.26,0-.08-.05-.14-.14-.18-.09-.04-.24-.07-.43-.09-.23-.04-.42-.08-.57-.12-.15-.05-.28-.13-.39-.25-.11-.12-.16-.28-.16-.5,0-.18,.05-.34,.15-.48,.1-.14,.25-.25,.45-.33,.2-.08,.43-.12,.7-.12,.2,0,.39,.02,.59,.07,.2,.04,.36,.1,.49,.18l-.27,.59c-.25-.14-.52-.21-.81-.21-.17,0-.3,.02-.39,.07-.09,.05-.13,.11-.13,.19,0,.09,.05,.15,.14,.19,.09,.04,.24,.07,.45,.1,.23,.04,.42,.08,.56,.13,.15,.04,.27,.12,.38,.24s.16,.28,.16,.49c0,.18-.05,.34-.16,.47-.1,.14-.26,.25-.46,.33-.2,.07-.43,.11-.71,.11Zm4.58-1.47s0,.09-.02,.22h-2.12c.04,.18,.13,.32,.27,.42,.14,.1,.32,.15,.53,.15,.15,0,.27-.02,.39-.06,.11-.05,.22-.12,.32-.21l.43,.48c-.26,.31-.65,.46-1.16,.46-.32,0-.6-.06-.84-.19-.24-.13-.43-.3-.56-.53-.13-.22-.2-.48-.2-.76s.06-.53,.19-.76c.13-.23,.31-.4,.54-.53,.23-.13,.49-.19,.77-.19s.52,.06,.75,.18c.22,.12,.4,.3,.52,.52,.13,.22,.19,.49,.19,.78Zm-1.46-.86c-.18,0-.34,.05-.46,.16-.13,.11-.2,.25-.23,.44h1.38c-.03-.18-.1-.33-.23-.43-.13-.11-.28-.17-.46-.17Zm2.77-.21c.1-.14,.23-.24,.39-.31,.17-.07,.36-.11,.57-.11v.77c-.09,0-.15-.01-.18-.01-.23,0-.42,.07-.55,.2-.13,.13-.2,.33-.2,.6v1.35h-.81v-2.87h.78v.38Zm4.33-.38l-1.18,2.87h-.84l-1.18-2.87h.84l.78,1.95,.8-1.95h.78Zm.33,0h.81v2.87h-.81v-2.87Zm.41-.4c-.15,0-.27-.04-.37-.13-.09-.09-.14-.2-.14-.33s.05-.24,.14-.33,.22-.13,.37-.13,.27,.04,.37,.13c.09,.09,.14,.19,.14,.32,0,.14-.05,.25-.14,.35-.09,.09-.22,.13-.37,.13Zm2.52,3.31c-.3,0-.57-.06-.81-.19-.24-.13-.42-.3-.56-.53-.13-.22-.2-.48-.2-.76s.07-.54,.2-.76c.14-.22,.32-.4,.56-.52,.24-.13,.51-.19,.81-.19s.55,.06,.77,.19c.22,.12,.38,.3,.49,.54l-.63,.35c-.15-.26-.36-.39-.63-.39-.21,0-.39,.07-.53,.21-.14,.14-.21,.34-.21,.58s.07,.44,.21,.58c.14,.14,.31,.21,.53,.21,.28,0,.49-.13,.63-.39l.63,.35c-.1,.23-.26,.41-.49,.53-.22,.13-.48,.19-.77,.19Zm4.44-1.47s0,.09-.02,.22h-2.12c.04,.18,.13,.32,.27,.42,.14,.1,.32,.15,.53,.15,.15,0,.27-.02,.39-.06,.11-.05,.22-.12,.32-.21l.43,.48c-.26,.31-.65,.46-1.16,.46-.32,0-.6-.06-.84-.19-.24-.13-.43-.3-.56-.53-.13-.22-.2-.48-.2-.76s.06-.53,.19-.76c.13-.23,.31-.4,.54-.53,.23-.13,.49-.19,.77-.19s.52,.06,.75,.18c.22,.12,.4,.3,.52,.52,.13,.22,.19,.49,.19,.78Zm-1.46-.86c-.18,0-.34,.05-.46,.16-.13,.11-.2,.25-.23,.44h1.38c-.03-.18-.1-.33-.23-.43-.13-.11-.28-.17-.46-.17Z"/><path class="cls-4" d="M115.62,177.22c0-1.47,1.17-2.67,2.61-2.67h44.04c1.44,0,2.61,1.19,2.61,2.67v25.77c0,1.47-1.17,2.67-2.61,2.67h-44.04c-1.44,0-2.61-1.19-2.61-2.67v-25.77Z"/><path class="cls-18" d="M124.31,191.74c0-.82,.65-1.48,1.45-1.48h28.97c.8,0,1.45,.66,1.45,1.48v8.29c0,.82-.65,1.48-1.45,1.48h-28.97c-.8,0-1.45-.66-1.45-1.48v-8.29Z"/><path class="cls-15" d="M124.31,191.74c0-.82,.65-1.48,1.45-1.48h28.97c.8,0,1.45,.66,1.45,1.48v8.29c0,.82-.65,1.48-1.45,1.48h-28.97c-.8,0-1.45-.66-1.45-1.48v-8.29Z"/><g class="cls-37"><path class="cls-25" d="M139.22,155.35c-5.55,1.27,2.15,11.14,2.15,11.14,5.7-1,9.97-2.89,9.26-5.67-.71-2.78-5.86-6.74-11.41-5.47Z"/></g><path class="cls-39" d="M135.61,151.3c-3.19,5.63,4.99,15.63,4.99,15.63,3.99-5.59,6.59-11.48,5.07-15.12-1.51-3.64-6.87-6.14-10.06-.51Z"/><ellipse class="cls-2" cx="140.22" cy="153.51" rx="2.27" ry="1.96"/><path class="cls-30" d="M129.37,184.12h-1.7l-.32,.8h-.87l1.63-3.73h.83l1.63,3.73h-.89l-.32-.8Zm-.27-.66l-.58-1.43-.58,1.43h1.16Zm5.2-2.28v3.73h-.69l-1.82-2.27v2.27h-.83v-3.73h.7l1.81,2.27v-2.27h.83Zm3.82,3.03v.7h-3.19v-.56l2-2.47h-1.96v-.7h3.07v.56l-2,2.47h2.08Zm4.7-1.24c.21,.07,.37,.18,.49,.34,.12,.16,.18,.35,.18,.58,0,.33-.13,.58-.38,.76-.25,.17-.61,.26-1.08,.26h-1.89v-3.73h1.78c.45,0,.79,.09,1.02,.26,.24,.17,.36,.41,.36,.71,0,.18-.04,.34-.13,.49-.08,.14-.2,.25-.35,.34Zm-1.84-1.14v.88h.84c.21,0,.37-.04,.47-.11,.11-.07,.16-.18,.16-.33s-.05-.25-.16-.33c-.11-.07-.27-.11-.47-.11h-.84Zm.99,2.43c.22,0,.39-.04,.5-.11,.11-.07,.17-.19,.17-.35,0-.31-.22-.46-.67-.46h-.99v.92h.99Zm3.24-2.26c.43,0,.77,.11,1,.32,.23,.21,.35,.53,.35,.95v1.64h-.76v-.36c-.15,.27-.44,.4-.86,.4-.22,0-.4-.04-.56-.11-.16-.07-.28-.18-.36-.31-.08-.13-.13-.28-.13-.45,0-.27,.1-.48,.29-.63,.2-.15,.5-.23,.91-.23h.65c0-.18-.05-.32-.16-.42-.11-.1-.27-.15-.49-.15-.15,0-.3,.02-.44,.07-.14,.05-.26,.11-.37,.19l-.29-.58c.15-.11,.34-.2,.55-.26,.22-.06,.44-.09,.66-.09Zm-.06,2.39c.14,0,.26-.03,.37-.1,.11-.07,.18-.17,.23-.29v-.29h-.56c-.33,0-.5,.11-.5,.34,0,.11,.04,.19,.12,.26,.08,.06,.2,.09,.34,.09Zm3.86-2.39c.35,0,.63,.11,.84,.32,.22,.21,.32,.53,.32,.95v1.64h-.81v-1.51c0-.23-.05-.4-.15-.51-.1-.11-.24-.17-.42-.17-.21,0-.37,.07-.49,.2-.12,.13-.18,.32-.18,.58v1.42h-.81v-2.87h.78v.34c.11-.12,.24-.21,.4-.28,.16-.07,.34-.1,.53-.1Zm3.11,1.79l-.39,.39v.73h-.81v-3.96h.81v2.24l1.19-1.15h.97l-1.17,1.22,1.27,1.65h-.99l-.89-1.12Z"/><path class="cls-2" d="M128.1,194.16h.66v2.9h-.66v-2.9Zm3.76,.64c.27,0,.49,.08,.65,.25,.17,.17,.25,.41,.25,.74v1.28h-.63v-1.18c0-.18-.04-.31-.11-.39-.08-.09-.19-.13-.33-.13-.16,0-.29,.05-.38,.15-.09,.1-.14,.25-.14,.45v1.1h-.63v-2.23h.6v.26c.08-.09,.19-.17,.31-.22,.12-.05,.26-.08,.41-.08Zm3.64,1.16s0,.07-.01,.17h-1.65c.03,.14,.1,.25,.21,.33,.11,.08,.25,.12,.41,.12,.11,0,.21-.02,.3-.05,.09-.04,.17-.09,.25-.17l.34,.37c-.21,.24-.51,.36-.9,.36-.25,0-.46-.05-.65-.15-.19-.1-.34-.24-.44-.41-.1-.17-.15-.37-.15-.59s.05-.41,.15-.59c.1-.18,.24-.31,.42-.41,.18-.1,.38-.15,.6-.15s.41,.05,.58,.14c.17,.09,.31,.23,.41,.41,.1,.17,.15,.38,.15,.61Zm-1.13-.67c-.14,0-.26,.04-.36,.12-.1,.08-.16,.2-.18,.34h1.07c-.02-.14-.08-.25-.18-.34-.1-.09-.22-.13-.36-.13Zm3.69,.67s0,.07-.01,.17h-1.65c.03,.14,.1,.25,.21,.33,.11,.08,.25,.12,.41,.12,.11,0,.21-.02,.3-.05,.09-.04,.17-.09,.25-.17l.34,.37c-.21,.24-.51,.36-.9,.36-.25,0-.46-.05-.65-.15-.19-.1-.34-.24-.44-.41-.1-.17-.15-.37-.15-.59s.05-.41,.15-.59c.1-.18,.24-.31,.42-.41,.18-.1,.38-.15,.6-.15s.41,.05,.58,.14c.17,.09,.31,.23,.41,.41,.1,.17,.15,.38,.15,.61Zm-1.13-.67c-.14,0-.26,.04-.36,.12-.1,.08-.16,.2-.18,.34h1.07c-.02-.14-.08-.25-.18-.34-.1-.09-.22-.13-.36-.13Zm3.78-1.3v3.08h-.6v-.26c-.16,.19-.38,.29-.68,.29-.21,0-.39-.05-.56-.14-.16-.09-.29-.23-.39-.4-.09-.17-.14-.38-.14-.61s.05-.43,.14-.61c.09-.17,.22-.31,.39-.4,.17-.09,.35-.14,.56-.14,.28,0,.5,.09,.65,.27v-1.08h.63Zm-1.18,2.58c.16,0,.29-.06,.4-.17,.11-.11,.16-.26,.16-.45s-.05-.34-.16-.45c-.11-.11-.24-.17-.4-.17s-.3,.06-.4,.17c-.11,.11-.16,.26-.16,.45s.05,.34,.16,.45c.11,.11,.24,.17,.4,.17Zm4.24-1.77c.27,0,.49,.08,.65,.25,.17,.17,.25,.41,.25,.74v1.28h-.63v-1.18c0-.18-.04-.31-.11-.39-.08-.09-.19-.13-.33-.13-.16,0-.29,.05-.38,.15-.09,.1-.14,.25-.14,.45v1.1h-.63v-3.08h.63v1.08c.08-.09,.19-.15,.3-.19,.12-.05,.25-.07,.39-.07Zm3.64,1.16s0,.07-.01,.17h-1.65c.03,.14,.1,.25,.21,.33,.11,.08,.25,.12,.41,.12,.11,0,.21-.02,.3-.05,.09-.04,.17-.09,.25-.17l.34,.37c-.21,.24-.51,.36-.9,.36-.25,0-.46-.05-.65-.15-.19-.1-.34-.24-.44-.41-.1-.17-.15-.37-.15-.59s.05-.41,.15-.59c.1-.18,.24-.31,.42-.41,.18-.1,.38-.15,.6-.15s.41,.05,.58,.14c.17,.09,.31,.23,.41,.41,.1,.17,.15,.38,.15,.61Zm-1.13-.67c-.14,0-.26,.04-.36,.12-.1,.08-.16,.2-.18,.34h1.07c-.02-.14-.08-.25-.18-.34-.1-.09-.22-.13-.36-.13Zm1.55-1.3h.63v3.08h-.63v-3.08Zm2.51,.81c.2,0,.39,.05,.55,.15,.17,.09,.3,.23,.39,.4,.09,.17,.14,.37,.14,.6s-.05,.43-.14,.61c-.09,.17-.23,.31-.39,.4-.16,.09-.35,.14-.55,.14-.28,0-.5-.09-.66-.27v1.04h-.63v-3.04h.6v.26c.16-.19,.39-.29,.69-.29Zm-.11,1.77c.16,0,.29-.06,.4-.17,.11-.11,.16-.26,.16-.45s-.05-.34-.16-.45c-.1-.11-.24-.17-.4-.17s-.3,.06-.4,.17c-.1,.11-.15,.26-.15,.45s.05,.34,.15,.45c.11,.11,.24,.17,.4,.17Zm1.54-2.41h.75l-.13,1.9h-.5l-.13-1.9Zm.38,2.94c-.11,0-.2-.04-.28-.11-.07-.07-.11-.16-.11-.27s.04-.19,.11-.26c.07-.07,.17-.11,.28-.11s.21,.04,.28,.11c.07,.07,.11,.16,.11,.26s-.04,.19-.11,.27c-.07,.07-.16,.11-.28,.11Z"/><path class="cls-40" d="M88.83,30.78h104.83c2.81,0,5.08,2.28,5.08,5.08v22.13c0,4.44-3.6,8.03-8.03,8.03H91.8c-4.42,0-8.05-3.62-8.05-8.05v-22.12c0-2.81,2.28-5.08,5.08-5.08Z"/><path class="cls-2" d="M115.06,56.51h-2.77l-.49,1.3h-2.5l3.19-7.46h2.42l3.19,7.46h-2.55l-.49-1.3Zm-.68-1.81l-.71-1.88-.71,1.88h1.42Zm6.21,3.22c-.49,0-.97-.05-1.44-.16-.47-.11-.86-.25-1.15-.42l.65-1.59c.26,.16,.58,.29,.94,.38,.36,.09,.71,.14,1.05,.14,.27,0,.46-.02,.56-.06,.11-.05,.17-.12,.17-.21s-.07-.16-.21-.19c-.13-.04-.35-.07-.66-.11-.47-.06-.86-.13-1.19-.21-.33-.09-.62-.27-.87-.52-.24-.26-.37-.62-.37-1.1,0-.38,.11-.71,.33-1.01,.22-.3,.55-.54,.99-.71,.45-.18,.98-.27,1.6-.27,.43,0,.85,.04,1.26,.13,.42,.08,.77,.2,1.06,.35l-.65,1.59c-.5-.28-1.05-.43-1.65-.43-.51,0-.77,.09-.77,.28,0,.09,.07,.16,.21,.2,.14,.04,.36,.07,.66,.11,.47,.06,.86,.13,1.18,.22,.33,.09,.61,.27,.86,.52,.25,.26,.38,.62,.38,1.1,0,.36-.11,.69-.33,.99-.22,.3-.56,.54-1,.71-.45,.18-.98,.27-1.62,.27Zm5.9,0c-.49,0-.97-.05-1.44-.16s-.86-.25-1.15-.42l.65-1.59c.26,.16,.58,.29,.94,.38,.36,.09,.71,.14,1.05,.14,.27,0,.46-.02,.56-.06,.11-.05,.17-.12,.17-.21s-.07-.16-.21-.19c-.13-.04-.35-.07-.66-.11-.47-.06-.86-.13-1.19-.21-.33-.09-.62-.27-.87-.52-.24-.26-.37-.62-.37-1.1,0-.38,.11-.71,.33-1.01,.22-.3,.55-.54,.99-.71,.45-.18,.98-.27,1.6-.27,.43,0,.85,.04,1.26,.13,.42,.08,.77,.2,1.06,.35l-.65,1.59c-.5-.28-1.05-.43-1.65-.43-.51,0-.77,.09-.77,.28,0,.09,.07,.16,.21,.2,.14,.04,.36,.07,.66,.11,.47,.06,.86,.13,1.18,.22,.33,.09,.61,.27,.86,.52,.25,.26,.38,.62,.38,1.1,0,.36-.11,.69-.33,.99-.22,.3-.56,.54-1,.71-.45,.18-.98,.27-1.62,.27Zm3.67-5.94h2.36v5.83h-2.36v-5.83Zm1.18-.47c-.42,0-.77-.11-1.03-.34-.26-.23-.39-.53-.39-.89s.13-.65,.39-.87c.26-.23,.61-.35,1.03-.35s.78,.11,1.03,.33c.26,.22,.39,.5,.39,.85,0,.37-.13,.68-.39,.92-.26,.23-.6,.35-1.03,.35Zm4.46,6.41c-.49,0-.97-.05-1.44-.16-.47-.11-.86-.25-1.15-.42l.65-1.59c.26,.16,.58,.29,.94,.38,.36,.09,.71,.14,1.05,.14,.27,0,.46-.02,.56-.06,.11-.05,.17-.12,.17-.21s-.07-.16-.21-.19c-.13-.04-.35-.07-.66-.11-.47-.06-.86-.13-1.19-.21-.33-.09-.62-.27-.87-.52-.24-.26-.37-.62-.37-1.1,0-.38,.11-.71,.33-1.01,.22-.3,.55-.54,.99-.71,.45-.18,.98-.27,1.6-.27,.43,0,.85,.04,1.26,.13,.42,.08,.77,.2,1.06,.35l-.65,1.59c-.5-.28-1.05-.43-1.65-.43-.51,0-.77,.09-.77,.28,0,.09,.07,.16,.21,.2,.14,.04,.36,.07,.66,.11,.47,.06,.86,.13,1.18,.22,.33,.09,.61,.27,.86,.52,.25,.26,.38,.62,.38,1.1,0,.36-.11,.69-.33,.99-.22,.3-.56,.54-1,.71s-.98,.27-1.62,.27Zm7.87-.31c-.35,.21-.84,.31-1.45,.31-.8,0-1.42-.2-1.85-.59-.43-.4-.65-.99-.65-1.78v-1.49h-.78v-1.76h.78v-1.63h2.36v1.63h1.17v1.76h-1.17v1.47c0,.18,.05,.32,.14,.42,.09,.1,.21,.15,.35,.15,.2,0,.38-.05,.53-.16l.56,1.67Zm3.15-5.74c1,0,1.77,.23,2.29,.69,.53,.45,.79,1.16,.79,2.11v3.14h-2.19v-.77c-.27,.58-.81,.87-1.62,.87-.45,0-.84-.08-1.16-.23-.31-.16-.55-.38-.72-.65-.16-.28-.24-.59-.24-.93,0-.58,.22-1.01,.65-1.31,.43-.3,1.08-.45,1.96-.45h.95c-.08-.45-.43-.68-1.07-.68-.26,0-.52,.04-.78,.13-.26,.08-.49,.19-.68,.33l-.75-1.59c.33-.21,.72-.37,1.18-.48,.47-.12,.93-.18,1.39-.18Zm-.01,4.6c.17,0,.32-.05,.45-.14,.13-.09,.23-.23,.29-.42v-.41h-.58c-.48,0-.72,.16-.72,.49,0,.14,.05,.25,.15,.34,.1,.09,.24,.13,.42,.13Zm8.08-4.6c.7,0,1.27,.22,1.69,.65,.43,.43,.65,1.09,.65,1.96v3.33h-2.36v-2.91c0-.67-.23-1-.7-1-.26,0-.48,.1-.65,.29-.16,.18-.24,.48-.24,.89v2.74h-2.36v-5.83h2.24v.58c.22-.23,.48-.4,.77-.51,.29-.11,.61-.17,.95-.17Zm6.53,6.05c-.65,0-1.23-.13-1.74-.38-.51-.26-.91-.61-1.2-1.08-.29-.46-.43-.98-.43-1.57s.14-1.1,.43-1.56c.29-.46,.69-.82,1.2-1.08,.51-.26,1.1-.38,1.74-.38,.7,0,1.29,.15,1.78,.46,.49,.31,.83,.73,1.02,1.27l-1.83,.92c-.22-.51-.55-.77-.99-.77-.28,0-.51,.1-.7,.3-.18,.2-.27,.48-.27,.84s.09,.65,.27,.85c.19,.2,.42,.3,.7,.3,.44,0,.77-.26,.99-.77l1.83,.92c-.19,.54-.53,.96-1.02,1.27-.49,.31-1.09,.46-1.78,.46Zm9.37-3.03s-.01,.22-.03,.57h-3.96c.08,.22,.22,.39,.42,.51,.19,.11,.44,.17,.73,.17,.25,0,.46-.03,.63-.1,.17-.06,.36-.17,.56-.33l1.23,1.27c-.56,.63-1.39,.94-2.49,.94-.69,0-1.29-.13-1.81-.38-.52-.26-.92-.63-1.21-1.09-.29-.46-.43-.98-.43-1.56s.14-1.1,.42-1.56c.29-.46,.67-.82,1.16-1.08,.49-.26,1.05-.38,1.66-.38,.58,0,1.1,.12,1.58,.35,.48,.23,.86,.58,1.14,1.03,.29,.45,.43,1,.43,1.63Zm-3.12-1.38c-.24,0-.45,.07-.6,.2s-.26,.33-.31,.58h1.84c-.05-.24-.15-.43-.31-.57-.16-.14-.36-.21-.6-.21Z"/></g></g><g><path d="M189.01,28.14h-.06c-.21-.01-.42-.02-.64-.02H92c-.22,0-.44,0-.65,.01h-.1c-6.96,.4-12.41,6.16-12.41,13.14v231c0,6.82,5.32,12.58,12.11,13.12,.1,0,.21,.02,.32,.02h.04c.23,.01,.46,.02,.69,.02h96.31c.23,0,.45,0,.68-.02h.04c.11,0,.23-.01,.33-.02,6.79-.53,12.1-6.3,12.1-13.11V41.28c0-7-5.47-12.77-12.46-13.14Zm8.95,244.14c0,5-3.9,9.23-8.87,9.62-.05,0-.09,0-.14,0h-.15c-.16,.01-.33,.02-.49,.02H92c-.17,0-.33,0-.5-.01h-.14s-.08-.01-.13-.02c-4.98-.39-8.88-4.62-8.88-9.62V41.28c0-5.08,3.95-9.29,9.01-9.63h.22c.15-.02,.29-.02,.42-.02h96.31c.13,0,.27,0,.43,0h.08c5.12,.27,9.13,4.51,9.13,9.64v231Z"/><path d="M172.9,31.63v1.26c0,4.24-3.44,7.68-7.68,7.68h-50.13c-4.24,0-7.68-3.44-7.68-7.68v-1.26h65.49Z"/></g><path d="M172.9,31.64v1.26c0,4.24-3.44,7.68-7.68,7.68h-50.13c-4.24,0-7.68-3.44-7.68-7.68v-1.26h65.49Z"/></g><rect class="cls-1" x="132.07" y="32.67" width="15.37" height="1.61" rx=".68" ry=".68"/></g><path class="cls-3" d="M184.92,34.85c-.5-.42-1.13-.65-1.79-.65s-1.3,.23-1.8,.65l-.04,.04s-.04,.08,0,.11l.3,.29s.07,.03,.11,0l.04-.03c.39-.33,.89-.5,1.41-.5s1.01,.18,1.4,.5l.04,.03s.08,.02,.11,0l.3-.29s.03-.08,0-.11l-.04-.04Zm-1.79,.24c.42,0,.82,.14,1.14,.39l.05,.04s.04,.08,0,.11l-.3,.29s-.07,.03-.1,0l-.04-.03c-.22-.16-.49-.25-.76-.25s-.54,.09-.77,.25l-.04,.03s-.07,.02-.1,0l-.3-.29s-.03-.09,0-.11l.05-.04c.33-.25,.73-.39,1.15-.39Zm0,.89c.17,0,.33,.04,.47,.13l.06,.03s.05,.08,.02,.12l-.5,.49s-.08,.03-.11,0l-.49-.48s-.03-.09,.02-.12l.06-.03c.14-.08,.31-.13,.48-.13Z"/></g><path class="cls-16" d="M188.76,31.66h-.22c-.16-.02-.3-.02-.43-.02h-14.18c-.81,.04-1.47,.67-1.55,1.47,0,.05,0,.11,0,.17v.02c-.19,4.16-3.63,7.47-7.83,7.47h-51.17c-4.2,0-7.63-3.31-7.83-7.47v-.02c0-.06,0-.11,0-.17-.08-.8-.74-1.43-1.55-1.47h-14.18c-.13,0-.28,0-.43,0h-.22c-5.16,.35-9.19,4.65-9.19,9.84v235.78c0,5.1,3.98,9.42,9.06,9.81,.05,0,.09,0,.13,.01h.14c.17,.01,.34,.02,.51,.02h98.3c.17,0,.34,0,.51-.01h.14s.08-.01,.13-.02c5.08-.4,9.06-4.71,9.06-9.81V41.48c0-5.19-4.03-9.49-9.19-9.82Z"/></g><path class="cls-7" d="M187.18,34.33h4.98c.36,0,.65,.29,.65,.64v1.67c0,.35-.29,.64-.65,.64h-4.98c-.36,0-.65-.29-.65-.64v-1.67c0-.35,.29-.64,.65-.64Zm0,.26c-.22,0-.39,.17-.39,.39v1.67c0,.21,.18,.39,.39,.39h4.98c.22,0,.39-.17,.39-.39v-1.67c0-.21-.18-.39-.39-.39h-4.98Z"/><path class="cls-6" d="M193.07,35.18c.23,.12,.39,.35,.39,.63s-.16,.51-.39,.63v-1.26Z"/><path class="cls-3" d="M187.31,34.84h4.71c.14,0,.26,.11,.26,.26v1.41c0,.14-.12,.26-.26,.26h-4.71c-.14,0-.26-.11-.26-.26v-1.41c0-.14,.12-.26,.26-.26Z"/><path class="cls-3" d="M178.58,34.2h.26c.14,0,.26,.11,.26,.26v2.05c0,.14-.12,.26-.26,.26h-.26c-.14,0-.26-.11-.26-.26v-2.05c0-.14,.12-.26,.26-.26Z"/><path class="cls-2" d="M177.66,34.71h-.26c-.14,0-.26,.11-.26,.26v1.54c0,.14,.12,.26,.26,.26h.26c.14,0,.26-.11,.26-.26v-1.54c0-.14-.12-.26-.26-.26Z"/><path class="cls-2" d="M176.22,35.23h.26c.14,0,.26,.11,.26,.26v1.03c0,.14-.12,.26-.26,.26h-.26c-.14,0-.26-.11-.26-.26v-1.03c0-.14,.12-.26,.26-.26Z"/><path class="cls-2" d="M175.05,35.61h.26c.14,0,.26,.11,.26,.26v.64c0,.14-.12,.26-.26,.26h-.26c-.14,0-.26-.11-.26-.26v-.64c0-.14,.12-.26,.26-.26Z"/><path d="M90.18,37.28h.28v-.94h.98v-.24h-.98v-.75h1.07v-.24h-1.34v2.17Zm1.89-1.94c.1,0,.18-.08,.18-.18s-.08-.18-.18-.18-.18,.08-.18,.18,.08,.18,.18,.18Zm-.14,1.94h.27v-1.62h-.27v1.62Zm1.44,.57c.45,0,.74-.23,.74-.59v-1.6h-.27v.27h-.02c-.1-.18-.28-.3-.52-.3-.43,0-.7,.33-.7,.78h0c0,.46,.27,.78,.69,.78,.23,0,.41-.1,.52-.28h.02v.33c0,.24-.18,.38-.47,.38-.24,0-.39-.09-.41-.21h-.28c.04,.27,.3,.44,.7,.44Zm-.01-.89c-.31,0-.48-.23-.48-.55h0c0-.33,.17-.56,.48-.56s.49,.23,.49,.55h0c0,.33-.18,.55-.49,.55Zm1.23,.32h.27v-1.01c0-.23,.16-.41,.38-.41s.34,.12,.34,.32v1.1h.27v-1.04c0-.21,.15-.38,.38-.38s.35,.12,.35,.36v1.06h.27v-1.12c0-.34-.19-.53-.53-.53-.23,0-.42,.11-.51,.28h-.02c-.08-.17-.23-.28-.46-.28s-.37,.1-.45,.28h-.02v-.25h-.27v1.62Zm3.18,.03c.22,0,.4-.09,.5-.27h.02v.24h.27v-1.11c0-.34-.23-.54-.63-.54-.35,0-.6,.17-.65,.43h.27c.04-.12,.17-.19,.37-.19,.25,0,.37,.11,.37,.31v.15l-.47,.03c-.39,.02-.6,.19-.6,.48h0c0,.3,.24,.48,.55,.48Zm-.28-.49h0c0-.16,.11-.25,.36-.27l.44-.03v.15c0,.23-.2,.41-.47,.41-.19,0-.33-.1-.33-.26Z"/></g></g><g id="Layer_2"><g><g><g><g><g><rect class="cls-2" x="15.75" y="2.78" width="116" height="252" rx="5.89" ry="5.89"/><g class="cls-32"><g><rect class="cls-2" x="18.07" y="7.94" width="113.35" height="242.49"/><path class="cls-30" d="M34.69,36.14l-2.6,7.79h-1.98l-1.75-5.28-1.81,5.28h-1.97l-2.62-7.79h1.91l1.8,5.48,1.88-5.48h1.71l1.82,5.52,1.85-5.52h1.76Zm6.44,4.82s-.01,.18-.03,.47h-4.63c.08,.37,.28,.66,.59,.88,.31,.22,.7,.32,1.16,.32,.32,0,.6-.04,.84-.13,.25-.1,.48-.24,.69-.45l.94,1c-.58,.65-1.42,.97-2.52,.97-.69,0-1.3-.13-1.83-.39-.53-.27-.94-.63-1.23-1.1-.29-.47-.43-1-.43-1.59s.14-1.11,.42-1.58c.29-.47,.68-.84,1.17-1.1,.5-.27,1.06-.4,1.67-.4s1.14,.13,1.63,.38c.49,.25,.86,.62,1.14,1.09,.28,.47,.42,1.01,.42,1.64Zm-3.17-1.79c-.4,0-.74,.11-1.01,.33-.27,.22-.44,.53-.5,.91h3.01c-.06-.38-.23-.68-.5-.9-.27-.23-.61-.35-1-.35Zm4.35-3.49h1.77v8.26h-1.77v-8.26Zm6.38,8.35c-.65,0-1.24-.13-1.76-.39-.52-.27-.92-.63-1.22-1.1-.29-.47-.43-1-.43-1.59s.14-1.12,.43-1.59c.3-.47,.7-.83,1.22-1.09,.52-.27,1.11-.4,1.76-.4s1.21,.13,1.68,.4c.49,.26,.84,.63,1.06,1.12l-1.38,.72c-.32-.55-.78-.82-1.38-.82-.46,0-.85,.15-1.15,.45-.3,.3-.45,.7-.45,1.21s.15,.92,.45,1.21c.3,.3,.69,.45,1.15,.45,.61,0,1.07-.27,1.38-.82l1.38,.73c-.22,.47-.57,.85-1.06,1.11-.48,.27-1.04,.4-1.68,.4Zm6.59,0c-.64,0-1.22-.13-1.74-.39-.51-.27-.91-.63-1.19-1.1-.29-.47-.43-1-.43-1.59s.14-1.12,.43-1.59c.29-.47,.69-.83,1.19-1.09,.52-.27,1.1-.4,1.74-.4s1.22,.13,1.73,.4c.51,.26,.91,.62,1.19,1.09,.29,.47,.43,1,.43,1.59s-.14,1.12-.43,1.59c-.29,.47-.69,.83-1.19,1.1-.51,.26-1.08,.39-1.73,.39Zm0-1.42c.45,0,.83-.15,1.11-.45,.3-.3,.44-.71,.44-1.21s-.15-.91-.44-1.2c-.29-.3-.66-.46-1.11-.46s-.83,.15-1.13,.46c-.3,.3-.44,.7-.44,1.2s.15,.91,.44,1.21c.3,.3,.67,.45,1.13,.45Zm12.37-4.74c.77,0,1.37,.22,1.82,.67,.45,.44,.68,1.1,.68,1.98v3.43h-1.77v-3.16c0-.47-.1-.83-.31-1.06-.2-.24-.48-.36-.85-.36-.42,0-.75,.13-.99,.4-.24,.26-.36,.65-.36,1.17v3.01h-1.77v-3.16c0-.94-.39-1.41-1.16-1.41-.41,0-.74,.13-.98,.4-.24,.26-.36,.65-.36,1.17v3.01h-1.77v-5.99h1.69v.69c.23-.25,.5-.45,.83-.58,.33-.13,.7-.2,1.09-.2,.43,0,.82,.09,1.17,.26,.35,.16,.63,.4,.84,.72,.25-.31,.56-.55,.94-.72,.39-.17,.81-.26,1.26-.26Zm10.15,3.11s-.01,.18-.03,.47h-4.63c.08,.37,.28,.66,.59,.88,.31,.22,.7,.32,1.16,.32,.32,0,.6-.04,.84-.13,.25-.1,.48-.24,.69-.45l.94,1c-.58,.65-1.42,.97-2.52,.97-.69,0-1.3-.13-1.83-.39-.53-.27-.94-.63-1.23-1.1-.29-.47-.43-1-.43-1.59s.14-1.11,.42-1.58c.29-.47,.68-.84,1.17-1.1,.5-.27,1.06-.4,1.67-.4s1.14,.13,1.63,.38c.49,.25,.86,.62,1.14,1.09,.28,.47,.42,1.01,.42,1.64Zm-3.17-1.79c-.4,0-.74,.11-1.01,.33-.27,.22-.44,.53-.5,.91h3.01c-.06-.38-.23-.68-.5-.9-.27-.23-.61-.35-1-.35Zm11.52,4.47c-.17,.13-.39,.22-.65,.29-.25,.06-.52,.09-.8,.09-.73,0-1.29-.18-1.69-.55-.39-.36-.59-.9-.59-1.6v-2.46h-.94v-1.34h.94v-1.46h1.77v1.46h1.52v1.34h-1.52v2.44c0,.25,.06,.45,.19,.59,.14,.13,.33,.2,.57,.2,.28,0,.52-.07,.72-.22l.48,1.22Zm3.72,.38c-.64,0-1.22-.13-1.74-.39-.51-.27-.91-.63-1.19-1.1-.29-.47-.43-1-.43-1.59s.14-1.12,.43-1.59c.29-.47,.69-.83,1.19-1.09,.52-.27,1.1-.4,1.74-.4s1.22,.13,1.73,.4c.51,.26,.91,.62,1.19,1.09,.29,.47,.43,1,.43,1.59s-.14,1.12-.43,1.59c-.29,.47-.69,.83-1.19,1.1-.51,.26-1.08,.39-1.73,.39Zm0-1.42c.45,0,.83-.15,1.11-.45,.3-.3,.44-.71,.44-1.21s-.15-.91-.44-1.2c-.29-.3-.66-.46-1.11-.46s-.83,.15-1.13,.46c-.3,.3-.44,.7-.44,1.2s.15,.91,.44,1.21c.3,.3,.67,.45,1.13,.45Zm-63.77,7.02c.7,0,1.32,.12,1.83,.35,.52,.23,.92,.56,1.21,.98,.28,.42,.42,.92,.42,1.5s-.14,1.07-.42,1.5c-.28,.42-.68,.75-1.21,.98-.52,.22-1.13,.33-1.83,.33h-1.6v2.15h-1.84v-7.79h3.45Zm-.1,4.17c.55,0,.97-.12,1.26-.35,.29-.24,.43-.57,.43-1s-.14-.77-.43-1c-.29-.24-.71-.36-1.26-.36h-1.5v2.7h1.5Zm7.65,3.71c-.64,0-1.22-.13-1.74-.39-.51-.27-.91-.63-1.19-1.1-.29-.47-.43-1-.43-1.59s.14-1.12,.43-1.59c.29-.47,.69-.83,1.19-1.09,.52-.27,1.1-.4,1.74-.4s1.22,.13,1.73,.4c.51,.26,.91,.62,1.19,1.09,.29,.47,.43,1,.43,1.59s-.14,1.12-.43,1.59c-.29,.47-.69,.83-1.19,1.1-.51,.26-1.08,.39-1.73,.39Zm0-1.42c.45,0,.83-.15,1.11-.45,.3-.3,.44-.71,.44-1.21s-.15-.91-.44-1.2c-.29-.3-.66-.46-1.11-.46s-.83,.15-1.13,.46c-.3,.3-.44,.7-.44,1.2s.15,.91,.44,1.21c.3,.3,.67,.45,1.13,.45Zm7.5,1.42c-.65,0-1.24-.13-1.76-.39-.52-.27-.92-.63-1.22-1.1-.29-.47-.43-1-.43-1.59s.14-1.12,.43-1.59c.3-.47,.7-.83,1.22-1.09,.52-.27,1.11-.4,1.76-.4s1.21,.13,1.68,.4c.49,.26,.84,.63,1.06,1.12l-1.38,.72c-.32-.55-.78-.82-1.38-.82-.46,0-.85,.15-1.15,.45-.3,.3-.45,.7-.45,1.21s.15,.92,.45,1.21c.3,.3,.69,.45,1.15,.45,.61,0,1.07-.27,1.38-.82l1.38,.73c-.22,.47-.57,.85-1.06,1.11-.48,.27-1.04,.4-1.68,.4Zm6.34-2.44l-.85,.82v1.52h-1.77v-8.26h1.77v4.67l2.59-2.4h2.11l-2.55,2.54,2.77,3.45h-2.15l-1.93-2.35Zm10.61-.62s-.01,.18-.03,.47h-4.63c.08,.37,.28,.66,.59,.88,.31,.22,.7,.32,1.16,.32,.32,0,.6-.04,.84-.13,.25-.1,.48-.24,.69-.45l.94,1c-.58,.65-1.42,.97-2.52,.97-.69,0-1.3-.13-1.83-.39-.53-.27-.94-.63-1.23-1.1-.29-.47-.43-1-.43-1.59s.14-1.11,.42-1.58c.29-.47,.68-.84,1.17-1.1,.5-.27,1.06-.4,1.67-.4s1.14,.13,1.63,.38c.49,.25,.86,.62,1.14,1.09,.28,.47,.42,1.01,.42,1.64Zm-3.17-1.79c-.4,0-.74,.11-1.01,.33-.27,.22-.44,.53-.5,.91h3.01c-.06-.38-.23-.68-.5-.9-.27-.23-.61-.35-1-.35Zm8.3,4.47c-.17,.13-.39,.22-.65,.29-.25,.06-.52,.09-.8,.09-.73,0-1.29-.18-1.69-.55-.39-.36-.59-.9-.59-1.6v-2.46h-.94v-1.34h.94v-1.46h1.77v1.46h1.52v1.34h-1.52v2.44c0,.25,.06,.45,.19,.59,.14,.13,.33,.2,.57,.2,.28,0,.52-.07,.72-.22l.48,1.22Zm2.77-6.03h-2.55v-1.47h6.94v1.47h-2.55v6.32h-1.84v-6.32Zm11.28,.33v5.99h-1.68v-.71c-.24,.26-.52,.46-.84,.6-.33,.13-.68,.2-1.06,.2-.8,0-1.44-.23-1.91-.68-.47-.45-.7-1.12-.7-2.01v-3.38h1.77v3.13c0,.96,.41,1.45,1.24,1.45,.42,0,.77-.13,1.02-.4,.26-.27,.39-.68,.39-1.21v-2.96h1.77Zm5.59,5.7c-.17,.13-.39,.22-.65,.29-.25,.06-.52,.09-.8,.09-.73,0-1.29-.18-1.69-.55-.39-.36-.59-.9-.59-1.6v-2.46h-.94v-1.34h.94v-1.46h1.77v1.46h1.52v1.34h-1.52v2.44c0,.25,.06,.45,.19,.59,.14,.13,.33,.2,.57,.2,.28,0,.52-.07,.72-.22l.48,1.22Zm3.72,.38c-.64,0-1.22-.13-1.74-.39-.51-.27-.91-.63-1.19-1.1-.29-.47-.43-1-.43-1.59s.14-1.12,.43-1.59c.29-.47,.69-.83,1.19-1.09,.52-.27,1.1-.4,1.74-.4s1.22,.13,1.73,.4c.51,.26,.91,.62,1.19,1.09,.29,.47,.43,1,.43,1.59s-.14,1.12-.43,1.59c-.29,.47-.69,.83-1.19,1.1-.51,.26-1.08,.39-1.73,.39Zm0-1.42c.45,0,.83-.15,1.11-.45,.3-.3,.44-.71,.44-1.21s-.15-.91-.44-1.2c-.29-.3-.66-.46-1.11-.46s-.83,.15-1.13,.46c-.3,.3-.44,.7-.44,1.2s.15,.91,.44,1.21c.3,.3,.67,.45,1.13,.45Zm6.23-3.86c.21-.29,.5-.51,.85-.66,.36-.15,.78-.22,1.25-.22v1.6c-.2-.01-.33-.02-.4-.02-.51,0-.91,.14-1.19,.42-.29,.27-.43,.69-.43,1.25v2.83h-1.77v-5.99h1.69v.79Zm3.16-.79h1.77v5.99h-1.77v-5.99Zm.89-.83c-.33,0-.59-.09-.8-.28-.2-.19-.31-.42-.31-.69s.1-.5,.31-.69c.2-.19,.47-.28,.8-.28s.59,.09,.8,.27,.31,.4,.31,.67c0,.29-.1,.53-.31,.72-.2,.19-.47,.28-.8,.28Zm5,.75c.95,0,1.68,.22,2.18,.67,.51,.44,.76,1.1,.76,1.99v3.42h-1.66v-.75c-.33,.56-.96,.83-1.86,.83-.47,0-.88-.08-1.23-.23-.34-.16-.6-.37-.78-.65s-.27-.59-.27-.93c0-.56,.21-.99,.64-1.31,.43-.32,1.1-.48,1.99-.48h1.41c0-.38-.12-.67-.35-.87-.23-.21-.59-.31-1.06-.31-.33,0-.65,.05-.97,.16-.31,.1-.58,.23-.8,.4l-.64-1.21c.33-.23,.73-.41,1.19-.53,.47-.13,.95-.19,1.44-.19Zm-.14,5c.3,0,.57-.07,.81-.2,.23-.14,.4-.35,.5-.61v-.61h-1.22c-.73,0-1.09,.23-1.09,.7,0,.22,.09,.4,.26,.53,.18,.13,.43,.19,.74,.19Zm4.69-7.18h1.77v8.26h-1.77v-8.26Z"/><path class="cls-18" d="M23.52,195.95H124.65c.99,0,1.8,.79,1.8,1.76v17.28c0,.97-.8,1.76-1.8,1.76H23.52c-.99,0-1.8-.79-1.8-1.76v-17.28c0-.97,.8-1.76,1.8-1.76Z"/><path class="cls-2" d="M58.98,209.53c-.5,0-.98-.06-1.45-.19-.46-.13-.83-.31-1.11-.52l.49-1.07c.27,.19,.59,.35,.96,.47,.37,.12,.74,.18,1.11,.18,.41,0,.72-.06,.92-.18,.2-.12,.3-.28,.3-.48,0-.15-.06-.27-.18-.36-.11-.1-.26-.18-.45-.24-.18-.06-.42-.12-.74-.19-.48-.11-.87-.22-1.18-.33-.31-.11-.57-.29-.79-.54-.22-.25-.32-.57-.32-.98,0-.36,.1-.68,.3-.97,.2-.29,.49-.52,.89-.69,.4-.17,.89-.25,1.46-.25,.4,0,.79,.05,1.18,.14s.72,.23,1.01,.4l-.45,1.08c-.58-.32-1.16-.48-1.74-.48-.41,0-.71,.06-.91,.19-.19,.13-.29,.3-.29,.51s.11,.37,.33,.47c.23,.1,.57,.2,1.03,.3,.48,.11,.87,.22,1.18,.33,.31,.11,.57,.29,.78,.53,.22,.24,.33,.57,.33,.98,0,.35-.1,.67-.31,.97-.2,.29-.5,.52-.9,.69-.4,.17-.89,.25-1.46,.25Zm3.56-4.83h1.4v4.73h-1.4v-4.73Zm.7-.66c-.26,0-.47-.07-.63-.22-.16-.15-.24-.33-.24-.54s.08-.4,.24-.54c.16-.15,.37-.22,.63-.22s.47,.07,.63,.21c.16,.14,.24,.32,.24,.53,0,.23-.08,.42-.24,.57-.16,.15-.37,.22-.63,.22Zm6.98,.66v3.94c0,.87-.23,1.51-.69,1.93-.46,.42-1.13,.63-2.02,.63-.47,0-.91-.06-1.33-.17-.42-.11-.77-.27-1.04-.48l.56-.98c.2,.16,.46,.29,.77,.39,.31,.1,.62,.15,.93,.15,.48,0,.84-.11,1.07-.33,.23-.21,.35-.53,.35-.97v-.2c-.37,.39-.87,.59-1.53,.59-.44,0-.85-.09-1.22-.28-.37-.19-.66-.46-.87-.81s-.32-.74-.32-1.2,.11-.85,.32-1.2c.22-.35,.51-.61,.87-.8,.37-.19,.78-.29,1.22-.29,.7,0,1.23,.23,1.6,.68v-.61h1.33Zm-2.65,3.37c.37,0,.67-.11,.91-.32,.24-.22,.36-.5,.36-.84s-.12-.62-.36-.83c-.23-.22-.54-.33-.91-.33s-.68,.11-.92,.33c-.24,.21-.36,.49-.36,.83s.12,.63,.36,.84c.24,.21,.54,.32,.92,.32Zm6.89-3.44c.6,0,1.08,.18,1.45,.53,.37,.35,.56,.87,.56,1.56v2.71h-1.4v-2.5c0-.37-.08-.65-.25-.83-.17-.19-.41-.28-.73-.28-.35,0-.63,.11-.84,.33-.21,.21-.31,.53-.31,.95v2.34h-1.4v-4.73h1.34v.55c.19-.2,.42-.35,.69-.46,.28-.11,.58-.17,.91-.17Zm10.68,.07v4.73h-1.33v-.56c-.19,.21-.41,.36-.66,.47-.26,.11-.54,.16-.83,.16-.63,0-1.14-.18-1.51-.54-.37-.36-.56-.89-.56-1.59v-2.67h1.4v2.47c0,.76,.33,1.14,.98,1.14,.34,0,.6-.11,.81-.32,.2-.22,.31-.54,.31-.96v-2.34h1.4Zm4.15-.07c.45,0,.86,.1,1.22,.31,.37,.2,.66,.48,.87,.85,.21,.36,.31,.79,.31,1.27s-.1,.91-.31,1.28c-.21,.36-.5,.65-.87,.85-.37,.2-.77,.3-1.22,.3-.62,0-1.1-.19-1.45-.57v2.21h-1.4v-6.43h1.34v.54c.35-.41,.85-.62,1.52-.62Zm-.24,3.74c.36,0,.65-.12,.88-.35,.23-.24,.35-.56,.35-.96s-.12-.71-.35-.95c-.23-.24-.52-.36-.88-.36s-.66,.12-.89,.36c-.23,.23-.34,.55-.34,.95s.11,.72,.34,.96c.23,.23,.53,.35,.89,.35Z"/><path d="M23.59,65.67c.37,0,.67,.09,.88,.26,.21,.17,.32,.42,.32,.72s-.11,.55-.32,.72c-.21,.17-.51,.26-.88,.26h-.79v.91h-.31v-2.87h1.1Zm0,1.7c.29,0,.51-.06,.67-.18,.15-.13,.23-.3,.23-.53s-.08-.41-.23-.53c-.15-.13-.38-.19-.67-.19h-.78v1.44h.78Zm1.85-1.87h.3v3.04h-.3v-3.04Zm3.04,2.05h-1.84c.02,.22,.1,.41,.26,.55,.16,.14,.36,.21,.6,.21,.14,0,.26-.02,.38-.07,.11-.05,.21-.12,.3-.21l.17,.19c-.1,.11-.22,.2-.37,.26-.15,.06-.31,.09-.48,.09-.23,0-.43-.05-.6-.14-.17-.1-.31-.23-.41-.39-.1-.17-.15-.36-.15-.57s.05-.4,.14-.57c.09-.17,.22-.3,.39-.39,.16-.09,.35-.14,.55-.14s.39,.05,.55,.14c.16,.09,.29,.22,.38,.39,.09,.16,.14,.35,.14,.57v.09Zm-1.07-.93c-.21,0-.39,.07-.54,.2-.14,.13-.22,.3-.24,.52h1.56c-.02-.21-.1-.39-.25-.52-.14-.13-.32-.2-.54-.2Zm2.38-.25c.29,0,.51,.07,.66,.21,.15,.14,.23,.35,.23,.62v1.34h-.28v-.34c-.07,.11-.17,.2-.3,.26-.13,.06-.28,.09-.46,.09-.25,0-.44-.06-.59-.17-.15-.11-.22-.27-.22-.46s.07-.33,.2-.44c.14-.11,.35-.17,.65-.17h.7v-.13c0-.19-.05-.33-.16-.42-.11-.1-.26-.15-.46-.15-.14,0-.27,.02-.4,.07-.13,.04-.24,.11-.33,.18l-.13-.22c.11-.09,.25-.16,.4-.21,.16-.05,.32-.08,.49-.08Zm-.1,1.96c.17,0,.31-.04,.43-.11,.12-.08,.21-.19,.27-.33v-.35h-.69c-.38,0-.57,.13-.57,.39,0,.13,.05,.23,.15,.3,.1,.07,.23,.11,.41,.11Zm2.4,.23c-.18,0-.35-.02-.52-.07-.16-.05-.29-.12-.38-.19l.13-.23c.09,.07,.21,.13,.35,.18,.14,.04,.28,.07,.44,.07,.2,0,.35-.03,.44-.09,.1-.06,.15-.15,.15-.26,0-.08-.03-.14-.08-.18-.05-.05-.12-.08-.2-.1-.08-.02-.19-.05-.32-.07-.18-.03-.32-.07-.43-.1-.11-.04-.2-.09-.28-.18-.08-.08-.11-.2-.11-.34,0-.18,.08-.33,.23-.44,.15-.11,.37-.17,.64-.17,.14,0,.28,.02,.43,.06,.14,.04,.26,.08,.35,.14l-.13,.23c-.18-.12-.4-.18-.65-.18-.19,0-.33,.03-.43,.1-.09,.07-.14,.15-.14,.26,0,.08,.03,.15,.08,.2,.06,.05,.12,.09,.21,.11,.08,.02,.19,.05,.34,.07,.18,.03,.32,.07,.42,.1,.11,.03,.2,.09,.27,.17,.08,.08,.11,.19,.11,.33,0,.19-.08,.34-.24,.45-.16,.11-.38,.16-.67,.16Zm3.38-1.01h-1.84c.02,.22,.1,.41,.26,.55,.16,.14,.36,.21,.6,.21,.14,0,.26-.02,.38-.07,.11-.05,.21-.12,.3-.21l.17,.19c-.1,.11-.22,.2-.37,.26-.15,.06-.31,.09-.48,.09-.23,0-.43-.05-.6-.14-.17-.1-.31-.23-.41-.39-.1-.17-.15-.36-.15-.57s.05-.4,.14-.57c.09-.17,.22-.3,.39-.39,.16-.09,.35-.14,.55-.14s.39,.05,.55,.14c.16,.09,.29,.22,.38,.39,.09,.16,.14,.35,.14,.57v.09Zm-1.07-.93c-.21,0-.39,.07-.54,.2-.14,.13-.22,.3-.24,.52h1.56c-.02-.21-.1-.39-.25-.52-.14-.13-.32-.2-.54-.2Zm2.77-1.12h.3v3.04h-.3v-3.04Zm2.03,3.06c-.21,0-.4-.05-.57-.14-.17-.1-.3-.23-.4-.39s-.15-.36-.15-.57,.05-.4,.15-.57,.23-.3,.4-.39,.36-.14,.57-.14,.4,.05,.57,.14,.3,.22,.4,.39c.1,.17,.15,.36,.15,.57s-.05,.4-.15,.57c-.09,.17-.23,.3-.4,.39-.17,.09-.36,.14-.57,.14Zm0-.26c.16,0,.3-.03,.42-.1,.13-.07,.22-.17,.29-.3,.07-.13,.1-.27,.1-.44s-.03-.31-.1-.44c-.07-.13-.17-.23-.29-.3-.12-.07-.26-.11-.42-.11s-.3,.04-.42,.11c-.12,.07-.22,.17-.29,.3-.07,.13-.1,.27-.1,.44s.03,.31,.1,.44c.07,.13,.17,.23,.29,.3,.13,.07,.27,.1,.42,.1Zm3.77-1.92v1.89c0,.37-.09,.64-.28,.81-.18,.18-.46,.27-.83,.27-.2,0-.4-.03-.58-.09-.18-.06-.33-.14-.44-.24l.15-.22c.11,.09,.23,.17,.39,.22,.15,.05,.31,.08,.48,.08,.28,0,.48-.06,.62-.19,.13-.13,.2-.32,.2-.59v-.27c-.09,.14-.21,.24-.36,.31-.15,.07-.31,.11-.49,.11-.21,0-.4-.04-.57-.13-.17-.09-.3-.21-.4-.37-.09-.16-.14-.34-.14-.55s.05-.38,.14-.54c.1-.16,.23-.28,.4-.37,.17-.09,.36-.13,.57-.13,.19,0,.36,.04,.51,.11,.15,.07,.27,.18,.36,.32v-.41h.28Zm-1.13,1.82c.16,0,.3-.03,.43-.1,.13-.07,.23-.16,.3-.28,.07-.12,.11-.26,.11-.41s-.04-.29-.11-.41c-.07-.12-.17-.21-.3-.28-.13-.07-.27-.1-.43-.1s-.3,.03-.43,.1c-.13,.07-.22,.16-.3,.28-.07,.12-.1,.26-.1,.41s.03,.29,.1,.41c.07,.12,.17,.21,.3,.28,.13,.07,.27,.1,.43,.1Zm1.96-1.82h.3v2.16h-.3v-2.16Zm.15-.47c-.06,0-.11-.02-.16-.06s-.06-.09-.06-.15,.02-.1,.06-.14,.09-.06,.16-.06,.11,.02,.15,.06c.04,.04,.06,.08,.06,.14,0,.06-.02,.11-.06,.15s-.09,.06-.15,.06Zm2.1,.46c.28,0,.5,.08,.66,.24,.16,.16,.25,.38,.25,.68v1.25h-.3v-1.22c0-.22-.06-.4-.17-.51-.11-.12-.28-.18-.49-.18-.24,0-.43,.07-.57,.21-.14,.14-.21,.33-.21,.57v1.13h-.3v-2.16h.28v.4c.08-.13,.19-.23,.34-.3,.15-.07,.31-.11,.5-.11Zm3.71,2.19c-.21,0-.4-.05-.57-.14-.17-.1-.3-.23-.4-.39-.1-.17-.15-.36-.15-.57s.05-.4,.15-.57c.1-.17,.23-.3,.4-.39,.17-.09,.36-.14,.57-.14s.4,.05,.57,.14c.17,.09,.3,.22,.4,.39,.1,.17,.15,.36,.15,.57s-.05,.4-.15,.57c-.1,.17-.23,.3-.4,.39-.17,.09-.36,.14-.57,.14Zm0-.26c.16,0,.3-.03,.42-.1,.13-.07,.22-.17,.29-.3,.07-.13,.1-.27,.1-.44s-.04-.31-.1-.44c-.07-.13-.17-.23-.29-.3-.12-.07-.26-.11-.42-.11s-.3,.04-.42,.11c-.12,.07-.22,.17-.29,.3-.07,.13-.1,.27-.1,.44s.03,.31,.1,.44c.07,.13,.17,.23,.29,.3,.13,.07,.27,.1,.42,.1Zm2.01-1.5c.07-.14,.17-.25,.31-.33,.14-.07,.31-.11,.52-.11v.28h-.07c-.23,0-.41,.07-.54,.21-.13,.14-.2,.33-.2,.59v1.1h-.3v-2.16h.28v.42Zm3.08,1.76c-.18,0-.35-.02-.52-.07-.16-.05-.29-.12-.38-.19l.13-.23c.09,.07,.21,.13,.35,.18,.14,.04,.28,.07,.44,.07,.2,0,.35-.03,.44-.09,.1-.06,.15-.15,.15-.26,0-.08-.03-.14-.08-.18-.05-.05-.12-.08-.2-.1-.08-.02-.19-.05-.32-.07-.18-.03-.32-.07-.43-.1-.11-.04-.2-.09-.28-.18-.08-.08-.11-.2-.11-.34,0-.18,.08-.33,.23-.44,.15-.11,.37-.17,.64-.17,.14,0,.28,.02,.43,.06,.14,.04,.26,.08,.35,.14l-.13,.23c-.18-.12-.4-.18-.65-.18-.19,0-.33,.03-.43,.1-.09,.07-.14,.15-.14,.26,0,.08,.03,.15,.08,.2,.06,.05,.12,.09,.21,.11,.08,.02,.19,.05,.34,.07,.18,.03,.32,.07,.42,.1,.11,.03,.2,.09,.27,.17,.08,.08,.11,.19,.11,.33,0,.19-.08,.34-.24,.45-.16,.11-.38,.16-.67,.16Zm1.46-2.18h.3v2.16h-.3v-2.16Zm.15-.47c-.06,0-.11-.02-.15-.06s-.06-.09-.06-.15,.02-.1,.06-.14,.09-.06,.15-.06,.11,.02,.16,.06c.04,.04,.06,.08,.06,.14,0,.06-.02,.11-.06,.15s-.09,.06-.16,.06Zm3.01,.47v1.89c0,.37-.09,.64-.28,.81-.18,.18-.46,.27-.83,.27-.2,0-.4-.03-.58-.09-.18-.06-.33-.14-.44-.24l.15-.22c.11,.09,.23,.17,.39,.22,.15,.05,.31,.08,.48,.08,.28,0,.48-.06,.62-.19,.13-.13,.2-.32,.2-.59v-.27c-.09,.14-.21,.24-.36,.31-.15,.07-.31,.11-.49,.11-.21,0-.4-.04-.57-.13-.17-.09-.3-.21-.4-.37-.1-.16-.14-.34-.14-.55s.05-.38,.14-.54c.1-.16,.23-.28,.4-.37s.36-.13,.57-.13c.19,0,.36,.04,.51,.11,.15,.07,.27,.18,.36,.32v-.41h.28Zm-1.13,1.82c.16,0,.3-.03,.43-.1,.13-.07,.23-.16,.3-.28,.07-.12,.11-.26,.11-.41s-.04-.29-.11-.41c-.07-.12-.17-.21-.3-.28-.13-.07-.27-.1-.43-.1s-.3,.03-.43,.1c-.13,.07-.23,.16-.3,.28-.07,.12-.1,.26-.1,.41s.03,.29,.1,.41c.07,.12,.17,.21,.3,.28,.13,.07,.27,.1,.43,.1Zm3.08-1.83c.28,0,.5,.08,.66,.24,.16,.16,.25,.38,.25,.68v1.25h-.3v-1.22c0-.22-.06-.4-.17-.51-.11-.12-.28-.18-.49-.18-.24,0-.43,.07-.57,.21-.14,.14-.21,.33-.21,.57v1.13h-.3v-2.16h.28v.4c.08-.13,.19-.23,.34-.3,.15-.07,.31-.11,.5-.11Zm4.79,.02v2.16h-.28v-.39c-.08,.13-.19,.23-.32,.31-.14,.07-.29,.11-.47,.11-.29,0-.52-.08-.68-.23-.16-.16-.25-.39-.25-.69v-1.25h.3v1.22c0,.23,.06,.4,.17,.52s.28,.18,.49,.18c.23,0,.41-.07,.55-.21,.13-.14,.2-.33,.2-.58v-1.13h.3Zm1.97-.02c.21,0,.39,.05,.56,.14,.17,.09,.3,.22,.39,.39,.09,.17,.14,.36,.14,.57s-.05,.41-.14,.57c-.1,.17-.23,.3-.39,.39-.16,.09-.35,.14-.56,.14-.18,0-.34-.04-.49-.11-.14-.07-.26-.18-.35-.32v1.2h-.3v-2.95h.28v.43c.09-.14,.21-.25,.35-.33,.15-.08,.31-.11,.5-.11Zm-.02,1.94c.15,0,.29-.03,.42-.1,.13-.07,.22-.17,.29-.3,.07-.13,.11-.27,.11-.44s-.04-.31-.11-.43c-.07-.13-.17-.23-.29-.3s-.27-.11-.42-.11-.3,.04-.42,.11c-.12,.07-.22,.17-.29,.3-.07,.13-.1,.27-.1,.43s.03,.31,.1,.44c.07,.13,.17,.23,.29,.3,.13,.07,.27,.1,.42,.1Zm3.98,.11c-.06,.05-.13,.09-.21,.11-.08,.02-.17,.04-.26,.04-.21,0-.37-.05-.48-.16s-.17-.26-.17-.46v-1.3h-.39v-.25h.39v-.47h.3v.47h.67v.25h-.67v1.29c0,.13,.03,.23,.1,.3,.07,.07,.16,.1,.28,.1,.06,0,.12,0,.18-.03,.06-.02,.11-.05,.15-.08l.1,.21Zm1.36,.15c-.21,0-.4-.05-.57-.14-.17-.1-.3-.23-.4-.39s-.15-.36-.15-.57,.05-.4,.15-.57,.23-.3,.4-.39,.36-.14,.57-.14,.4,.05,.57,.14,.3,.22,.4,.39c.1,.17,.15,.36,.15,.57s-.05,.4-.15,.57c-.09,.17-.23,.3-.4,.39-.17,.09-.36,.14-.57,.14Zm0-.26c.16,0,.3-.03,.42-.1,.13-.07,.22-.17,.29-.3,.07-.13,.1-.27,.1-.44s-.04-.31-.1-.44c-.07-.13-.17-.23-.29-.3-.12-.07-.26-.11-.42-.11s-.3,.04-.42,.11c-.12,.07-.22,.17-.29,.3-.07,.13-.1,.27-.1,.44s.04,.31,.1,.44c.07,.13,.17,.23,.29,.3,.13,.07,.27,.1,.42,.1Zm3.74,.26c-.22,0-.41-.05-.59-.14-.17-.09-.3-.22-.4-.39-.1-.17-.15-.36-.15-.57s.05-.4,.15-.57c.1-.17,.23-.3,.4-.39,.17-.09,.37-.14,.59-.14,.19,0,.36,.04,.51,.11,.15,.07,.27,.18,.36,.32l-.22,.15c-.07-.11-.16-.19-.28-.24-.11-.05-.23-.08-.36-.08-.16,0-.3,.04-.43,.11-.13,.07-.22,.17-.3,.3-.07,.13-.1,.27-.1,.44s.04,.31,.1,.44c.07,.13,.17,.22,.3,.3,.13,.07,.27,.1,.43,.1,.13,0,.25-.03,.36-.08,.11-.05,.2-.13,.28-.24l.22,.15c-.09,.14-.21,.25-.36,.32-.15,.07-.32,.11-.51,.11Zm2.31,0c-.21,0-.4-.05-.57-.14-.17-.1-.3-.23-.4-.39s-.15-.36-.15-.57,.05-.4,.15-.57,.23-.3,.4-.39,.36-.14,.57-.14,.4,.05,.57,.14,.3,.22,.4,.39c.1,.17,.15,.36,.15,.57s-.05,.4-.15,.57c-.09,.17-.23,.3-.4,.39-.17,.09-.36,.14-.57,.14Zm0-.26c.16,0,.3-.03,.42-.1,.13-.07,.22-.17,.29-.3,.07-.13,.1-.27,.1-.44s-.04-.31-.1-.44c-.07-.13-.17-.23-.29-.3-.12-.07-.26-.11-.42-.11s-.3,.04-.42,.11c-.12,.07-.22,.17-.29,.3-.07,.13-.1,.27-.1,.44s.04,.31,.1,.44c.07,.13,.17,.23,.29,.3,.13,.07,.27,.1,.42,.1Zm2.85-1.94c.28,0,.5,.08,.66,.24,.16,.16,.25,.38,.25,.68v1.25h-.3v-1.22c0-.22-.06-.4-.17-.51-.11-.12-.28-.18-.49-.18-.24,0-.43,.07-.57,.21-.14,.14-.21,.33-.21,.57v1.13h-.3v-2.16h.28v.4c.08-.13,.19-.23,.34-.3,.15-.07,.31-.11,.5-.11Zm2.87,2.04c-.06,.05-.13,.09-.21,.11-.08,.02-.17,.04-.26,.04-.21,0-.37-.05-.48-.16s-.17-.26-.17-.46v-1.3h-.39v-.25h.39v-.47h.3v.47h.67v.25h-.67v1.29c0,.13,.03,.23,.1,.3,.07,.07,.16,.1,.28,.1,.06,0,.12,0,.18-.03,.06-.02,.11-.05,.15-.08l.1,.21Zm.54-2.03h.3v2.16h-.3v-2.16Zm.15-.47c-.06,0-.11-.02-.15-.06s-.06-.09-.06-.15,.02-.1,.06-.14,.09-.06,.15-.06,.11,.02,.16,.06c.04,.04,.06,.08,.06,.14,0,.06-.02,.11-.06,.15s-.09,.06-.16,.06Zm2.1,.46c.28,0,.5,.08,.66,.24,.16,.16,.25,.38,.25,.68v1.25h-.3v-1.22c0-.22-.06-.4-.17-.51s-.28-.18-.49-.18c-.24,0-.43,.07-.57,.21-.14,.14-.21,.33-.21,.57v1.13h-.3v-2.16h.28v.4c.08-.13,.19-.23,.34-.3,.15-.07,.31-.11,.5-.11Zm3.7,.02v2.16h-.28v-.39c-.08,.13-.19,.23-.32,.31-.14,.07-.29,.11-.47,.11-.29,0-.52-.08-.68-.23-.16-.16-.25-.39-.25-.69v-1.25h.3v1.22c0,.23,.06,.4,.17,.52,.11,.12,.28,.18,.49,.18,.23,0,.41-.07,.55-.21,.13-.14,.2-.33,.2-.58v-1.13h.3Zm2.75,1.17h-1.84c.02,.22,.1,.41,.26,.55,.16,.14,.36,.21,.6,.21,.14,0,.26-.02,.38-.07,.11-.05,.21-.12,.3-.21l.17,.19c-.1,.11-.22,.2-.37,.26-.15,.06-.31,.09-.48,.09-.23,0-.43-.05-.6-.14-.17-.1-.31-.23-.41-.39-.1-.17-.15-.36-.15-.57s.05-.4,.14-.57c.09-.17,.22-.3,.39-.39,.16-.09,.35-.14,.55-.14s.39,.05,.55,.14c.16,.09,.29,.22,.38,.39,.09,.16,.14,.35,.14,.57v.09Zm-1.07-.93c-.21,0-.39,.07-.54,.2-.14,.13-.22,.3-.24,.52h1.56c-.02-.21-.1-.39-.25-.52-.14-.13-.32-.2-.54-.2Zm3.93,1.79c-.06,.05-.13,.09-.21,.11-.08,.02-.17,.04-.26,.04-.21,0-.37-.05-.48-.16-.11-.11-.17-.26-.17-.46v-1.3h-.39v-.25h.39v-.47h.3v.47h.67v.25h-.67v1.29c0,.13,.03,.23,.1,.3,.07,.07,.16,.1,.28,.1,.06,0,.12,0,.18-.03,.06-.02,.11-.05,.15-.08l.1,.21Zm1.36,.15c-.21,0-.4-.05-.57-.14-.17-.1-.3-.23-.4-.39-.1-.17-.15-.36-.15-.57s.05-.4,.15-.57c.1-.17,.23-.3,.4-.39,.17-.09,.36-.14,.57-.14s.4,.05,.57,.14c.17,.09,.3,.22,.4,.39,.1,.17,.15,.36,.15,.57s-.05,.4-.15,.57c-.1,.17-.23,.3-.4,.39-.17,.09-.36,.14-.57,.14Zm0-.26c.16,0,.3-.03,.42-.1,.13-.07,.22-.17,.29-.3,.07-.13,.1-.27,.1-.44s-.04-.31-.1-.44c-.07-.13-.17-.23-.29-.3-.12-.07-.26-.11-.42-.11s-.3,.04-.42,.11c-.12,.07-.22,.17-.29,.3-.07,.13-.1,.27-.1,.44s.03,.31,.1,.44c.07,.13,.17,.23,.29,.3,.13,.07,.27,.1,.42,.1Zm4.81-1.92v2.16h-.28v-.39c-.08,.13-.19,.23-.32,.31-.14,.07-.29,.11-.47,.11-.29,0-.52-.08-.68-.23-.16-.16-.25-.39-.25-.69v-1.25h.3v1.22c0,.23,.06,.4,.17,.52s.28,.18,.49,.18c.23,0,.41-.07,.55-.21,.13-.14,.2-.33,.2-.58v-1.13h.3Zm1.42,2.18c-.18,0-.35-.02-.52-.07-.16-.05-.29-.12-.38-.19l.13-.23c.09,.07,.21,.13,.35,.18,.14,.04,.28,.07,.44,.07,.2,0,.35-.03,.44-.09,.1-.06,.15-.15,.15-.26,0-.08-.03-.14-.08-.18-.05-.05-.12-.08-.2-.1-.08-.02-.19-.05-.32-.07-.18-.03-.32-.07-.43-.1-.11-.04-.2-.09-.28-.18-.08-.08-.11-.2-.11-.34,0-.18,.08-.33,.23-.44s.37-.17,.64-.17c.14,0,.28,.02,.43,.06,.14,.04,.26,.08,.35,.14l-.13,.23c-.18-.12-.4-.18-.65-.18-.19,0-.33,.03-.43,.1-.09,.07-.14,.15-.14,.26,0,.08,.03,.15,.08,.2,.06,.05,.12,.09,.21,.11,.08,.02,.19,.05,.34,.07,.18,.03,.32,.07,.42,.1s.2,.09,.27,.17c.08,.08,.11,.19,.11,.33,0,.19-.08,.34-.24,.45-.16,.11-.38,.16-.67,.16Zm3.38-1.01h-1.84c.02,.22,.1,.41,.26,.55,.16,.14,.36,.21,.6,.21,.14,0,.26-.02,.38-.07,.11-.05,.21-.12,.3-.21l.17,.19c-.1,.11-.22,.2-.37,.26-.15,.06-.31,.09-.48,.09-.23,0-.43-.05-.6-.14-.17-.1-.31-.23-.41-.39-.1-.17-.15-.36-.15-.57s.05-.4,.14-.57c.09-.17,.22-.3,.39-.39,.16-.09,.35-.14,.55-.14s.39,.05,.55,.14c.16,.09,.29,.22,.38,.39,.09,.16,.14,.35,.14,.57v.09Zm-1.07-.93c-.21,0-.39,.07-.54,.2-.14,.13-.22,.3-.24,.52h1.56c-.02-.21-.1-.39-.25-.52-.14-.13-.32-.2-.54-.2Zm3.67,1.94c-.21,0-.4-.05-.57-.14-.17-.1-.3-.23-.4-.39s-.15-.36-.15-.57,.05-.4,.15-.57,.23-.3,.4-.39,.36-.14,.57-.14,.4,.05,.57,.14,.3,.22,.4,.39c.1,.17,.15,.36,.15,.57s-.05,.4-.15,.57c-.09,.17-.23,.3-.4,.39-.17,.09-.36,.14-.57,.14Zm0-.26c.16,0,.3-.03,.42-.1,.13-.07,.22-.17,.29-.3,.07-.13,.1-.27,.1-.44s-.04-.31-.1-.44c-.07-.13-.17-.23-.29-.3-.12-.07-.26-.11-.42-.11s-.3,.04-.42,.11c-.12,.07-.22,.17-.29,.3-.07,.13-.1,.27-.1,.44s.04,.31,.1,.44c.07,.13,.17,.23,.29,.3,.13,.07,.27,.1,.42,.1Zm3.71-1.92v2.16h-.28v-.39c-.08,.13-.19,.23-.32,.31-.14,.07-.29,.11-.47,.11-.29,0-.52-.08-.68-.23-.16-.16-.25-.39-.25-.69v-1.25h.3v1.22c0,.23,.06,.4,.17,.52,.11,.12,.28,.18,.49,.18,.23,0,.41-.07,.55-.21,.13-.14,.2-.33,.2-.58v-1.13h.3Zm1.12,.42c.07-.14,.17-.25,.31-.33,.14-.07,.31-.11,.52-.11v.28h-.07c-.23,0-.41,.07-.54,.21-.13,.14-.2,.33-.2,.59v1.1h-.3v-2.16h.28v.42Zm-92.6,4.54c.29,0,.51,.07,.66,.21,.15,.14,.23,.35,.23,.62v1.34h-.28v-.34c-.07,.11-.17,.2-.3,.26-.13,.06-.28,.09-.46,.09-.25,0-.44-.06-.59-.17s-.22-.27-.22-.46,.07-.33,.2-.44c.14-.11,.35-.17,.65-.17h.7v-.13c0-.19-.05-.33-.16-.42-.11-.1-.26-.15-.46-.15-.14,0-.27,.02-.4,.07-.13,.04-.24,.11-.33,.18l-.13-.22c.11-.09,.25-.16,.4-.21,.16-.05,.32-.08,.49-.08Zm-.1,1.96c.17,0,.31-.04,.43-.11,.12-.08,.21-.19,.27-.33v-.35h-.69c-.38,0-.57,.13-.57,.39,0,.13,.05,.23,.15,.3,.1,.07,.23,.11,.41,.11Zm2.94-1.96c.21,0,.39,.05,.56,.14,.17,.09,.3,.22,.39,.39,.09,.17,.14,.36,.14,.57s-.05,.41-.14,.57c-.09,.17-.23,.3-.39,.39-.16,.09-.35,.14-.56,.14-.18,0-.34-.04-.49-.11-.14-.07-.26-.18-.35-.32v1.2h-.3v-2.95h.28v.43c.09-.14,.21-.25,.35-.33,.15-.08,.31-.11,.5-.11Zm-.02,1.94c.15,0,.29-.03,.42-.1,.13-.07,.22-.17,.29-.3,.07-.13,.11-.27,.11-.44s-.04-.31-.11-.43c-.07-.13-.17-.23-.29-.3-.13-.07-.27-.11-.42-.11s-.3,.04-.42,.11c-.12,.07-.22,.17-.29,.3-.07,.13-.1,.27-.1,.43s.03,.31,.1,.44c.07,.13,.17,.23,.29,.3,.13,.07,.27,.1,.42,.1Zm2.86-1.94c.21,0,.39,.05,.56,.14,.17,.09,.3,.22,.39,.39s.14,.36,.14,.57-.05,.41-.14,.57-.23,.3-.39,.39c-.16,.09-.35,.14-.56,.14-.18,0-.34-.04-.49-.11-.14-.07-.26-.18-.35-.32v1.2h-.3v-2.95h.28v.43c.09-.14,.21-.25,.35-.33,.15-.08,.31-.11,.5-.11Zm-.02,1.94c.15,0,.29-.03,.42-.1,.13-.07,.22-.17,.29-.3,.07-.13,.11-.27,.11-.44s-.04-.31-.11-.43c-.07-.13-.17-.23-.29-.3-.13-.07-.27-.11-.42-.11s-.3,.04-.42,.11c-.12,.07-.22,.17-.29,.3-.07,.13-.1,.27-.1,.43s.03,.31,.1,.44c.07,.13,.17,.23,.29,.3,.13,.07,.27,.1,.42,.1Z"/><path d="M28.02,225.06v3.69h-.87v-1.51h-1.71v1.51h-.87v-3.69h.87v1.46h1.71v-1.46h.87Zm2,.81c.45,0,.79,.11,1.03,.32,.24,.21,.36,.52,.36,.94v1.62h-.79v-.35c-.16,.26-.45,.4-.88,.4-.22,0-.42-.04-.58-.11-.16-.07-.29-.18-.37-.31-.09-.13-.13-.28-.13-.44,0-.26,.1-.47,.3-.62,.2-.15,.52-.23,.94-.23h.67c0-.18-.06-.32-.17-.41-.11-.1-.28-.15-.5-.15-.15,0-.31,.02-.46,.07-.15,.05-.27,.11-.38,.19l-.3-.57c.16-.11,.35-.19,.57-.25,.22-.06,.45-.09,.68-.09Zm-.06,2.37c.14,0,.27-.03,.38-.09,.11-.07,.19-.16,.24-.29v-.29h-.58c-.34,0-.52,.11-.52,.33,0,.11,.04,.19,.12,.25,.09,.06,.2,.09,.35,.09Zm5.04-2.33l-1.22,2.84h-.87l-1.22-2.84h.87l.8,1.93,.83-1.93h.81Zm3.1,1.43s0,.08-.02,.22h-2.19c.04,.18,.13,.31,.28,.42,.15,.1,.33,.15,.55,.15,.15,0,.28-.02,.4-.06,.12-.05,.23-.12,.33-.21l.45,.47c-.27,.31-.67,.46-1.2,.46-.33,0-.62-.06-.87-.18-.25-.13-.45-.3-.58-.52s-.2-.47-.2-.75,.07-.53,.2-.75c.14-.22,.32-.4,.55-.52,.24-.13,.5-.19,.79-.19s.54,.06,.77,.18,.41,.29,.54,.52c.13,.22,.2,.48,.2,.78Zm-1.5-.85c-.19,0-.35,.05-.48,.16s-.21,.25-.24,.43h1.43c-.03-.18-.11-.32-.24-.43-.13-.11-.29-.16-.47-.16Zm4.76-.62c.45,0,.79,.11,1.03,.32,.24,.21,.36,.52,.36,.94v1.62h-.79v-.35c-.16,.26-.45,.4-.88,.4-.22,0-.42-.04-.58-.11-.16-.07-.29-.18-.37-.31-.09-.13-.13-.28-.13-.44,0-.26,.1-.47,.3-.62,.2-.15,.52-.23,.94-.23h.67c0-.18-.06-.32-.17-.41-.11-.1-.28-.15-.5-.15-.15,0-.31,.02-.46,.07-.15,.05-.27,.11-.38,.19l-.3-.57c.16-.11,.35-.19,.57-.25,.22-.06,.45-.09,.68-.09Zm-.06,2.37c.14,0,.27-.03,.38-.09,.11-.07,.19-.16,.24-.29v-.29h-.58c-.34,0-.52,.11-.52,.33,0,.11,.04,.19,.12,.25,.09,.06,.2,.09,.35,.09Zm3.98-2.37c.36,0,.65,.11,.87,.32,.22,.21,.33,.52,.33,.94v1.62h-.84v-1.5c0-.22-.05-.39-.15-.5-.1-.11-.25-.17-.44-.17-.21,0-.38,.07-.51,.2-.13,.13-.19,.32-.19,.57v1.4h-.84v-2.84h.8v.33c.11-.12,.25-.21,.41-.27,.17-.07,.35-.1,.54-.1Zm4.66,0c.45,0,.79,.11,1.03,.32,.24,.21,.36,.52,.36,.94v1.62h-.79v-.35c-.16,.26-.45,.4-.88,.4-.22,0-.42-.04-.58-.11-.16-.07-.29-.18-.37-.31-.09-.13-.13-.28-.13-.44,0-.26,.1-.47,.3-.62,.2-.15,.52-.23,.94-.23h.67c0-.18-.06-.32-.17-.41-.11-.1-.28-.15-.5-.15-.15,0-.31,.02-.46,.07-.15,.05-.27,.11-.38,.19l-.3-.57c.16-.11,.35-.19,.57-.25,.22-.06,.45-.09,.68-.09Zm-.06,2.37c.14,0,.27-.03,.38-.09,.11-.07,.19-.16,.24-.29v-.29h-.58c-.34,0-.52,.11-.52,.33,0,.11,.04,.19,.12,.25,.09,.06,.2,.09,.35,.09Zm3.65,.55c-.31,0-.59-.06-.83-.18-.24-.13-.44-.3-.58-.52-.14-.22-.2-.47-.2-.75s.07-.53,.2-.75c.14-.22,.33-.39,.58-.52,.25-.13,.53-.19,.83-.19s.57,.06,.8,.19c.23,.12,.4,.3,.5,.53l-.65,.34c-.15-.26-.37-.39-.65-.39-.22,0-.4,.07-.54,.21-.14,.14-.22,.33-.22,.57s.07,.43,.22,.57c.14,.14,.32,.21,.54,.21,.29,0,.5-.13,.65-.39l.65,.35c-.1,.22-.27,.4-.5,.53-.23,.13-.49,.19-.8,.19Zm3.15,0c-.31,0-.59-.06-.83-.18-.24-.13-.44-.3-.58-.52-.14-.22-.2-.47-.2-.75s.07-.53,.2-.75c.14-.22,.33-.39,.58-.52,.25-.13,.53-.19,.83-.19s.57,.06,.8,.19c.23,.12,.4,.3,.5,.53l-.65,.34c-.15-.26-.37-.39-.65-.39-.22,0-.4,.07-.54,.21-.14,.14-.22,.33-.22,.57s.07,.43,.22,.57c.14,.14,.32,.21,.54,.21,.29,0,.5-.13,.65-.39l.65,.35c-.1,.22-.27,.4-.5,.53-.23,.13-.49,.19-.8,.19Zm3.12,0c-.31,0-.58-.06-.82-.18-.24-.13-.43-.3-.57-.52s-.2-.47-.2-.75,.07-.53,.2-.75c.14-.22,.32-.39,.57-.52,.24-.13,.52-.19,.82-.19s.58,.06,.82,.19c.24,.12,.43,.3,.57,.52,.14,.22,.2,.47,.2,.75s-.07,.53-.2,.75c-.14,.22-.32,.4-.57,.52-.24,.12-.51,.18-.82,.18Zm0-.67c.22,0,.39-.07,.53-.21,.14-.14,.21-.34,.21-.57s-.07-.43-.21-.57c-.14-.14-.31-.22-.53-.22s-.39,.07-.53,.22c-.14,.14-.21,.33-.21,.57s.07,.43,.21,.57c.14,.14,.32,.21,.53,.21Zm5.07-2.2v2.84h-.8v-.34c-.11,.12-.24,.22-.4,.28-.15,.06-.32,.09-.5,.09-.38,0-.68-.11-.9-.32-.22-.21-.33-.53-.33-.95v-1.6h.84v1.48c0,.46,.2,.69,.59,.69,.2,0,.36-.06,.48-.19,.12-.13,.18-.32,.18-.57v-1.4h.84Zm2.54-.04c.36,0,.65,.11,.87,.32,.22,.21,.33,.52,.33,.94v1.62h-.84v-1.5c0-.22-.05-.39-.15-.5-.1-.11-.25-.17-.44-.17-.21,0-.38,.07-.51,.2-.13,.13-.19,.32-.19,.57v1.4h-.84v-2.84h.8v.33c.11-.12,.25-.21,.41-.27,.17-.07,.35-.1,.54-.1Zm3.83,2.74c-.08,.06-.18,.11-.31,.14-.12,.03-.24,.04-.38,.04-.34,0-.61-.09-.8-.26-.19-.17-.28-.43-.28-.76v-1.17h-.45v-.63h.45v-.69h.84v.69h.72v.63h-.72v1.15c0,.12,.03,.21,.09,.28,.06,.06,.15,.09,.27,.09,.13,0,.25-.04,.34-.11l.23,.58Zm1.18-1.14c0-.18,.04-.33,.12-.45,.09-.12,.21-.25,.37-.4,.12-.11,.2-.19,.26-.26,.06-.07,.09-.16,.09-.25,0-.13-.05-.23-.16-.31-.1-.08-.24-.12-.42-.12s-.32,.04-.45,.11c-.13,.07-.24,.16-.33,.28l-.65-.37c.15-.22,.35-.4,.61-.52,.26-.12,.56-.18,.92-.18,.41,0,.74,.09,.99,.26,.25,.17,.38,.41,.38,.72,0,.14-.03,.27-.08,.38-.05,.11-.11,.2-.18,.28-.07,.07-.16,.16-.27,.26-.13,.12-.23,.21-.29,.3-.06,.08-.09,.17-.09,.28h-.81Zm.41,1.32c-.15,0-.27-.05-.37-.14-.1-.09-.15-.21-.15-.34s.05-.24,.15-.33c.1-.09,.22-.14,.37-.14s.27,.05,.37,.14c.1,.09,.15,.2,.15,.33s-.05,.25-.15,.34c-.1,.09-.22,.14-.37,.14Z"/><path class="cls-30" d="M78.12,225.06h.87v2.99h1.89v.7h-2.76v-3.69Zm4.55,3.73c-.31,0-.58-.06-.82-.18-.24-.13-.43-.3-.57-.52-.14-.22-.2-.47-.2-.75s.07-.53,.2-.75c.14-.22,.32-.39,.57-.52,.24-.13,.52-.19,.82-.19s.58,.06,.82,.19c.24,.12,.43,.3,.57,.52,.14,.22,.2,.47,.2,.75s-.07,.53-.2,.75c-.14,.22-.32,.4-.57,.52-.24,.12-.51,.18-.82,.18Zm0-.67c.22,0,.39-.07,.53-.21,.14-.14,.21-.34,.21-.57s-.07-.43-.21-.57c-.14-.14-.31-.22-.53-.22s-.39,.07-.53,.22c-.14,.14-.21,.33-.21,.57s.07,.43,.21,.57c.14,.14,.32,.21,.53,.21Zm5.14-2.2v2.36c0,.52-.14,.91-.41,1.16-.28,.25-.68,.38-1.21,.38-.28,0-.55-.03-.8-.1-.25-.07-.46-.16-.62-.29l.33-.59c.12,.1,.28,.18,.46,.23,.19,.06,.37,.09,.56,.09,.29,0,.5-.07,.64-.2,.14-.13,.21-.32,.21-.58v-.12c-.22,.24-.52,.35-.92,.35-.27,0-.51-.06-.73-.17-.22-.12-.39-.28-.52-.49-.13-.21-.19-.45-.19-.72s.06-.51,.19-.72c.13-.21,.3-.37,.52-.48,.22-.12,.47-.17,.73-.17,.42,0,.74,.14,.96,.41v-.36h.8Zm-1.59,2.02c.22,0,.4-.06,.54-.19,.14-.13,.22-.3,.22-.51s-.07-.37-.22-.5c-.14-.13-.32-.2-.54-.2s-.41,.07-.55,.2c-.14,.13-.22,.29-.22,.5s.07,.38,.22,.51c.14,.13,.33,.19,.55,.19Zm2.37-2.02h.84v2.84h-.84v-2.84Zm.42-.4c-.15,0-.28-.04-.38-.13-.1-.09-.15-.2-.15-.33s.05-.24,.15-.33c.1-.09,.22-.13,.38-.13s.28,.04,.38,.13c.1,.08,.15,.19,.15,.32,0,.14-.05,.25-.15,.34-.1,.09-.22,.13-.38,.13Zm2.96,.35c.36,0,.65,.11,.87,.32,.22,.21,.33,.52,.33,.94v1.62h-.84v-1.5c0-.22-.05-.39-.15-.5-.1-.11-.25-.17-.44-.17-.21,0-.38,.07-.51,.2-.13,.13-.19,.32-.19,.57v1.4h-.84v-2.84h.8v.33c.11-.12,.25-.21,.41-.27,.17-.07,.35-.1,.54-.1Zm2.28,2.92c-.15,0-.27-.05-.37-.15s-.15-.22-.15-.37,.05-.27,.15-.36c.1-.09,.22-.14,.37-.14s.27,.05,.37,.14c.1,.09,.15,.21,.15,.36s-.05,.27-.15,.37-.22,.15-.37,.15Z"/><g class="cls-31"><path class="cls-22" d="M11.43,168.61c9.68-26.06,53.45-37.64,66.63-31.12,13.18,6.52,11.89,16.35,28.31,15.3,16.42-1.05,20.61-17.33,38.88-12.84,18.27,4.49,24.76,28.41,24.76,28.41"/><path class="cls-14" d="M31.06,109.91v58.14"/><path class="cls-14" d="M46.47,116.47v.34c0,1-.47,1.96-1.3,2.67-.83,.71-1.96,1.11-3.13,1.11h-2.71c-.58,0-1.13,.2-1.54,.55-.41,.35-.64,.82-.64,1.32"/><path class="cls-14" d="M42.05,120.59h8.7c.65,0,1.29-.13,1.88-.38,.58-.25,1.08-.62,1.47-1.07"/><path class="cls-14" d="M27.1,109.91v7.97c0,1.07,.24,2.12,.72,3.11,.48,.99,1.18,1.88,2.06,2.64h0c.37,.32,.67,.69,.87,1.11,.2,.41,.3,.86,.3,1.31"/><path class="cls-14" d="M37.18,116.47v5.28c0,1.38-.33,2.74-.98,4.01s-1.59,2.4-2.77,3.34l-.14,.11c-.7,.56-1.26,1.23-1.65,1.98-.38,.75-.58,1.56-.58,2.38"/><path class="cls-14" d="M21.8,113.59v14.69c0,2.2,.54,4.37,1.58,6.38,1.04,2.01,2.57,3.81,4.47,5.29h0c1.01,.78,1.82,1.74,2.37,2.81s.84,2.22,.84,3.39"/><path class="cls-14" d="M12.65,109.86c0,3.61,2.69,5.86,6.01,5.86h3.13"/><path class="cls-14" d="M19.03,125.27v3.77c0,.72,.33,1.41,.93,1.92,.59,.51,1.4,.79,2.24,.79h.05"/><path class="cls-14" d="M19.56,130.54h-4.37c-1.76,0-3.44-.6-4.69-1.66-1.24-1.06-1.94-2.5-1.94-4.01"/><path class="cls-14" d="M40.3,138.19v1.85c0,2.74-1.28,5.37-3.55,7.31l-3.46,2.95c-1.43,1.22-2.23,2.88-2.23,4.61"/><path class="cls-14" d="M43.86,137.59c0,.77-.36,1.51-1,2.06-.64,.55-1.51,.85-2.41,.85h-.16"/><path class="cls-26" d="M41.94,137.63h7.5s1.55-.97,.23-2.08c-.85-.72-2.23-.27-2.23-.27,0,0,1.47-4.12-3.12-4.55-4.59-.43-5.47,2.84-4.76,4.25,.71,1.41-9.02-1.93-10.18,2.03-.09,.3,3.09,.68,6.12,.28,0,0,.97,2.59,4.39,2.1,2.4-.34,2.05-1.76,2.05-1.76Z"/><path class="cls-26" d="M9.71,125.06H1.01s-.18-3.76,12.18-2.4c0,0,.35-3.73,6.97-3.54,6.62,.19,6.53,6.06,6.27,6.19-.26,.14-6.05,0-6.05,0,0,0-.67,2.86-6.12,2.86-3.56,0-4.55-3.11-4.55-3.11Z"/><path class="cls-26" d="M50.21,116.51h-15c-1.35,0-2.39-1.06-2.11-2.19,.15-.62,.68-1.19,1.97-1.43,2.78-.53,4.37,.3,4.37,.3,0,0-2.52-5.83,5.96-5.84,7.85,0,7,4.41,6.88,5.13-.19,1.16,5.42-1.21,8.59,1.81,3.17,3.02-2.46,5.91-5.73,5.22-3.27-.69-4.94-2.99-4.94-2.99Z"/><path class="cls-26" d="M26.54,109.99h12.05s1.11-1.69-1.2-2.52c-2.32-.83-7.38,.1-7.38,.1,0,0,.34-6.21-6.48-5.77-6.19,.4-5.82,4.69-5.82,4.69,0,0-6.13-1.33-11.18,1.94-.87,.56-.46,1.4,.62,1.4,1.43,0,6.57,.05,6.57,.05,0,0,1.45,4.32,7.94,3.78,4.56-.38,4.88-3.67,4.88-3.67Z"/><path class="cls-13" d="M41.48,110.36c.3,0,.55-.21,.55-.47s-.24-.47-.55-.47-.55,.21-.55,.47,.24,.47,.55,.47Z"/><path class="cls-11" d="M16.21,105.5c.29,0,.53-.2,.53-.45s-.24-.45-.53-.45-.53,.2-.53,.45,.24,.45,.53,.45Z"/><path class="cls-11" d="M37.78,134.12c.3,0,.55-.21,.55-.47s-.24-.47-.55-.47-.55,.21-.55,.47,.24,.47,.55,.47Z"/><path class="cls-13" d="M21.04,105.5c.58,0,1.06-.4,1.06-.9s-.47-.9-1.06-.9-1.06,.4-1.06,.9,.47,.9,1.06,.9Z"/><path class="cls-13" d="M53.38,115.39c.58,0,1.05-.4,1.05-.9s-.47-.9-1.05-.9-1.05,.4-1.05,.9,.47,.9,1.05,.9Z"/><path class="cls-13" d="M24.22,124.09c.44,0,.79-.3,.79-.68s-.35-.68-.79-.68-.79,.3-.79,.68,.35,.68,.79,.68Z"/><path class="cls-13" d="M37.78,138.46c.44,0,.79-.3,.79-.68s-.35-.68-.79-.68-.79,.3-.79,.68,.35,.68,.79,.68Z"/><path class="cls-13" d="M23.8,103.75c.2,0,.37-.14,.37-.32s-.17-.32-.37-.32-.37,.14-.37,.32,.17,.32,.37,.32Z"/><path class="cls-13" d="M51.16,112.51c.21,0,.38-.15,.38-.33s-.17-.33-.38-.33-.38,.15-.38,.33,.17,.33,.38,.33Z"/><path class="cls-13" d="M21.8,123.96c.21,0,.38-.15,.38-.33s-.17-.33-.38-.33-.38,.15-.38,.33,.17,.33,.38,.33Z"/><path class="cls-22" d="M56.41,168.54c3.37,0,33.66,.77,28.19,7.28-5.47,6.51-74.68,5.5-74.68,5.5v5.27H177.92l-2.08-2.43s-49.62-2.7-41.57-10.04c5.26-4.8-29.46-5.67-38.5-5.67-9.05,0-39.35,.09-39.35,.09Z"/><path class="cls-8" d="M61.36,172.48c2.67,0,4.84-.31,4.84-.7s-2.17-.7-4.84-.7-4.84,.31-4.84,.7,2.17,.7,4.84,.7Z"/><path class="cls-8" d="M69.72,174.24c1.02,0,1.84-.18,1.84-.4s-.82-.4-1.84-.4-1.84,.18-1.84,.4,.82,.4,1.84,.4Z"/><path class="cls-23" d="M128.6,117.94c4.17,0,7.54-2.89,7.54-6.44s-3.38-6.44-7.54-6.44-7.54,2.89-7.54,6.44,3.38,6.44,7.54,6.44Z"/><path class="cls-5" d="M82.11,127.88h-29.85s.35-2.56,4.78-1.71c5.96,1.14,8.55,.37,8.23-1.27-.42-2.12,2.23-4.7,7.23-3.76,5,.94,4.35,3.68,4.35,3.68,0,0,5.67-.77,5.27,3.06Z"/><path class="cls-8" d="M57.43,129.4h14.71"/><path class="cls-5" d="M101.3,113.48h27.49s-.34-2.54-4.74-1.69c-5.91,1.13-6.33,0-6.01-1.63,.41-2.1-2.22-5.03-7.19-4.1-4.97,.93-3.89,5.86-3.89,5.86,0,0-4.86-.98-5.66,1.56Z"/><path class="cls-8" d="M114.49,114.7h14.71"/><path class="cls-42" d="M191.55,168.36s-.1-7.48-9.34-7.12c0,0-3-16.49-20.09-18.17-20.78-2.04-24.85,17.62-24.85,17.62,0,0-19.7-5.03-22.23,7.68h76.52Z"/><path class="cls-12" d="M191.55,168.36s-.1-7.48-9.34-7.12c0,0-3-16.49-20.09-18.17-20.78-2.04-24.85,17.62-24.85,17.62,0,0-19.7-5.03-22.23,7.68h76.52Z"/><path class="cls-12" d="M130.48,159.74s3.53,1.42,2.32,8.62"/><path class="cls-12" d="M124.12,160.2s2.8,4.05,7.84,.94"/><path class="cls-12" d="M126.59,168.36s-1.74-1.48-4.79-1.21c-3.05,.27-3.42,1.21-3.42,1.21"/><path class="cls-12" d="M131.76,168.36s-.81-3.3-4.91-2.84c-4.1,.46-4.21,2.84-4.21,2.84"/><path class="cls-42" d="M7.32,186.6H49.61c.21-6.32-8.62-5.9-8.62-5.9,0,0-.14-8.08-12.83-9.95-5.3-.78-22.94-.01-20.83,15.85Z"/><path class="cls-12" d="M7.32,186.6H49.61c.21-6.32-8.62-5.9-8.62-5.9,0,0-.14-8.08-12.83-9.95-5.3-.78-22.94-.01-20.83,15.85Z"/><path class="cls-12" d="M26.85,170.61s-4.26,7.4-.48,15.99"/><path class="cls-12" d="M23.43,170.59s-.69,4.11,1.52,6.26"/><path class="cls-12" d="M31.13,171.35s-1.79,6.09-6.27,9.18"/><path class="cls-12" d="M34.56,172.6s-3.51,3.74-5.98,4.02"/><path class="cls-12" d="M17.25,171.61s1.08,7.42,7.71,9.9"/><path class="cls-12" d="M8.97,177.27s4.82-3.89,10.69,0"/><path class="cls-12" d="M25.77,185.03c0-5.2,12.54-5.71,12.6-9.76"/><path class="cls-12" d="M36.03,173.4s-1.92,1.51-.42,4.79"/><path class="cls-12" d="M40.98,180.69c-1.09,.06-6.77,1.95-6.87,5.9"/><path class="cls-12" d="M42.84,186.6c-.47-.68-3.92-6.91-13.03-5.9"/><path class="cls-12" d="M43.92,180.92s.05,3.07-2.93,3.32"/><path class="cls-12" d="M33.37,180.69s-1.04,1.59,1.19,4.13"/><path class="cls-12" d="M28.59,186.6s0-1.6,1.68-1.57c1.68,.04,1.8,1.57,1.8,1.57"/><path class="cls-12" d="M23.33,186.6s-1.68-5.32-7.74-5.09c-6.05,.23-6.62,5.09-6.62,5.09"/><path class="cls-12" d="M21.85,186.6s-.79-2.44-3.94-2.55c-3.15-.1-3.16,2.55-3.16,2.55"/><path class="cls-12" d="M15.88,175.69s-1.28,3.69,1.56,5.93"/><path class="cls-12" d="M19.95,170.98s1.16,2.74-1.87,3.46"/><path class="cls-12" d="M48.57,183.26s-2.41,.15-1.52,3.34"/><path class="cls-26" d="M19.66,168.63s5.68-1.38,9.96-4.73c3.66-2.87,6.59-6.35,11.22-6.29,4.63,.06,5.19,4.14,5.19,4.14,0,0,2.17-3.42,8.28-2.1,6.1,1.32,2.53,5.41,5.33,5.54,2.8,.13,11.08-3.62,11.08,3.45H19.66Z"/><path class="cls-13" d="M46.46,168.79c9.48-7.41,7.99-14.29,7.99-14.29-10.21,4.41-8.52,14.16-8.52,14.16"/><path class="cls-13" d="M47,168.66s1.41-5.48-4.59-7.19c-6-1.71,3.16,7.19,3.16,7.19"/><path class="cls-11" d="M60.92,163.45c.42,0,.77-.29,.77-.65s-.34-.65-.77-.65-.77,.29-.77,.65,.34,.65,.77,.65Z"/><path class="cls-29" d="M5.92,168.66s-7.2-1.69-5.72-4.52c.88-1.68,6.31,2.91,6.31,2.91,0,0-4.98-4.49-4.17-12.73,0,0,5.97,3.62,8.1,9.5,0,0,1.19-8.6,5.44-11.6,0,0,1.02,1.98-.28,8.45,0,0,4.28-4.14,7.01-5.24,0,0-1.72,6.02-4.14,8.84,0,0,2.84-1.23,4.14,.66s-2.95,3.63-2.95,3.63l-13.75,.12Z"/><path class="cls-10" d="M15.82,152.44s-3.23,14.43-4.4,16.13"/><path class="cls-10" d="M22.29,155.73s-6.63,10.29-10.03,12.79"/><path class="cls-10" d="M22.39,164.64s-4.26,3.28-7.32,3.9"/><path class="cls-10" d="M5.92,168.53h13.75"/><path class="cls-26" d="M131.3,186.6s.2-7.21,7.62-7.24c5.26-.02,6.73,2.11,6.73,2.11,0,0-5.15-7.37,4.37-9.03,9.52-1.67,11.72,8.23,16,9.21,4.3,.99,14.58-2.76,11.93,4.94h-46.65Z"/></g><path class="cls-24" d="M87.86,110.24h-12.05c-.83,0-1.51,.66-1.51,1.48v24.46c0,.81,.67,1.48,1.51,1.48h12.05c.83,0,1.51-.66,1.51-1.48v-24.46c0-.81-.67-1.48-1.51-1.48Z"/><path class="cls-27" d="M75.6,182.47v3.2h-8.87v-1.35l5.49-2.47,3.37,.63Z"/><path class="cls-27" d="M94.84,179.41c.45,.98,1.51,3.53,1.51,3.53l-4.42,2.72h-4.01l-.47-1.5,5.04-3.77,2.36-.98Z"/><path class="cls-36" d="M79.51,109.63c2.06,0,3.74-2.07,3.74-4.61s-1.67-4.61-3.74-4.61-3.74,2.07-3.74,4.61,1.67,4.61,3.74,4.61Z"/><path class="cls-36" d="M76.79,96.77c-.49-.66-1.87-.51-3.09,.35-.46,.32-.85,.72-1.15,1.19-.04-.02-.08-.03-.13-.03-.59,0-10.4,5.14-10.31,7.51,.09,2.37,3.38,6.17,4.53,6.9,0,0,5.19-2.37,4.91-3.13-.28-.76-3.27-3.2-3.79-3.68,.62-.31,5.54-5.09,6.1-5.63,.58-.12,1.13-.37,1.61-.71,1.21-.86,1.8-2.09,1.31-2.76Z"/><path class="cls-28" d="M73.97,116.85c1.13-.89-.74-8.35-2.75-8.54-2.01-.18-5.5,3.52-5.36,4.57,.14,1.05,5.25,6.21,8.11,3.97Z"/><path class="cls-41" d="M69.48,134.72c0,1.23,.63,43.76,1.76,47.45,1,.49,3.64,.61,4.52,.25,.88-.37,6.49-47.02,6.49-49.07s-12.77,1.37-12.77,1.37Z"/><path class="cls-33" d="M92.01,180.84c-1.2-1.84-16.82-37.65-18.04-46.48,1.28-.97,10.82-2.52,11.6-.76,.77,1.77,10.05,45.41,9.73,45.98-.32,.57-2.38,1.45-3.29,1.26Z"/><path class="cls-34" d="M79.57,110.99c8.1,0,7.6,21.94,5.84,23.3-1.76,1.35-15.51,1.41-16.39,.43-.88-.98-2.96-23.73,10.55-23.73Z"/><path class="cls-24" d="M85.46,103.45c0-.94-.91-1.61-.91-2.13s.31-1.45-.39-2.11c-.85-.81-2.21-.47-3.42-.47-1.14,0-1.77-1.3-3.33-1.3-1.04,0-.91,1.32-1.29,1.64-.29,.25-2.53,.72-2.53,1.72,0,1.12,.03,2.63,2.41,2.63,.16-.54,.75-1.72,1.43-2.25,.35,.15,2.26,.92,2.73,1.06s1.17,2.12,1.9,2.36c.73,.24,.78,1.56,1.32,1.5,.54-.06,2.08-.28,2.08-2.66Z"/><path class="cls-36" d="M82.73,106.35c.55,0,.99-.43,.99-.97s-.44-.97-.99-.97-.99,.43-.99,.97,.44,.97,.99,.97Z"/><path class="cls-36" d="M81.38,112.71c-.16,.53-3.48-.11-3.42-.72l.57-5.37,4,.84s-.99,4.72-1.15,5.25Z"/><path class="cls-9" d="M104.01,115.59l-14.05,68.16"/><path class="cls-36" d="M101.75,134.4c-.37-.37-.86-.62-1.38-.71-1.68-2.65-7.37-10.8-9.88-13.77-1.81,1.27-4.02,3.5-4.02,3.5,.92,1.01,7.84,9.02,11.52,12.16,0,.33,.06,.65,.19,.96,.13,.3,.32,.58,.56,.81,.93,.91,2.36,.99,3.19,.18,.83-.81,.75-2.21-.18-3.13Z"/><path class="cls-35" d="M82.75,114.59c3.25-2.36,8.61,3.35,8.52,4.86-.09,1.5-4.2,4.84-5.61,4.84-1.72,0-5.67-7.68-2.9-9.7Z"/></g></g></g><g><path d="M123.01,.14h-.06c-.21-.01-.42-.02-.64-.02H26c-.22,0-.44,0-.65,.01h-.1c-6.96,.4-12.41,6.16-12.41,13.14V244.28c0,6.82,5.32,12.58,12.11,13.12,.1,0,.21,.02,.32,.02h.04c.23,.01,.46,.02,.69,.02H122.31c.23,0,.45,0,.68-.02h.04c.11,0,.23-.01,.33-.02,6.79-.53,12.1-6.3,12.1-13.11V13.28c0-7-5.47-12.77-12.46-13.14Zm8.95,244.14c0,5-3.9,9.23-8.87,9.62-.05,0-.09,0-.14,0h-.15c-.16,.01-.33,.02-.49,.02H26c-.17,0-.33,0-.5-.01h-.14s-.08-.01-.13-.02c-4.98-.39-8.88-4.62-8.88-9.62V13.28c0-5.08,3.95-9.29,9.01-9.63h.22c.15-.02,.29-.02,.42-.02H122.31c.13,0,.27,0,.43,0h.08c5.12,.27,9.13,4.51,9.13,9.64V244.28Z"/><path d="M106.9,3.63v1.26c0,4.24-3.44,7.68-7.68,7.68H49.09c-4.24,0-7.68-3.44-7.68-7.68v-1.26H106.9Z"/></g></g><rect class="cls-38" x="66.07" y="4.67" width="15.37" height="1.61" rx=".68" ry=".68"/></g><path class="cls-16" d="M122.76,3.66h-.22c-.16-.02-.3-.02-.43-.02h-14.18c-.81,.04-1.47,.67-1.55,1.47,0,.05,0,.11,0,.17v.02c-.19,4.16-3.63,7.47-7.83,7.47H47.38c-4.2,0-7.63-3.31-7.83-7.47v-.02c0-.06,0-.11,0-.17-.08-.8-.74-1.43-1.55-1.47h-14.18c-.13,0-.28,0-.43,0h-.22c-5.16,.35-9.19,4.65-9.19,9.84V249.26c0,5.1,3.98,9.42,9.06,9.81,.05,0,.09,0,.13,.01h.14c.17,.01,.34,.02,.51,.02H122.11c.17,0,.34,0,.51-.01h.14s.08-.01,.13-.02c5.08-.4,9.06-4.71,9.06-9.81V13.48c0-5.19-4.03-9.49-9.19-9.82Z"/></g><path class="cls-21" d="M118.92,6.85c-.5-.42-1.13-.65-1.79-.65s-1.3,.23-1.8,.65l-.04,.04s-.04,.08,0,.11l.3,.29s.07,.03,.11,0l.04-.03c.39-.33,.89-.5,1.41-.5s1.01,.18,1.4,.5l.04,.03s.08,.02,.11,0l.3-.29s.03-.08,0-.11l-.04-.04Zm-1.79,.24c.42,0,.82,.14,1.14,.39l.05,.04s.04,.08,0,.11l-.3,.29s-.07,.03-.1,0l-.04-.03c-.22-.16-.49-.25-.76-.25s-.54,.09-.77,.25l-.04,.03s-.07,.02-.1,0l-.3-.29s-.03-.09,0-.11l.05-.04c.33-.25,.73-.39,1.15-.39Zm0,.89c.17,0,.33,.04,.47,.13l.06,.03s.05,.08,.02,.12l-.5,.49s-.08,.03-.11,0l-.49-.48s-.03-.09,.02-.12l.06-.03c.14-.08,.31-.13,.48-.13Z"/><path class="cls-19" d="M121.18,6.33h4.98c.36,0,.65,.29,.65,.64v1.67c0,.35-.29,.64-.65,.64h-4.98c-.36,0-.65-.29-.65-.64v-1.67c0-.35,.29-.64,.65-.64Zm0,.26c-.22,0-.39,.17-.39,.39v1.67c0,.21,.18,.39,.39,.39h4.98c.22,0,.39-.17,.39-.39v-1.67c0-.21-.18-.39-.39-.39h-4.98Z"/><path class="cls-20" d="M127.07,7.18c.23,.12,.39,.35,.39,.63s-.16,.51-.39,.63v-1.26Z"/><path class="cls-21" d="M121.31,6.84h4.71c.14,0,.26,.11,.26,.26v1.41c0,.14-.12,.26-.26,.26h-4.71c-.14,0-.26-.11-.26-.26v-1.41c0-.14,.12-.26,.26-.26Z"/><path class="cls-21" d="M112.58,6.2h.26c.14,0,.26,.11,.26,.26v2.05c0,.14-.12,.26-.26,.26h-.26c-.14,0-.26-.11-.26-.26v-2.05c0-.14,.12-.26,.26-.26Z"/><path d="M111.66,6.71h-.26c-.14,0-.26,.11-.26,.26v1.54c0,.14,.12,.26,.26,.26h.26c.14,0,.26-.11,.26-.26v-1.54c0-.14-.12-.26-.26-.26Z"/><path d="M110.22,7.23h.26c.14,0,.26,.11,.26,.26v1.03c0,.14-.12,.26-.26,.26h-.26c-.14,0-.26-.11-.26-.26v-1.03c0-.14,.12-.26,.26-.26Z"/><path d="M109.05,7.61h.26c.14,0,.26,.11,.26,.26v.64c0,.14-.12,.26-.26,.26h-.26c-.14,0-.26-.11-.26-.26v-.64c0-.14,.12-.26,.26-.26Z"/><path d="M24.18,9.28h.28v-.94h.98v-.24h-.98v-.75h1.07v-.24h-1.34v2.17Zm1.89-1.94c.1,0,.18-.08,.18-.18s-.08-.18-.18-.18-.18,.08-.18,.18,.08,.18,.18,.18Zm-.14,1.94h.27v-1.62h-.27v1.62Zm1.44,.57c.45,0,.74-.23,.74-.59v-1.6h-.27v.27h-.02c-.1-.18-.28-.3-.52-.3-.43,0-.7,.33-.7,.78h0c0,.46,.27,.78,.69,.78,.23,0,.41-.1,.52-.28h.02v.33c0,.24-.18,.38-.47,.38-.24,0-.39-.09-.41-.21h-.28c.04,.27,.3,.44,.7,.44Zm-.01-.89c-.31,0-.48-.23-.48-.55h0c0-.33,.17-.56,.48-.56s.49,.23,.49,.55h0c0,.33-.18,.55-.49,.55Zm1.23,.32h.27v-1.01c0-.23,.16-.41,.38-.41s.34,.12,.34,.32v1.1h.27v-1.04c0-.21,.15-.38,.38-.38s.35,.12,.35,.36v1.06h.27v-1.12c0-.34-.19-.53-.53-.53-.23,0-.42,.11-.51,.28h-.02c-.08-.17-.23-.28-.46-.28s-.37,.1-.45,.28h-.02v-.25h-.27v1.62Zm3.18,.03c.22,0,.4-.09,.5-.27h.02v.24h.27v-1.11c0-.34-.23-.54-.63-.54-.35,0-.6,.17-.65,.43h.27c.04-.12,.17-.19,.37-.19,.25,0,.37,.11,.37,.31v.15l-.47,.03c-.39,.02-.6,.19-.6,.48h0c0,.3,.24,.48,.55,.48Zm-.28-.49h0c0-.16,.11-.25,.36-.27l.44-.03v.15c0,.23-.2,.41-.47,.41-.19,0-.33-.1-.33-.26Z"/></g></g></svg>